<?xml version="1.0" encoding="UTF-8" standalone="no"?>
<!DOCTYPE svg PUBLIC "-//W3C//DTD SVG 1.1//EN"
 "http://www.w3.org/Graphics/SVG/1.1/DTD/svg11.dtd">
<!-- Generated by graphviz version 2.43.0 (0)
 -->
<!-- Title: equity_algo_engine Pages: 1 -->
<svg width="2005pt" height="952pt"
 viewBox="0.00 0.00 2005.00 951.88" xmlns="http://www.w3.org/2000/svg" xmlns:xlink="http://www.w3.org/1999/xlink">
<g id="graph0" class="graph" transform="scale(1 1) rotate(0) translate(4 947.88)">
<title>equity_algo_engine</title>
<polygon fill="white" stroke="transparent" points="-4,4 -4,-947.88 2001,-947.88 2001,4 -4,4"/>
<text text-anchor="middle" x="998.5" y="-928.67" font-family="Helvetica,sans-Serif" font-size="14.00">equity&#45;algo&#45;engine — system architecture (local&#45;first, paper&#45;only)</text>
<g id="clust1" class="cluster">
<title>cluster_ext</title>
<path fill="none" stroke="#b0392f" stroke-dasharray="5,2" d="M729,-837.88C729,-837.88 1085,-837.88 1085,-837.88 1091,-837.88 1097,-843.88 1097,-849.88 1097,-849.88 1097,-900.88 1097,-900.88 1097,-906.88 1091,-912.88 1085,-912.88 1085,-912.88 729,-912.88 729,-912.88 723,-912.88 717,-906.88 717,-900.88 717,-900.88 717,-849.88 717,-849.88 717,-843.88 723,-837.88 729,-837.88"/>
<text text-anchor="middle" x="907" y="-897.67" font-family="Helvetica,sans-Serif" font-size="14.00" fill="#b0392f">External (Zerodha Kite Connect — paid market data)</text>
</g>
<g id="clust2" class="cluster">
<title>cluster_fe</title>
<path fill="#f3f7fd" stroke="#2b6cb0" d="M1774,-203C1774,-203 1940,-203 1940,-203 1946,-203 1952,-209 1952,-215 1952,-215 1952,-271 1952,-271 1952,-277 1946,-283 1940,-283 1940,-283 1774,-283 1774,-283 1768,-283 1762,-277 1762,-271 1762,-271 1762,-215 1762,-215 1762,-209 1768,-203 1774,-203"/>
<text text-anchor="middle" x="1857" y="-267.8" font-family="Helvetica,sans-Serif" font-size="14.00">Frontend (Node / Next.js)</text>
</g>
<g id="clust3" class="cluster">
<title>cluster_api</title>
<path fill="#f4f8ff" stroke="#2b6cb0" d="M1778,-321.19C1778,-321.19 1940,-321.19 1940,-321.19 1946,-321.19 1952,-327.19 1952,-333.19 1952,-333.19 1952,-499.88 1952,-499.88 1952,-505.88 1946,-511.88 1940,-511.88 1940,-511.88 1778,-511.88 1778,-511.88 1772,-511.88 1766,-505.88 1766,-499.88 1766,-499.88 1766,-333.19 1766,-333.19 1766,-327.19 1772,-321.19 1778,-321.19"/>
<text text-anchor="middle" x="1859" y="-496.68" font-family="Helvetica,sans-Serif" font-size="14.00">Read&#45;only API (FastAPI)</text>
</g>
<g id="clust7" class="cluster">
<title>cluster_research</title>
<path fill="#f0fbfb" stroke="#2c7a7b" d="M20,-10.5C20,-10.5 422,-10.5 422,-10.5 428,-10.5 434,-16.5 434,-22.5 434,-22.5 434,-384.19 434,-384.19 434,-390.19 428,-396.19 422,-396.19 422,-396.19 20,-396.19 20,-396.19 14,-396.19 8,-390.19 8,-384.19 8,-384.19 8,-22.5 8,-22.5 8,-16.5 14,-10.5 20,-10.5"/>
<text text-anchor="middle" x="221" y="-380.99" font-family="Helvetica,sans-Serif" font-size="14.00">Backtesting &amp; research (backtest/)</text>
</g>
<g id="clust4" class="cluster">
<title>cluster_engine</title>
<path fill="#f1faf4" stroke="#2f855a" d="M1525,-436.88C1525,-436.88 1746,-436.88 1746,-436.88 1752,-436.88 1758,-442.88 1758,-448.88 1758,-448.88 1758,-797.88 1758,-797.88 1758,-803.88 1752,-809.88 1746,-809.88 1746,-809.88 1525,-809.88 1525,-809.88 1519,-809.88 1513,-803.88 1513,-797.88 1513,-797.88 1513,-448.88 1513,-448.88 1513,-442.88 1519,-436.88 1525,-436.88"/>
<text text-anchor="middle" x="1635.5" y="-794.67" font-family="Helvetica,sans-Serif" font-size="14.00">Orchestration (engine.py + live/)</text>
</g>
<g id="clust5" class="cluster">
<title>cluster_core</title>
<path fill="#f7f5fe" stroke="#6b46c1" d="M558,-8C558,-8 994,-8 994,-8 1000,-8 1006,-14 1006,-20 1006,-20 1006,-163 1006,-163 1006,-169 1000,-175 994,-175 994,-175 558,-175 558,-175 552,-175 546,-169 546,-163 546,-163 546,-20 546,-20 546,-14 552,-8 558,-8"/>
<text text-anchor="middle" x="776" y="-159.8" font-family="Helvetica,sans-Serif" font-size="14.00">Strategies &amp; Risk</text>
</g>
<g id="clust8" class="cluster">
<title>cluster_data</title>
<path fill="#f5f6f8" stroke="#4a5568" d="M457,-434.38C457,-434.38 764,-434.38 764,-434.38 770,-434.38 776,-440.38 776,-446.38 776,-446.38 776,-612.88 776,-612.88 776,-618.88 770,-624.88 764,-624.88 764,-624.88 457,-624.88 457,-624.88 451,-624.88 445,-618.88 445,-612.88 445,-612.88 445,-446.38 445,-446.38 445,-440.38 451,-434.38 457,-434.38"/>
<text text-anchor="middle" x="610.5" y="-609.67" font-family="Helvetica,sans-Serif" font-size="14.00">Broker &amp; data layer</text>
</g>
<g id="clust6" class="cluster">
<title>cluster_exec</title>
<path fill="#fffaf0" stroke="#b7791f" d="M1008,-205.5C1008,-205.5 1493,-205.5 1493,-205.5 1499,-205.5 1505,-211.5 1505,-217.5 1505,-217.5 1505,-499.88 1505,-499.88 1505,-505.88 1499,-511.88 1493,-511.88 1493,-511.88 1008,-511.88 1008,-511.88 1002,-511.88 996,-505.88 996,-499.88 996,-499.88 996,-217.5 996,-217.5 996,-211.5 1002,-205.5 1008,-205.5"/>
<text text-anchor="middle" x="1250.5" y="-496.68" font-family="Helvetica,sans-Serif" font-size="14.00">Execution (execution/)</text>
</g>
<g id="clust9" class="cluster">
<title>cluster_stores</title>
<path fill="#eef0f3" stroke="#4a5568" d="M454,-311C454,-311 748,-311 748,-311 754,-311 760,-317 760,-323 760,-323 760,-394.38 760,-394.38 760,-400.38 754,-406.38 748,-406.38 748,-406.38 454,-406.38 454,-406.38 448,-406.38 442,-400.38 442,-394.38 442,-394.38 442,-323 442,-323 442,-317 448,-311 454,-311"/>
<text text-anchor="middle" x="601" y="-391.18" font-family="Helvetica,sans-Serif" font-size="14.00">State (docker&#45;compose)</text>
</g>
<!-- kite_rest -->
<g id="node1" class="node">
<title>kite_rest</title>
<path fill="#fde2df" stroke="#9aa7b8" d="M826.5,-881.88C826.5,-881.88 737.5,-881.88 737.5,-881.88 731.5,-881.88 725.5,-875.88 725.5,-869.88 725.5,-869.88 725.5,-857.88 725.5,-857.88 725.5,-851.88 731.5,-845.88 737.5,-845.88 737.5,-845.88 826.5,-845.88 826.5,-845.88 832.5,-845.88 838.5,-851.88 838.5,-857.88 838.5,-857.88 838.5,-869.88 838.5,-869.88 838.5,-875.88 832.5,-881.88 826.5,-881.88"/>
<text text-anchor="middle" x="782" y="-866.88" font-family="Helvetica,sans-Serif" font-size="10.00">Kite Connect REST</text>
<text text-anchor="middle" x="782" y="-855.88" font-family="Helvetica,sans-Serif" font-size="10.00">(historical, account)</text>
</g>
<!-- kite_ws -->
<g id="node2" class="node">
<title>kite_ws</title>
<path fill="#fde2df" stroke="#9aa7b8" d="M1076.5,-881.88C1076.5,-881.88 975.5,-881.88 975.5,-881.88 969.5,-881.88 963.5,-875.88 963.5,-869.88 963.5,-869.88 963.5,-857.88 963.5,-857.88 963.5,-851.88 969.5,-845.88 975.5,-845.88 975.5,-845.88 1076.5,-845.88 1076.5,-845.88 1082.5,-845.88 1088.5,-851.88 1088.5,-857.88 1088.5,-857.88 1088.5,-869.88 1088.5,-869.88 1088.5,-875.88 1082.5,-881.88 1076.5,-881.88"/>
<text text-anchor="middle" x="1026" y="-866.88" font-family="Helvetica,sans-Serif" font-size="10.00">KiteTicker</text>
<text text-anchor="middle" x="1026" y="-855.88" font-family="Helvetica,sans-Serif" font-size="10.00">WebSocket (live ticks)</text>
</g>
<!-- feed -->
<g id="node7" class="node">
<title>feed</title>
<path fill="#eef2f7" stroke="#9aa7b8" d="M1619.5,-778.88C1619.5,-778.88 1554.5,-778.88 1554.5,-778.88 1548.5,-778.88 1542.5,-772.88 1542.5,-766.88 1542.5,-766.88 1542.5,-754.88 1542.5,-754.88 1542.5,-748.88 1548.5,-742.88 1554.5,-742.88 1554.5,-742.88 1619.5,-742.88 1619.5,-742.88 1625.5,-742.88 1631.5,-748.88 1631.5,-754.88 1631.5,-754.88 1631.5,-766.88 1631.5,-766.88 1631.5,-772.88 1625.5,-778.88 1619.5,-778.88"/>
<text text-anchor="middle" x="1587" y="-763.88" font-family="Helvetica,sans-Serif" font-size="10.00">KiteTickerFeed</text>
<text text-anchor="middle" x="1587" y="-752.88" font-family="Helvetica,sans-Serif" font-size="10.00">live/feed.py</text>
</g>
<!-- kite_ws&#45;&gt;feed -->
<g id="edge9" class="edge">
<title>kite_ws&#45;&gt;feed</title>
<path fill="none" stroke="#6b7686" d="M1088.72,-851.58C1199.4,-831.66 1427.56,-790.58 1532.28,-771.73"/>
<polygon fill="#6b7686" stroke="#6b7686" points="1533.1,-775.14 1542.32,-769.92 1531.86,-768.25 1533.1,-775.14"/>
<text text-anchor="middle" x="1283" y="-820.67" font-family="Helvetica,sans-Serif" font-size="9.00">ticks</text>
</g>
<!-- browser -->
<g id="node3" class="node">
<title>browser</title>
<polygon fill="#e8eefc" stroke="#9aa7b8" points="1889,-141.5 1837,-141.5 1833,-137.5 1833,-105.5 1885,-105.5 1889,-109.5 1889,-141.5"/>
<polyline fill="none" stroke="#9aa7b8" points="1885,-137.5 1833,-137.5 "/>
<polyline fill="none" stroke="#9aa7b8" points="1885,-137.5 1885,-105.5 "/>
<polyline fill="none" stroke="#9aa7b8" points="1885,-137.5 1889,-141.5 "/>
<text text-anchor="middle" x="1861" y="-126.5" font-family="Helvetica,sans-Serif" font-size="10.00">Browser</text>
<text text-anchor="middle" x="1861" y="-115.5" font-family="Helvetica,sans-Serif" font-size="10.00">(you)</text>
</g>
<!-- nextjs -->
<g id="node4" class="node">
<title>nextjs</title>
<path fill="#dbe8fb" stroke="#9aa7b8" d="M1931,-252C1931,-252 1791,-252 1791,-252 1785,-252 1779,-246 1779,-240 1779,-240 1779,-223 1779,-223 1779,-217 1785,-211 1791,-211 1791,-211 1931,-211 1931,-211 1937,-211 1943,-217 1943,-223 1943,-223 1943,-240 1943,-240 1943,-246 1937,-252 1931,-252"/>
<text text-anchor="middle" x="1861" y="-240" font-family="Helvetica,sans-Serif" font-size="10.00">Next.js dashboard</text>
<text text-anchor="middle" x="1861" y="-229" font-family="Helvetica,sans-Serif" font-size="10.00">frontend/ &#160;(cards, equity chart,</text>
<text text-anchor="middle" x="1861" y="-218" font-family="Helvetica,sans-Serif" font-size="10.00">tables · SWR polling)</text>
</g>
<!-- nextjs&#45;&gt;browser -->
<g id="edge37" class="edge">
<title>nextjs&#45;&gt;browser</title>
<path fill="none" stroke="#6b7686" d="M1861,-210.56C1861,-193.92 1861,-170.03 1861,-151.64"/>
<polygon fill="#6b7686" stroke="#6b7686" points="1864.5,-151.55 1861,-141.55 1857.5,-151.55 1864.5,-151.55"/>
<text text-anchor="middle" x="1891.5" y="-185.8" font-family="Helvetica,sans-Serif" font-size="9.00">JSON &#160;/ &#160;HTTP</text>
</g>
<!-- fastapi -->
<g id="node5" class="node">
<title>fastapi</title>
<path fill="#eef2f7" stroke="#9aa7b8" d="M1928,-365.19C1928,-365.19 1794,-365.19 1794,-365.19 1788,-365.19 1782,-359.19 1782,-353.19 1782,-353.19 1782,-341.19 1782,-341.19 1782,-335.19 1788,-329.19 1794,-329.19 1794,-329.19 1928,-329.19 1928,-329.19 1934,-329.19 1940,-335.19 1940,-341.19 1940,-341.19 1940,-353.19 1940,-353.19 1940,-359.19 1934,-365.19 1928,-365.19"/>
<text text-anchor="middle" x="1861" y="-350.19" font-family="Helvetica,sans-Serif" font-size="10.00">FastAPI app</text>
<text text-anchor="middle" x="1861" y="-339.19" font-family="Helvetica,sans-Serif" font-size="10.00">api/app.py &#160;(CORS, GET only)</text>
</g>
<!-- fastapi&#45;&gt;nextjs -->
<g id="edge36" class="edge">
<title>fastapi&#45;&gt;nextjs</title>
<path fill="none" stroke="#6b7686" d="M1861,-328.92C1861,-311.28 1861,-283.54 1861,-262.33"/>
<polygon fill="#6b7686" stroke="#6b7686" points="1864.5,-262.23 1861,-252.23 1857.5,-262.23 1864.5,-262.23"/>
<text text-anchor="middle" x="1891.5" y="-293.8" font-family="Helvetica,sans-Serif" font-size="9.00">JSON &#160;/ &#160;HTTP</text>
</g>
<!-- service -->
<g id="node6" class="node">
<title>service</title>
<path fill="#eef2f7" stroke="#9aa7b8" d="M1932,-480.88C1932,-480.88 1786,-480.88 1786,-480.88 1780,-480.88 1774,-474.88 1774,-468.88 1774,-468.88 1774,-456.88 1774,-456.88 1774,-450.88 1780,-444.88 1786,-444.88 1786,-444.88 1932,-444.88 1932,-444.88 1938,-444.88 1944,-450.88 1944,-456.88 1944,-456.88 1944,-468.88 1944,-468.88 1944,-474.88 1938,-480.88 1932,-480.88"/>
<text text-anchor="middle" x="1859" y="-465.88" font-family="Helvetica,sans-Serif" font-size="10.00">DashboardState + read&#45;models</text>
<text text-anchor="middle" x="1859" y="-454.88" font-family="Helvetica,sans-Serif" font-size="10.00">api/service.py</text>
</g>
<!-- service&#45;&gt;fastapi -->
<g id="edge35" class="edge">
<title>service&#45;&gt;fastapi</title>
<path fill="none" stroke="#6b7686" d="M1859.3,-444.61C1859.63,-426.22 1860.14,-396.87 1860.52,-375.38"/>
<polygon fill="#6b7686" stroke="#6b7686" points="1864.02,-375.3 1860.7,-365.24 1857.02,-375.18 1864.02,-375.3"/>
<text text-anchor="middle" x="1889.5" y="-417.18" font-family="Helvetica,sans-Serif" font-size="9.00">JSON &#160;/ &#160;HTTP</text>
</g>
<!-- barbuilder -->
<g id="node8" class="node">
<title>barbuilder</title>
<path fill="#eef2f7" stroke="#9aa7b8" d="M1685.5,-696.88C1685.5,-696.88 1532.5,-696.88 1532.5,-696.88 1526.5,-696.88 1520.5,-690.88 1520.5,-684.88 1520.5,-684.88 1520.5,-672.88 1520.5,-672.88 1520.5,-666.88 1526.5,-660.88 1532.5,-660.88 1532.5,-660.88 1685.5,-660.88 1685.5,-660.88 1691.5,-660.88 1697.5,-666.88 1697.5,-672.88 1697.5,-672.88 1697.5,-684.88 1697.5,-684.88 1697.5,-690.88 1691.5,-696.88 1685.5,-696.88"/>
<text text-anchor="middle" x="1609" y="-681.88" font-family="Helvetica,sans-Serif" font-size="10.00">BarBuilder</text>
<text text-anchor="middle" x="1609" y="-670.88" font-family="Helvetica,sans-Serif" font-size="10.00">live/bars.py &#160;(ticks → 1&#45;min bars)</text>
</g>
<!-- feed&#45;&gt;barbuilder -->
<g id="edge10" class="edge">
<title>feed&#45;&gt;barbuilder</title>
<path fill="none" stroke="#6b7686" d="M1591.77,-742.52C1594.65,-732.07 1598.37,-718.54 1601.61,-706.74"/>
<polygon fill="#6b7686" stroke="#6b7686" points="1605.03,-707.5 1604.31,-696.93 1598.28,-705.64 1605.03,-707.5"/>
<text text-anchor="middle" x="1609" y="-717.67" font-family="Helvetica,sans-Serif" font-size="9.00">bars</text>
</g>
<!-- engine -->
<g id="node9" class="node">
<title>engine</title>
<path fill="#cdeed9" stroke="#9aa7b8" d="M1627,-593.88C1627,-593.88 1533,-593.88 1533,-593.88 1527,-593.88 1521,-587.88 1521,-581.88 1521,-581.88 1521,-569.88 1521,-569.88 1521,-563.88 1527,-557.88 1533,-557.88 1533,-557.88 1627,-557.88 1627,-557.88 1633,-557.88 1639,-563.88 1639,-569.88 1639,-569.88 1639,-581.88 1639,-581.88 1639,-587.88 1633,-593.88 1627,-593.88"/>
<text text-anchor="middle" x="1580" y="-578.88" font-family="Helvetica,sans-Serif" font-size="10.00">PaperTradingEngine /</text>
<text text-anchor="middle" x="1580" y="-567.88" font-family="Helvetica,sans-Serif" font-size="10.00">MultiStrategyEngine</text>
</g>
<!-- barbuilder&#45;&gt;engine -->
<g id="edge11" class="edge">
<title>barbuilder&#45;&gt;engine</title>
<path fill="none" stroke="#6b7686" d="M1604.08,-660.74C1599.6,-645.14 1592.92,-621.86 1587.72,-603.78"/>
<polygon fill="#6b7686" stroke="#6b7686" points="1591.07,-602.74 1584.94,-594.09 1584.34,-604.67 1591.07,-602.74"/>
<text text-anchor="middle" x="1608" y="-635.67" font-family="Helvetica,sans-Serif" font-size="9.00">bars</text>
</g>
<!-- engine&#45;&gt;service -->
<g id="edge34" class="edge">
<title>engine&#45;&gt;service</title>
<path fill="none" stroke="#6b7686" d="M1635.23,-557.77C1671.67,-545.99 1720.21,-529.37 1762,-511.88 1780.72,-504.04 1800.91,-494.27 1817.99,-485.6"/>
<polygon fill="#6b7686" stroke="#6b7686" points="1819.84,-488.59 1827.14,-480.91 1816.64,-482.36 1819.84,-488.59"/>
<text text-anchor="middle" x="1803.5" y="-527.67" font-family="Helvetica,sans-Serif" font-size="9.00">DashboardState.from_engine</text>
</g>
<!-- tradelog -->
<g id="node10" class="node">
<title>tradelog</title>
<path fill="#eef2f7" stroke="#9aa7b8" d="M1580,-480.88C1580,-480.88 1544,-480.88 1544,-480.88 1538,-480.88 1532,-474.88 1532,-468.88 1532,-468.88 1532,-456.88 1532,-456.88 1532,-450.88 1538,-444.88 1544,-444.88 1544,-444.88 1580,-444.88 1580,-444.88 1586,-444.88 1592,-450.88 1592,-456.88 1592,-456.88 1592,-468.88 1592,-468.88 1592,-474.88 1586,-480.88 1580,-480.88"/>
<text text-anchor="middle" x="1562" y="-460.38" font-family="Helvetica,sans-Serif" font-size="10.00">TradeLog</text>
</g>
<!-- engine&#45;&gt;tradelog -->
<g id="edge22" class="edge">
<title>engine&#45;&gt;tradelog</title>
<path fill="none" stroke="#6b7686" d="M1577.19,-557.53C1574.31,-539.77 1569.79,-511.91 1566.43,-491.19"/>
<polygon fill="#6b7686" stroke="#6b7686" points="1569.85,-490.41 1564.79,-481.1 1562.94,-491.53 1569.85,-490.41"/>
</g>
<!-- notifier -->
<g id="node11" class="node">
<title>notifier</title>
<path fill="#eef2f7" stroke="#9aa7b8" d="M1691.5,-480.88C1691.5,-480.88 1622.5,-480.88 1622.5,-480.88 1616.5,-480.88 1610.5,-474.88 1610.5,-468.88 1610.5,-468.88 1610.5,-456.88 1610.5,-456.88 1610.5,-450.88 1616.5,-444.88 1622.5,-444.88 1622.5,-444.88 1691.5,-444.88 1691.5,-444.88 1697.5,-444.88 1703.5,-450.88 1703.5,-456.88 1703.5,-456.88 1703.5,-468.88 1703.5,-468.88 1703.5,-474.88 1697.5,-480.88 1691.5,-480.88"/>
<text text-anchor="middle" x="1657" y="-465.88" font-family="Helvetica,sans-Serif" font-size="10.00">Notifier</text>
<text text-anchor="middle" x="1657" y="-454.88" font-family="Helvetica,sans-Serif" font-size="10.00">(log / Telegram)</text>
</g>
<!-- engine&#45;&gt;notifier -->
<g id="edge23" class="edge">
<title>engine&#45;&gt;notifier</title>
<path fill="none" stroke="#6b7686" d="M1592.03,-557.53C1604.69,-539.28 1624.74,-510.37 1639.23,-489.5"/>
<polygon fill="#6b7686" stroke="#6b7686" points="1642.23,-491.31 1645.05,-481.1 1636.48,-487.32 1642.23,-491.31"/>
</g>
<!-- strategies -->
<g id="node12" class="node">
<title>strategies</title>
<path fill="#e7e0fb" stroke="#9aa7b8" d="M766,-144C766,-144 566,-144 566,-144 560,-144 554,-138 554,-132 554,-132 554,-115 554,-115 554,-109 560,-103 566,-103 566,-103 766,-103 766,-103 772,-103 778,-109 778,-115 778,-115 778,-132 778,-132 778,-138 772,-144 766,-144"/>
<text text-anchor="middle" x="666" y="-132" font-family="Helvetica,sans-Serif" font-size="10.00">Strategy ABC + ORB, Momentum,</text>
<text text-anchor="middle" x="666" y="-121" font-family="Helvetica,sans-Serif" font-size="10.00">MA&#45;cross, RSI2, VWAP, Supertrend,</text>
<text text-anchor="middle" x="666" y="-110" font-family="Helvetica,sans-Serif" font-size="10.00">cross&#45;sectional · Ensemble (regime&#45;gated)</text>
</g>
<!-- engine&#45;&gt;strategies -->
<g id="edge12" class="edge">
<title>engine&#45;&gt;strategies</title>
<path fill="none" stroke="#6b7686" d="M1520.62,-574.26C1417.75,-572.5 1199.95,-565.75 1018,-539.88 961.63,-531.86 941.84,-541.13 893,-511.88 801.98,-457.35 808.37,-407.38 764,-311 737.67,-253.81 702.45,-189.22 682.19,-153.03"/>
<polygon fill="#6b7686" stroke="#6b7686" points="685.08,-151.04 677.13,-144.03 678.98,-154.47 685.08,-151.04"/>
<text text-anchor="middle" x="837.5" y="-344.99" font-family="Helvetica,sans-Serif" font-size="9.00">on_bar → Signal</text>
</g>
<!-- risk -->
<g id="node15" class="node">
<title>risk</title>
<path fill="#eef2f7" stroke="#9aa7b8" d="M985.5,-144C985.5,-144 808.5,-144 808.5,-144 802.5,-144 796.5,-138 796.5,-132 796.5,-132 796.5,-115 796.5,-115 796.5,-109 802.5,-103 808.5,-103 808.5,-103 985.5,-103 985.5,-103 991.5,-103 997.5,-109 997.5,-115 997.5,-115 997.5,-132 997.5,-132 997.5,-138 991.5,-144 985.5,-144"/>
<text text-anchor="middle" x="897" y="-132" font-family="Helvetica,sans-Serif" font-size="10.00">RiskManager + sizing</text>
<text text-anchor="middle" x="897" y="-121" font-family="Helvetica,sans-Serif" font-size="10.00">risk/ &#160;(ATR · vol&#45;target · risk&#45;parity,</text>
<text text-anchor="middle" x="897" y="-110" font-family="Helvetica,sans-Serif" font-size="10.00">kill&#45;switch, square&#45;off, max positions)</text>
</g>
<!-- engine&#45;&gt;risk -->
<g id="edge15" class="edge">
<title>engine&#45;&gt;risk</title>
<path fill="none" stroke="#6b7686" d="M1520.63,-575.5C1412.97,-575.1 1179.32,-567.22 992,-511.88 946.63,-498.47 897,-511.18 897,-463.88 897,-463.88 897,-463.88 897,-230.5 897,-204.68 897,-175.33 897,-154.06"/>
<polygon fill="#6b7686" stroke="#6b7686" points="900.5,-154.04 897,-144.04 893.5,-154.04 900.5,-154.04"/>
<text text-anchor="middle" x="922.5" y="-344.99" font-family="Helvetica,sans-Serif" font-size="9.00">gate + size</text>
</g>
<!-- gateway -->
<g id="node16" class="node">
<title>gateway</title>
<path fill="#eef2f7" stroke="#9aa7b8" d="M1384.5,-480.88C1384.5,-480.88 1267.5,-480.88 1267.5,-480.88 1261.5,-480.88 1255.5,-474.88 1255.5,-468.88 1255.5,-468.88 1255.5,-456.88 1255.5,-456.88 1255.5,-450.88 1261.5,-444.88 1267.5,-444.88 1267.5,-444.88 1384.5,-444.88 1384.5,-444.88 1390.5,-444.88 1396.5,-450.88 1396.5,-456.88 1396.5,-456.88 1396.5,-468.88 1396.5,-468.88 1396.5,-474.88 1390.5,-480.88 1384.5,-480.88"/>
<text text-anchor="middle" x="1326" y="-460.38" font-family="Helvetica,sans-Serif" font-size="10.00">OrderGateway (interface)</text>
</g>
<!-- engine&#45;&gt;gateway -->
<g id="edge16" class="edge">
<title>engine&#45;&gt;gateway</title>
<path fill="none" stroke="#6b7686" d="M1540.87,-557.77C1496.12,-538.22 1422.83,-506.19 1374.49,-485.07"/>
<polygon fill="#6b7686" stroke="#6b7686" points="1375.74,-481.79 1365.18,-480.99 1372.94,-488.21 1375.74,-481.79"/>
</g>
<!-- portfolio -->
<g id="node20" class="node">
<title>portfolio</title>
<path fill="#eef2f7" stroke="#9aa7b8" d="M1227.5,-249.5C1227.5,-249.5 1096.5,-249.5 1096.5,-249.5 1090.5,-249.5 1084.5,-243.5 1084.5,-237.5 1084.5,-237.5 1084.5,-225.5 1084.5,-225.5 1084.5,-219.5 1090.5,-213.5 1096.5,-213.5 1096.5,-213.5 1227.5,-213.5 1227.5,-213.5 1233.5,-213.5 1239.5,-219.5 1239.5,-225.5 1239.5,-225.5 1239.5,-237.5 1239.5,-237.5 1239.5,-243.5 1233.5,-249.5 1227.5,-249.5"/>
<text text-anchor="middle" x="1162" y="-234.5" font-family="Helvetica,sans-Serif" font-size="10.00">Portfolio</text>
<text text-anchor="middle" x="1162" y="-223.5" font-family="Helvetica,sans-Serif" font-size="10.00">positions + net realised P&amp;L</text>
</g>
<!-- engine&#45;&gt;portfolio -->
<g id="edge21" class="edge">
<title>engine&#45;&gt;portfolio</title>
<path fill="none" stroke="#6b7686" d="M1520.79,-567.41C1384.18,-548.78 1054.14,-495.25 995,-406.38 971.52,-371.09 972.28,-346.79 995,-311 1012.97,-282.69 1044.17,-264.41 1074.77,-252.68"/>
<polygon fill="#6b7686" stroke="#6b7686" points="1076.02,-255.95 1084.23,-249.25 1073.64,-249.37 1076.02,-255.95"/>
</g>
<!-- repos -->
<g id="node28" class="node">
<title>repos</title>
<path fill="#eef2f7" stroke="#9aa7b8" d="M755.5,-480.88C755.5,-480.88 648.5,-480.88 648.5,-480.88 642.5,-480.88 636.5,-474.88 636.5,-468.88 636.5,-468.88 636.5,-456.88 636.5,-456.88 636.5,-450.88 642.5,-444.88 648.5,-444.88 648.5,-444.88 755.5,-444.88 755.5,-444.88 761.5,-444.88 767.5,-450.88 767.5,-456.88 767.5,-456.88 767.5,-468.88 767.5,-468.88 767.5,-474.88 761.5,-480.88 755.5,-480.88"/>
<text text-anchor="middle" x="702" y="-465.88" font-family="Helvetica,sans-Serif" font-size="10.00">Repositories</text>
<text text-anchor="middle" x="702" y="-454.88" font-family="Helvetica,sans-Serif" font-size="10.00">instruments · ohlc · fills</text>
</g>
<!-- engine&#45;&gt;repos -->
<g id="edge24" class="edge">
<title>engine&#45;&gt;repos</title>
<path fill="none" stroke="#6b7686" stroke-dasharray="1,5" d="M1520.95,-574.93C1345.99,-574.73 838.26,-571.41 771,-539.88 764.74,-536.94 740.72,-509.64 722.77,-488.59"/>
<polygon fill="#6b7686" stroke="#6b7686" points="725.37,-486.25 716.23,-480.89 720.03,-490.78 725.37,-486.25"/>
<text text-anchor="middle" x="795.5" y="-527.67" font-family="Helvetica,sans-Serif" font-size="9.00">persist fills</text>
</g>
<!-- mllayer -->
<g id="node13" class="node">
<title>mllayer</title>
<path fill="#ede7fc" stroke="#9aa7b8" d="M749.5,-57C749.5,-57 570.5,-57 570.5,-57 564.5,-57 558.5,-51 558.5,-45 558.5,-45 558.5,-28 558.5,-28 558.5,-22 564.5,-16 570.5,-16 570.5,-16 749.5,-16 749.5,-16 755.5,-16 761.5,-22 761.5,-28 761.5,-28 761.5,-45 761.5,-45 761.5,-51 755.5,-57 749.5,-57"/>
<text text-anchor="middle" x="660" y="-45" font-family="Helvetica,sans-Serif" font-size="10.00">ML signal layer</text>
<text text-anchor="middle" x="660" y="-34" font-family="Helvetica,sans-Serif" font-size="10.00">FeatureExtractor → LogisticRegression</text>
<text text-anchor="middle" x="660" y="-23" font-family="Helvetica,sans-Serif" font-size="10.00">→ MLStrategy (Scorer)</text>
</g>
<!-- strategies&#45;&gt;mllayer -->
<g id="edge14" class="edge">
<title>strategies&#45;&gt;mllayer</title>
<path fill="none" stroke="#6b7686" stroke-dasharray="1,5" d="M664.61,-102.79C663.87,-92.27 662.94,-79.12 662.11,-67.38"/>
<polygon fill="#6b7686" stroke="#6b7686" points="665.58,-66.84 661.38,-57.11 658.6,-67.33 665.58,-66.84"/>
<text text-anchor="middle" x="693.5" y="-77.8" font-family="Helvetica,sans-Serif" font-size="9.00">learned score</text>
</g>
<!-- regime -->
<g id="node14" class="node">
<title>regime</title>
<path fill="#eef2f7" stroke="#9aa7b8" d="M864,-54.5C864,-54.5 792,-54.5 792,-54.5 786,-54.5 780,-48.5 780,-42.5 780,-42.5 780,-30.5 780,-30.5 780,-24.5 786,-18.5 792,-18.5 792,-18.5 864,-18.5 864,-18.5 870,-18.5 876,-24.5 876,-30.5 876,-30.5 876,-42.5 876,-42.5 876,-48.5 870,-54.5 864,-54.5"/>
<text text-anchor="middle" x="828" y="-39.5" font-family="Helvetica,sans-Serif" font-size="10.00">RegimeDetector</text>
<text text-anchor="middle" x="828" y="-28.5" font-family="Helvetica,sans-Serif" font-size="10.00">(Wilder ADX)</text>
</g>
<!-- strategies&#45;&gt;regime -->
<g id="edge13" class="edge">
<title>strategies&#45;&gt;regime</title>
<path fill="none" stroke="#6b7686" stroke-dasharray="1,5" d="M703.17,-103C727.96,-89.99 760.59,-72.87 786.27,-59.39"/>
<polygon fill="#6b7686" stroke="#6b7686" points="788.17,-62.35 795.4,-54.61 784.91,-56.15 788.17,-62.35"/>
<text text-anchor="middle" x="778.5" y="-77.8" font-family="Helvetica,sans-Serif" font-size="9.00">regime gate</text>
</g>
<!-- paper -->
<g id="node17" class="node">
<title>paper</title>
<path fill="#d9f2e3" stroke="#9aa7b8" d="M1292.5,-365.19C1292.5,-365.19 1191.5,-365.19 1191.5,-365.19 1185.5,-365.19 1179.5,-359.19 1179.5,-353.19 1179.5,-353.19 1179.5,-341.19 1179.5,-341.19 1179.5,-335.19 1185.5,-329.19 1191.5,-329.19 1191.5,-329.19 1292.5,-329.19 1292.5,-329.19 1298.5,-329.19 1304.5,-335.19 1304.5,-341.19 1304.5,-341.19 1304.5,-353.19 1304.5,-353.19 1304.5,-359.19 1298.5,-365.19 1292.5,-365.19"/>
<text text-anchor="middle" x="1242" y="-350.19" font-family="Helvetica,sans-Serif" font-size="10.00">PaperGateway</text>
<text text-anchor="middle" x="1242" y="-339.19" font-family="Helvetica,sans-Serif" font-size="10.00">simulated fills + costs</text>
</g>
<!-- gateway&#45;&gt;paper -->
<g id="edge17" class="edge">
<title>gateway&#45;&gt;paper</title>
<path fill="none" stroke="#6b7686" d="M1313.24,-444.61C1299.22,-425.63 1276.57,-394.98 1260.58,-373.34"/>
<polygon fill="#6b7686" stroke="#6b7686" points="1263.36,-371.21 1254.6,-365.24 1257.73,-375.37 1263.36,-371.21"/>
<text text-anchor="middle" x="1326.5" y="-417.18" font-family="Helvetica,sans-Serif" font-size="9.00">market mode</text>
</g>
<!-- live -->
<g id="node18" class="node">
<title>live</title>
<path fill="#fde2df" stroke="#b0392f" stroke-dasharray="5,2" d="M1485,-365.19C1485,-365.19 1335,-365.19 1335,-365.19 1329,-365.19 1323,-359.19 1323,-353.19 1323,-353.19 1323,-341.19 1323,-341.19 1323,-335.19 1329,-329.19 1335,-329.19 1335,-329.19 1485,-329.19 1485,-329.19 1491,-329.19 1497,-335.19 1497,-341.19 1497,-341.19 1497,-353.19 1497,-353.19 1497,-359.19 1491,-365.19 1485,-365.19"/>
<text text-anchor="middle" x="1410" y="-350.19" font-family="Helvetica,sans-Serif" font-size="10.00" fill="#b0392f">LiveGateway</text>
<text text-anchor="middle" x="1410" y="-339.19" font-family="Helvetica,sans-Serif" font-size="10.00" fill="#b0392f">NotImplementedError (disabled)</text>
</g>
<!-- gateway&#45;&gt;live -->
<g id="edge18" class="edge">
<title>gateway&#45;&gt;live</title>
<path fill="none" stroke="#b0392f" stroke-dasharray="5,2" d="M1343.42,-444.53C1349.26,-438.37 1355.64,-431.26 1361,-424.38 1373.4,-408.44 1385.68,-389.33 1394.85,-374.24"/>
<polygon fill="#b0392f" stroke="#b0392f" points="1397.99,-375.8 1400.13,-365.42 1391.99,-372.2 1397.99,-375.8"/>
<text text-anchor="middle" x="1401" y="-417.18" font-family="Helvetica,sans-Serif" font-size="9.00">live mode (off)</text>
</g>
<!-- ordermgr -->
<g id="node19" class="node">
<title>ordermgr</title>
<path fill="#eef2f7" stroke="#9aa7b8" d="M1150,-365.19C1150,-365.19 1016,-365.19 1016,-365.19 1010,-365.19 1004,-359.19 1004,-353.19 1004,-353.19 1004,-341.19 1004,-341.19 1004,-335.19 1010,-329.19 1016,-329.19 1016,-329.19 1150,-329.19 1150,-329.19 1156,-329.19 1162,-335.19 1162,-341.19 1162,-341.19 1162,-353.19 1162,-353.19 1162,-359.19 1156,-365.19 1150,-365.19"/>
<text text-anchor="middle" x="1083" y="-350.19" font-family="Helvetica,sans-Serif" font-size="10.00">OrderManager + reconcile</text>
<text text-anchor="middle" x="1083" y="-339.19" font-family="Helvetica,sans-Serif" font-size="10.00">lifecycle · partial fills · dedup</text>
</g>
<!-- gateway&#45;&gt;ordermgr -->
<g id="edge19" class="edge">
<title>gateway&#45;&gt;ordermgr</title>
<path fill="none" stroke="#6b7686" stroke-dasharray="1,5" d="M1258.07,-444.84C1239.24,-439.22 1219.03,-432.34 1201,-424.38 1186.78,-418.09 1184.15,-414.67 1171,-406.38 1152.96,-395 1133.12,-381.94 1116.86,-371.07"/>
<polygon fill="#6b7686" stroke="#6b7686" points="1118.48,-367.95 1108.22,-365.29 1114.58,-373.76 1118.48,-367.95"/>
<text text-anchor="middle" x="1244" y="-417.18" font-family="Helvetica,sans-Serif" font-size="9.00">lifecycle / reconcile</text>
</g>
<!-- paper&#45;&gt;portfolio -->
<g id="edge20" class="edge">
<title>paper&#45;&gt;portfolio</title>
<path fill="none" stroke="#6b7686" d="M1229.85,-328.92C1216.56,-310.03 1195.12,-279.57 1179.9,-257.94"/>
<polygon fill="#6b7686" stroke="#6b7686" points="1182.62,-255.72 1174,-249.56 1176.9,-259.75 1182.62,-255.72"/>
<text text-anchor="middle" x="1248.5" y="-293.8" font-family="Helvetica,sans-Serif" font-size="9.00">fills (net of costs)</text>
</g>
<!-- simulator -->
<g id="node21" class="node">
<title>simulator</title>
<path fill="#cdeeee" stroke="#9aa7b8" d="M379,-249.5C379,-249.5 275,-249.5 275,-249.5 269,-249.5 263,-243.5 263,-237.5 263,-237.5 263,-225.5 263,-225.5 263,-219.5 269,-213.5 275,-213.5 275,-213.5 379,-213.5 379,-213.5 385,-213.5 391,-219.5 391,-225.5 391,-225.5 391,-237.5 391,-237.5 391,-243.5 385,-249.5 379,-249.5"/>
<text text-anchor="middle" x="327" y="-229" font-family="Helvetica,sans-Serif" font-size="10.00">Event&#45;driven simulator</text>
</g>
<!-- simulator&#45;&gt;strategies -->
<g id="edge27" class="edge">
<title>simulator&#45;&gt;strategies</title>
<path fill="none" stroke="#6b7686" d="M381.47,-213.47C439.15,-195.43 530.48,-166.88 594.05,-147"/>
<polygon fill="#6b7686" stroke="#6b7686" points="595.11,-150.33 603.61,-144.01 593.02,-143.65 595.11,-150.33"/>
<text text-anchor="middle" x="492.5" y="-185.8" font-family="Helvetica,sans-Serif" font-size="9.00">on_bar</text>
</g>
<!-- execmodel -->
<g id="node22" class="node">
<title>execmodel</title>
<path fill="#eef2f7" stroke="#9aa7b8" d="M414,-141.5C414,-141.5 240,-141.5 240,-141.5 234,-141.5 228,-135.5 228,-129.5 228,-129.5 228,-117.5 228,-117.5 228,-111.5 234,-105.5 240,-105.5 240,-105.5 414,-105.5 414,-105.5 420,-105.5 426,-111.5 426,-117.5 426,-117.5 426,-129.5 426,-129.5 426,-135.5 420,-141.5 414,-141.5"/>
<text text-anchor="middle" x="327" y="-126.5" font-family="Helvetica,sans-Serif" font-size="10.00">ExecutionModel (optional)</text>
<text text-anchor="middle" x="327" y="-115.5" font-family="Helvetica,sans-Serif" font-size="10.00">next&#45;open · tick · circuit · volume cap</text>
</g>
<!-- simulator&#45;&gt;execmodel -->
<g id="edge28" class="edge">
<title>simulator&#45;&gt;execmodel</title>
<path fill="none" stroke="#6b7686" stroke-dasharray="1,5" d="M327,-213.47C327,-196.88 327,-171.38 327,-151.93"/>
<polygon fill="#6b7686" stroke="#6b7686" points="330.5,-151.84 327,-141.84 323.5,-151.84 330.5,-151.84"/>
<text text-anchor="middle" x="354.5" y="-185.8" font-family="Helvetica,sans-Serif" font-size="9.00">optional fills</text>
</g>
<!-- costs -->
<g id="node23" class="node">
<title>costs</title>
<path fill="#eef2f7" stroke="#9aa7b8" d="M198,-141.5C198,-141.5 28,-141.5 28,-141.5 22,-141.5 16,-135.5 16,-129.5 16,-129.5 16,-117.5 16,-117.5 16,-111.5 22,-105.5 28,-105.5 28,-105.5 198,-105.5 198,-105.5 204,-105.5 210,-111.5 210,-117.5 210,-117.5 210,-129.5 210,-129.5 210,-135.5 204,-141.5 198,-141.5"/>
<text text-anchor="middle" x="113" y="-126.5" font-family="Helvetica,sans-Serif" font-size="10.00">Cost model</text>
<text text-anchor="middle" x="113" y="-115.5" font-family="Helvetica,sans-Serif" font-size="10.00">brokerage·STT·exch·SEBI·GST·stamp</text>
</g>
<!-- simulator&#45;&gt;costs -->
<g id="edge29" class="edge">
<title>simulator&#45;&gt;costs</title>
<path fill="none" stroke="#6b7686" d="M292.62,-213.47C255.68,-195.17 196.88,-166.05 156.69,-146.14"/>
<polygon fill="#6b7686" stroke="#6b7686" points="158.17,-142.97 147.65,-141.66 155.06,-149.24 158.17,-142.97"/>
</g>
<!-- metrics -->
<g id="node24" class="node">
<title>metrics</title>
<path fill="#eef2f7" stroke="#9aa7b8" d="M196.5,-54.5C196.5,-54.5 29.5,-54.5 29.5,-54.5 23.5,-54.5 17.5,-48.5 17.5,-42.5 17.5,-42.5 17.5,-30.5 17.5,-30.5 17.5,-24.5 23.5,-18.5 29.5,-18.5 29.5,-18.5 196.5,-18.5 196.5,-18.5 202.5,-18.5 208.5,-24.5 208.5,-30.5 208.5,-30.5 208.5,-42.5 208.5,-42.5 208.5,-48.5 202.5,-54.5 196.5,-54.5"/>
<text text-anchor="middle" x="113" y="-39.5" font-family="Helvetica,sans-Serif" font-size="10.00">Metrics</text>
<text text-anchor="middle" x="113" y="-28.5" font-family="Helvetica,sans-Serif" font-size="10.00">net P&amp;L·Sharpe·Sortino·DD·turnover</text>
</g>
<!-- costs&#45;&gt;metrics -->
<g id="edge30" class="edge">
<title>costs&#45;&gt;metrics</title>
<path fill="none" stroke="#6b7686" d="M113,-105.3C113,-93.66 113,-78.05 113,-64.74"/>
<polygon fill="#6b7686" stroke="#6b7686" points="116.5,-64.68 113,-54.68 109.5,-64.68 116.5,-64.68"/>
</g>
<!-- rotation -->
<g id="node25" class="node">
<title>rotation</title>
<path fill="#eef2f7" stroke="#9aa7b8" d="M157.5,-249.5C157.5,-249.5 68.5,-249.5 68.5,-249.5 62.5,-249.5 56.5,-243.5 56.5,-237.5 56.5,-237.5 56.5,-225.5 56.5,-225.5 56.5,-219.5 62.5,-213.5 68.5,-213.5 68.5,-213.5 157.5,-213.5 157.5,-213.5 163.5,-213.5 169.5,-219.5 169.5,-225.5 169.5,-225.5 169.5,-237.5 169.5,-237.5 169.5,-243.5 163.5,-249.5 157.5,-249.5"/>
<text text-anchor="middle" x="113" y="-234.5" font-family="Helvetica,sans-Serif" font-size="10.00">Rotation backtester</text>
<text text-anchor="middle" x="113" y="-223.5" font-family="Helvetica,sans-Serif" font-size="10.00">(cross&#45;sectional)</text>
</g>
<!-- rotation&#45;&gt;costs -->
<g id="edge32" class="edge">
<title>rotation&#45;&gt;costs</title>
<path fill="none" stroke="#6b7686" stroke-dasharray="1,5" d="M113,-213.47C113,-196.88 113,-171.38 113,-151.93"/>
<polygon fill="#6b7686" stroke="#6b7686" points="116.5,-151.84 113,-141.84 109.5,-151.84 116.5,-151.84"/>
</g>
<!-- optimize -->
<g id="node26" class="node">
<title>optimize</title>
<path fill="#eef2f7" stroke="#9aa7b8" d="M380.5,-365.19C380.5,-365.19 273.5,-365.19 273.5,-365.19 267.5,-365.19 261.5,-359.19 261.5,-353.19 261.5,-353.19 261.5,-341.19 261.5,-341.19 261.5,-335.19 267.5,-329.19 273.5,-329.19 273.5,-329.19 380.5,-329.19 380.5,-329.19 386.5,-329.19 392.5,-335.19 392.5,-341.19 392.5,-341.19 392.5,-353.19 392.5,-353.19 392.5,-359.19 386.5,-365.19 380.5,-365.19"/>
<text text-anchor="middle" x="327" y="-344.69" font-family="Helvetica,sans-Serif" font-size="10.00">Walk&#45;forward optimizer</text>
</g>
<!-- optimize&#45;&gt;simulator -->
<g id="edge31" class="edge">
<title>optimize&#45;&gt;simulator</title>
<path fill="none" stroke="#6b7686" d="M327,-328.92C327,-310.53 327,-281.18 327,-259.69"/>
<polygon fill="#6b7686" stroke="#6b7686" points="330.5,-259.56 327,-249.56 323.5,-259.56 330.5,-259.56"/>
<text text-anchor="middle" x="369.5" y="-293.8" font-family="Helvetica,sans-Serif" font-size="9.00">grid / walk&#45;forward</text>
</g>
<!-- broker -->
<g id="node27" class="node">
<title>broker</title>
<path fill="#eef2f7" stroke="#9aa7b8" d="M606.5,-483.38C606.5,-483.38 465.5,-483.38 465.5,-483.38 459.5,-483.38 453.5,-477.38 453.5,-471.38 453.5,-471.38 453.5,-454.38 453.5,-454.38 453.5,-448.38 459.5,-442.38 465.5,-442.38 465.5,-442.38 606.5,-442.38 606.5,-442.38 612.5,-442.38 618.5,-448.38 618.5,-454.38 618.5,-454.38 618.5,-471.38 618.5,-471.38 618.5,-477.38 612.5,-483.38 606.5,-483.38"/>
<text text-anchor="middle" x="536" y="-471.38" font-family="Helvetica,sans-Serif" font-size="10.00">KiteClient</text>
<text text-anchor="middle" x="536" y="-460.38" font-family="Helvetica,sans-Serif" font-size="10.00">broker/ &#160;(token&#45;bucket throttle,</text>
<text text-anchor="middle" x="536" y="-449.38" font-family="Helvetica,sans-Serif" font-size="10.00">TokenStore, auth)</text>
</g>
<!-- broker&#45;&gt;kite_rest -->
<g id="edge5" class="edge">
<title>broker&#45;&gt;kite_rest</title>
<path fill="none" stroke="#6b7686" d="M453.42,-480.1C371.15,-498.7 257,-532.19 257,-574.88 257,-761.88 257,-761.88 257,-761.88 257,-854.12 573.52,-864.01 715.03,-863.82"/>
<polygon fill="#6b7686" stroke="#6b7686" points="715.33,-867.32 725.32,-863.79 715.31,-860.32 715.33,-867.32"/>
<text text-anchor="middle" x="294" y="-676.67" font-family="Helvetica,sans-Serif" font-size="9.00">REST (throttled)</text>
</g>
<!-- redis -->
<g id="node31" class="node">
<title>redis</title>
<path fill="#dfe4ea" stroke="#9aa7b8" d="M540,-364.17C540,-366.25 519.83,-367.94 495,-367.94 470.17,-367.94 450,-366.25 450,-364.17 450,-364.17 450,-330.21 450,-330.21 450,-328.13 470.17,-326.44 495,-326.44 519.83,-326.44 540,-328.13 540,-330.21 540,-330.21 540,-364.17 540,-364.17"/>
<path fill="none" stroke="#9aa7b8" d="M540,-364.17C540,-362.08 519.83,-360.39 495,-360.39 470.17,-360.39 450,-362.08 450,-364.17"/>
<text text-anchor="middle" x="495" y="-350.19" font-family="Helvetica,sans-Serif" font-size="10.00">Redis</text>
<text text-anchor="middle" x="495" y="-339.19" font-family="Helvetica,sans-Serif" font-size="10.00">cache / throttle</text>
</g>
<!-- broker&#45;&gt;redis -->
<g id="edge8" class="edge">
<title>broker&#45;&gt;redis</title>
<path fill="none" stroke="#6b7686" stroke-dasharray="1,5" d="M528.95,-442.33C522.5,-424.44 512.86,-397.71 505.5,-377.3"/>
<polygon fill="#6b7686" stroke="#6b7686" points="508.78,-376.08 502.09,-367.86 502.19,-378.45 508.78,-376.08"/>
<text text-anchor="middle" x="558.5" y="-417.18" font-family="Helvetica,sans-Serif" font-size="9.00">throttle buckets</text>
</g>
<!-- tsdb -->
<g id="node30" class="node">
<title>tsdb</title>
<path fill="#dfe4ea" stroke="#9aa7b8" d="M752,-370.4C752,-373.25 708.52,-375.56 655,-375.56 601.48,-375.56 558,-373.25 558,-370.4 558,-370.4 558,-323.97 558,-323.97 558,-321.12 601.48,-318.81 655,-318.81 708.52,-318.81 752,-321.12 752,-323.97 752,-323.97 752,-370.4 752,-370.4"/>
<path fill="none" stroke="#9aa7b8" d="M752,-370.4C752,-367.56 708.52,-365.25 655,-365.25 601.48,-365.25 558,-367.56 558,-370.4"/>
<text text-anchor="middle" x="655" y="-355.69" font-family="Helvetica,sans-Serif" font-size="10.00">TimescaleDB</text>
<text text-anchor="middle" x="655" y="-344.69" font-family="Helvetica,sans-Serif" font-size="10.00">instruments · ohlc_bars (hypertable)</text>
<text text-anchor="middle" x="655" y="-333.69" font-family="Helvetica,sans-Serif" font-size="10.00">5/15/60&#45;min aggregates · fills</text>
</g>
<!-- repos&#45;&gt;tsdb -->
<g id="edge7" class="edge">
<title>repos&#45;&gt;tsdb</title>
<path fill="none" stroke="#6b7686" d="M688.27,-444.69C683.87,-438.55 679.29,-431.41 676,-424.38 670.27,-412.12 665.83,-398 662.55,-385.27"/>
<polygon fill="#6b7686" stroke="#6b7686" points="665.92,-384.31 660.16,-375.42 659.12,-385.96 665.92,-384.31"/>
<text text-anchor="middle" x="731" y="-417.18" font-family="Helvetica,sans-Serif" font-size="9.00">upsert bars/instruments</text>
</g>
<!-- dataops -->
<g id="node29" class="node">
<title>dataops</title>
<path fill="#eef2f7" stroke="#9aa7b8" d="M690,-593.88C690,-593.88 584,-593.88 584,-593.88 578,-593.88 572,-587.88 572,-581.88 572,-581.88 572,-569.88 572,-569.88 572,-563.88 578,-557.88 584,-557.88 584,-557.88 690,-557.88 690,-557.88 696,-557.88 702,-563.88 702,-569.88 702,-569.88 702,-581.88 702,-581.88 702,-587.88 696,-593.88 690,-593.88"/>
<text text-anchor="middle" x="637" y="-578.88" font-family="Helvetica,sans-Serif" font-size="10.00">backfill · calendar ·</text>
<text text-anchor="middle" x="637" y="-567.88" font-family="Helvetica,sans-Serif" font-size="10.00">corporate&#45;action adjust</text>
</g>
<!-- dataops&#45;&gt;broker -->
<g id="edge4" class="edge">
<title>dataops&#45;&gt;broker</title>
<path fill="none" stroke="#6b7686" d="M578.24,-557.84C569.51,-553.18 561.33,-547.29 555,-539.88 544.1,-527.1 539.3,-508.96 537.24,-493.61"/>
<polygon fill="#6b7686" stroke="#6b7686" points="540.71,-493.12 536.22,-483.53 533.75,-493.83 540.71,-493.12"/>
<text text-anchor="middle" x="592" y="-527.67" font-family="Helvetica,sans-Serif" font-size="9.00">REST (throttled)</text>
</g>
<!-- dataops&#45;&gt;repos -->
<g id="edge6" class="edge">
<title>dataops&#45;&gt;repos</title>
<path fill="none" stroke="#6b7686" d="M633.84,-557.71C632.59,-546.44 632.53,-531.65 638,-519.88 643.95,-507.07 654.39,-496.02 665.12,-487.2"/>
<polygon fill="#6b7686" stroke="#6b7686" points="667.53,-489.76 673.33,-480.89 663.26,-484.21 667.53,-489.76"/>
<text text-anchor="middle" x="693" y="-527.67" font-family="Helvetica,sans-Serif" font-size="9.00">upsert bars/instruments</text>
</g>
<!-- tsdb&#45;&gt;simulator -->
<g id="edge26" class="edge">
<title>tsdb&#45;&gt;simulator</title>
<path fill="none" stroke="#6b7686" d="M579.34,-319.96C520.44,-299.55 439.88,-271.62 385.77,-252.87"/>
<polygon fill="#6b7686" stroke="#6b7686" points="386.91,-249.56 376.32,-249.59 384.62,-256.18 386.91,-249.56"/>
<text text-anchor="middle" x="531" y="-293.8" font-family="Helvetica,sans-Serif" font-size="9.00">bars</text>
</g>
<!-- config -->
<g id="node32" class="node">
<title>config</title>
<path fill="#fff7e6" stroke="#b7791f" d="M425,-593.88C425,-593.88 297,-593.88 297,-593.88 291,-593.88 285,-587.88 285,-581.88 285,-581.88 285,-569.88 285,-569.88 285,-563.88 291,-557.88 297,-557.88 297,-557.88 425,-557.88 425,-557.88 431,-557.88 437,-563.88 437,-569.88 437,-569.88 437,-581.88 437,-581.88 437,-587.88 431,-593.88 425,-593.88"/>
<text text-anchor="middle" x="361" y="-578.88" font-family="Helvetica,sans-Serif" font-size="10.00">Settings (pydantic&#45;settings)</text>
<text text-anchor="middle" x="361" y="-567.88" font-family="Helvetica,sans-Serif" font-size="10.00">config/ &#160;← .env (gitignored)</text>
</g>
<!-- config&#45;&gt;broker -->
<g id="edge1" class="edge">
<title>config&#45;&gt;broker</title>
<path fill="none" stroke="#6b7686" d="M354.77,-557.63C351.7,-545.89 350.14,-530.59 358,-519.88 377.89,-492.77 410.9,-478.44 443.12,-470.98"/>
<polygon fill="#6b7686" stroke="#6b7686" points="444.02,-474.37 453.08,-468.88 442.58,-467.52 444.02,-474.37"/>
<text text-anchor="middle" x="391.5" y="-532.67" font-family="Helvetica,sans-Serif" font-size="9.00">api key/secret,</text>
<text text-anchor="middle" x="391.5" y="-522.67" font-family="Helvetica,sans-Serif" font-size="9.00">access token</text>
</g>
<!-- config&#45;&gt;repos -->
<g id="edge2" class="edge">
<title>config&#45;&gt;repos</title>
<path fill="none" stroke="#6b7686" stroke-dasharray="1,5" d="M391.64,-557.77C418.29,-543.24 455.05,-524.07 471,-519.88 538.14,-502.2 560.89,-533.07 627,-511.88 643.66,-506.53 660.26,-496.53 673.58,-487.03"/>
<polygon fill="#6b7686" stroke="#6b7686" points="675.88,-489.68 681.83,-480.92 671.72,-484.06 675.88,-489.68"/>
<text text-anchor="middle" x="506" y="-527.67" font-family="Helvetica,sans-Serif" font-size="9.00">DATABASE_URL</text>
</g>
<!-- cli -->
<g id="node33" class="node">
<title>cli</title>
<polygon fill="#fffef2" stroke="#b7791f" points="1212.5,-696.88 933.5,-696.88 933.5,-660.88 1218.5,-660.88 1218.5,-690.88 1212.5,-696.88"/>
<polyline fill="none" stroke="#b7791f" points="1212.5,-696.88 1212.5,-690.88 "/>
<polyline fill="none" stroke="#b7791f" points="1218.5,-690.88 1212.5,-690.88 "/>
<text text-anchor="middle" x="1076" y="-681.88" font-family="Helvetica,sans-Serif" font-size="10.00">CLIs (scripts/): refresh_token · backfill ·</text>
<text text-anchor="middle" x="1076" y="-670.88" font-family="Helvetica,sans-Serif" font-size="10.00">backtest · rotation · optimize · paper_trade · dashboard</text>
</g>
<!-- cli&#45;&gt;fastapi -->
<g id="edge38" class="edge">
<title>cli&#45;&gt;fastapi</title>
<path fill="none" stroke="#6b7686" stroke-dasharray="5,2" d="M1218.8,-672.57C1412.31,-665.09 1736.76,-651.41 1762,-642.88 1859.51,-609.9 1905.03,-602.95 1953,-511.88 1969.05,-481.4 1966.7,-465.98 1953,-434.38 1941.68,-408.25 1918.11,-386.43 1897.66,-371.27"/>
<polygon fill="#6b7686" stroke="#6b7686" points="1899.6,-368.36 1889.43,-365.39 1895.53,-374.05 1899.6,-368.36"/>
<text text-anchor="middle" x="1972.5" y="-527.67" font-family="Helvetica,sans-Serif" font-size="9.00">dashboard</text>
</g>
<!-- cli&#45;&gt;engine -->
<g id="edge25" class="edge">
<title>cli&#45;&gt;engine</title>
<path fill="none" stroke="#6b7686" stroke-dasharray="5,2" d="M1160.93,-660.86C1259.35,-641.13 1419.67,-609 1510.84,-590.73"/>
<polygon fill="#6b7686" stroke="#6b7686" points="1511.67,-594.14 1520.79,-588.74 1510.3,-587.27 1511.67,-594.14"/>
<text text-anchor="middle" x="1324.5" y="-635.67" font-family="Helvetica,sans-Serif" font-size="9.00">paper_trade</text>
</g>
<!-- cli&#45;&gt;simulator -->
<g id="edge33" class="edge">
<title>cli&#45;&gt;simulator</title>
<path fill="none" stroke="#6b7686" stroke-dasharray="5,2" d="M933.23,-673.24C719.54,-665.58 335.15,-648.71 276,-624.88 245.28,-612.5 219,-609.99 219,-576.88 219,-576.88 219,-576.88 219,-346.19 219,-306.17 254.61,-274.63 284.93,-255.02"/>
<polygon fill="#6b7686" stroke="#6b7686" points="287.07,-257.81 293.72,-249.56 283.37,-251.87 287.07,-257.81"/>
<text text-anchor="middle" x="239" y="-460.68" font-family="Helvetica,sans-Serif" font-size="9.00">backtest</text>
</g>
<!-- cli&#45;&gt;dataops -->
<g id="edge3" class="edge">
<title>cli&#45;&gt;dataops</title>
<path fill="none" stroke="#6b7686" stroke-dasharray="5,2" d="M1002.03,-660.86C921.53,-642.34 793.52,-612.88 712.45,-594.23"/>
<polygon fill="#6b7686" stroke="#6b7686" points="712.84,-590.73 702.31,-591.9 711.27,-597.55 712.84,-590.73"/>
<text text-anchor="middle" x="929" y="-635.67" font-family="Helvetica,sans-Serif" font-size="9.00">run</text>
</g>
</g>
</svg>
