<?xml version="1.0" encoding="UTF-8" standalone="no"?>
<!DOCTYPE svg PUBLIC "-//W3C//DTD SVG 1.1//EN"
 "http://www.w3.org/Graphics/SVG/1.1/DTD/svg11.dtd">
<!-- Generated by graphviz version 2.43.0 (0)
 -->
<!-- Title: equity_algo_engine Pages: 1 -->
<svg width="1680pt" height="938pt"
 viewBox="0.00 0.00 1680.00 937.88" xmlns="http://www.w3.org/2000/svg" xmlns:xlink="http://www.w3.org/1999/xlink">
<g id="graph0" class="graph" transform="scale(1 1) rotate(0) translate(4 933.88)">
<title>equity_algo_engine</title>
<polygon fill="white" stroke="transparent" points="-4,4 -4,-933.88 1676,-933.88 1676,4 -4,4"/>
<text text-anchor="middle" x="836" y="-914.67" font-family="Helvetica,sans-Serif" font-size="14.00">equity&#45;algo&#45;engine — system architecture (local&#45;first, paper&#45;only)</text>
<g id="clust1" class="cluster">
<title>cluster_ext</title>
<path fill="none" stroke="#b0392f" stroke-dasharray="5,2" d="M508,-823.88C508,-823.88 864,-823.88 864,-823.88 870,-823.88 876,-829.88 876,-835.88 876,-835.88 876,-886.88 876,-886.88 876,-892.88 870,-898.88 864,-898.88 864,-898.88 508,-898.88 508,-898.88 502,-898.88 496,-892.88 496,-886.88 496,-886.88 496,-835.88 496,-835.88 496,-829.88 502,-823.88 508,-823.88"/>
<text text-anchor="middle" x="686" y="-883.67" font-family="Helvetica,sans-Serif" font-size="14.00" fill="#b0392f">External (Zerodha Kite Connect — paid market data)</text>
</g>
<g id="clust2" class="cluster">
<title>cluster_fe</title>
<path fill="#f3f7fd" stroke="#2b6cb0" d="M1449,-189C1449,-189 1615,-189 1615,-189 1621,-189 1627,-195 1627,-201 1627,-201 1627,-257 1627,-257 1627,-263 1621,-269 1615,-269 1615,-269 1449,-269 1449,-269 1443,-269 1437,-263 1437,-257 1437,-257 1437,-201 1437,-201 1437,-195 1443,-189 1449,-189"/>
<text text-anchor="middle" x="1532" y="-253.8" font-family="Helvetica,sans-Serif" font-size="14.00">Frontend (Node / Next.js)</text>
</g>
<g id="clust3" class="cluster">
<title>cluster_api</title>
<path fill="#f4f8ff" stroke="#2b6cb0" d="M1453,-307.19C1453,-307.19 1615,-307.19 1615,-307.19 1621,-307.19 1627,-313.19 1627,-319.19 1627,-319.19 1627,-485.88 1627,-485.88 1627,-491.88 1621,-497.88 1615,-497.88 1615,-497.88 1453,-497.88 1453,-497.88 1447,-497.88 1441,-491.88 1441,-485.88 1441,-485.88 1441,-319.19 1441,-319.19 1441,-313.19 1447,-307.19 1453,-307.19"/>
<text text-anchor="middle" x="1534" y="-482.68" font-family="Helvetica,sans-Serif" font-size="14.00">Read&#45;only API (FastAPI)</text>
</g>
<g id="clust7" class="cluster">
<title>cluster_research</title>
<path fill="#f0fbfb" stroke="#2c7a7b" d="M20,-8C20,-8 272,-8 272,-8 278,-8 284,-14 284,-20 284,-20 284,-370.19 284,-370.19 284,-376.19 278,-382.19 272,-382.19 272,-382.19 20,-382.19 20,-382.19 14,-382.19 8,-376.19 8,-370.19 8,-370.19 8,-20 8,-20 8,-14 14,-8 20,-8"/>
<text text-anchor="middle" x="146" y="-366.99" font-family="Helvetica,sans-Serif" font-size="14.00">Backtesting &amp; research (backtest/)</text>
</g>
<g id="clust4" class="cluster">
<title>cluster_engine</title>
<path fill="#f1faf4" stroke="#2f855a" d="M1200,-422.88C1200,-422.88 1421,-422.88 1421,-422.88 1427,-422.88 1433,-428.88 1433,-434.88 1433,-434.88 1433,-783.88 1433,-783.88 1433,-789.88 1427,-795.88 1421,-795.88 1421,-795.88 1200,-795.88 1200,-795.88 1194,-795.88 1188,-789.88 1188,-783.88 1188,-783.88 1188,-434.88 1188,-434.88 1188,-428.88 1194,-422.88 1200,-422.88"/>
<text text-anchor="middle" x="1310.5" y="-780.67" font-family="Helvetica,sans-Serif" font-size="14.00">Orchestration (engine.py + live/)</text>
</g>
<g id="clust8" class="cluster">
<title>cluster_data</title>
<path fill="#f5f6f8" stroke="#4a5568" d="M331,-420.38C331,-420.38 638,-420.38 638,-420.38 644,-420.38 650,-426.38 650,-432.38 650,-432.38 650,-598.88 650,-598.88 650,-604.88 644,-610.88 638,-610.88 638,-610.88 331,-610.88 331,-610.88 325,-610.88 319,-604.88 319,-598.88 319,-598.88 319,-432.38 319,-432.38 319,-426.38 325,-420.38 331,-420.38"/>
<text text-anchor="middle" x="484.5" y="-595.67" font-family="Helvetica,sans-Serif" font-size="14.00">Broker &amp; data layer</text>
</g>
<g id="clust5" class="cluster">
<title>cluster_core</title>
<path fill="#f7f5fe" stroke="#6b46c1" d="M469,-81C469,-81 821,-81 821,-81 827,-81 833,-87 833,-93 833,-93 833,-149 833,-149 833,-155 827,-161 821,-161 821,-161 469,-161 469,-161 463,-161 457,-155 457,-149 457,-149 457,-93 457,-93 457,-87 463,-81 469,-81"/>
<text text-anchor="middle" x="645" y="-145.8" font-family="Helvetica,sans-Serif" font-size="14.00">Strategies &amp; Risk</text>
</g>
<g id="clust6" class="cluster">
<title>cluster_exec</title>
<path fill="#fffaf0" stroke="#b7791f" d="M858,-191.5C858,-191.5 1168,-191.5 1168,-191.5 1174,-191.5 1180,-197.5 1180,-203.5 1180,-203.5 1180,-485.88 1180,-485.88 1180,-491.88 1174,-497.88 1168,-497.88 1168,-497.88 858,-497.88 858,-497.88 852,-497.88 846,-491.88 846,-485.88 846,-485.88 846,-203.5 846,-203.5 846,-197.5 852,-191.5 858,-191.5"/>
<text text-anchor="middle" x="1013" y="-482.68" font-family="Helvetica,sans-Serif" font-size="14.00">Execution (execution/)</text>
</g>
<g id="clust9" class="cluster">
<title>cluster_stores</title>
<path fill="#eef0f3" stroke="#4a5568" d="M304,-297C304,-297 598,-297 598,-297 604,-297 610,-303 610,-309 610,-309 610,-380.38 610,-380.38 610,-386.38 604,-392.38 598,-392.38 598,-392.38 304,-392.38 304,-392.38 298,-392.38 292,-386.38 292,-380.38 292,-380.38 292,-309 292,-309 292,-303 298,-297 304,-297"/>
<text text-anchor="middle" x="451" y="-377.18" font-family="Helvetica,sans-Serif" font-size="14.00">State (docker&#45;compose)</text>
</g>
<!-- kite_rest -->
<g id="node1" class="node">
<title>kite_rest</title>
<path fill="#fde2df" stroke="#9aa7b8" d="M605.5,-867.88C605.5,-867.88 516.5,-867.88 516.5,-867.88 510.5,-867.88 504.5,-861.88 504.5,-855.88 504.5,-855.88 504.5,-843.88 504.5,-843.88 504.5,-837.88 510.5,-831.88 516.5,-831.88 516.5,-831.88 605.5,-831.88 605.5,-831.88 611.5,-831.88 617.5,-837.88 617.5,-843.88 617.5,-843.88 617.5,-855.88 617.5,-855.88 617.5,-861.88 611.5,-867.88 605.5,-867.88"/>
<text text-anchor="middle" x="561" y="-852.88" font-family="Helvetica,sans-Serif" font-size="10.00">Kite Connect REST</text>
<text text-anchor="middle" x="561" y="-841.88" font-family="Helvetica,sans-Serif" font-size="10.00">(historical, account)</text>
</g>
<!-- kite_ws -->
<g id="node2" class="node">
<title>kite_ws</title>
<path fill="#fde2df" stroke="#9aa7b8" d="M855.5,-867.88C855.5,-867.88 754.5,-867.88 754.5,-867.88 748.5,-867.88 742.5,-861.88 742.5,-855.88 742.5,-855.88 742.5,-843.88 742.5,-843.88 742.5,-837.88 748.5,-831.88 754.5,-831.88 754.5,-831.88 855.5,-831.88 855.5,-831.88 861.5,-831.88 867.5,-837.88 867.5,-843.88 867.5,-843.88 867.5,-855.88 867.5,-855.88 867.5,-861.88 861.5,-867.88 855.5,-867.88"/>
<text text-anchor="middle" x="805" y="-852.88" font-family="Helvetica,sans-Serif" font-size="10.00">KiteTicker</text>
<text text-anchor="middle" x="805" y="-841.88" font-family="Helvetica,sans-Serif" font-size="10.00">WebSocket (live ticks)</text>
</g>
<!-- feed -->
<g id="node7" class="node">
<title>feed</title>
<path fill="#eef2f7" stroke="#9aa7b8" d="M1294.5,-764.88C1294.5,-764.88 1229.5,-764.88 1229.5,-764.88 1223.5,-764.88 1217.5,-758.88 1217.5,-752.88 1217.5,-752.88 1217.5,-740.88 1217.5,-740.88 1217.5,-734.88 1223.5,-728.88 1229.5,-728.88 1229.5,-728.88 1294.5,-728.88 1294.5,-728.88 1300.5,-728.88 1306.5,-734.88 1306.5,-740.88 1306.5,-740.88 1306.5,-752.88 1306.5,-752.88 1306.5,-758.88 1300.5,-764.88 1294.5,-764.88"/>
<text text-anchor="middle" x="1262" y="-749.88" font-family="Helvetica,sans-Serif" font-size="10.00">KiteTickerFeed</text>
<text text-anchor="middle" x="1262" y="-738.88" font-family="Helvetica,sans-Serif" font-size="10.00">live/feed.py</text>
</g>
<!-- kite_ws&#45;&gt;feed -->
<g id="edge9" class="edge">
<title>kite_ws&#45;&gt;feed</title>
<path fill="none" stroke="#6b7686" d="M867.59,-835.04C957.55,-815.16 1121.98,-778.82 1207.33,-759.96"/>
<polygon fill="#6b7686" stroke="#6b7686" points="1208.33,-763.32 1217.33,-757.75 1206.81,-756.49 1208.33,-763.32"/>
<text text-anchor="middle" x="1017" y="-806.67" font-family="Helvetica,sans-Serif" font-size="9.00">ticks</text>
</g>
<!-- browser -->
<g id="node3" class="node">
<title>browser</title>
<polygon fill="#e8eefc" stroke="#9aa7b8" points="1564,-127.5 1512,-127.5 1508,-123.5 1508,-91.5 1560,-91.5 1564,-95.5 1564,-127.5"/>
<polyline fill="none" stroke="#9aa7b8" points="1560,-123.5 1508,-123.5 "/>
<polyline fill="none" stroke="#9aa7b8" points="1560,-123.5 1560,-91.5 "/>
<polyline fill="none" stroke="#9aa7b8" points="1560,-123.5 1564,-127.5 "/>
<text text-anchor="middle" x="1536" y="-112.5" font-family="Helvetica,sans-Serif" font-size="10.00">Browser</text>
<text text-anchor="middle" x="1536" y="-101.5" font-family="Helvetica,sans-Serif" font-size="10.00">(you)</text>
</g>
<!-- nextjs -->
<g id="node4" class="node">
<title>nextjs</title>
<path fill="#dbe8fb" stroke="#9aa7b8" d="M1606,-238C1606,-238 1466,-238 1466,-238 1460,-238 1454,-232 1454,-226 1454,-226 1454,-209 1454,-209 1454,-203 1460,-197 1466,-197 1466,-197 1606,-197 1606,-197 1612,-197 1618,-203 1618,-209 1618,-209 1618,-226 1618,-226 1618,-232 1612,-238 1606,-238"/>
<text text-anchor="middle" x="1536" y="-226" font-family="Helvetica,sans-Serif" font-size="10.00">Next.js dashboard</text>
<text text-anchor="middle" x="1536" y="-215" font-family="Helvetica,sans-Serif" font-size="10.00">frontend/ &#160;(cards, equity chart,</text>
<text text-anchor="middle" x="1536" y="-204" font-family="Helvetica,sans-Serif" font-size="10.00">tables · SWR polling)</text>
</g>
<!-- nextjs&#45;&gt;browser -->
<g id="edge33" class="edge">
<title>nextjs&#45;&gt;browser</title>
<path fill="none" stroke="#6b7686" d="M1536,-196.56C1536,-179.92 1536,-156.03 1536,-137.64"/>
<polygon fill="#6b7686" stroke="#6b7686" points="1539.5,-137.55 1536,-127.55 1532.5,-137.55 1539.5,-137.55"/>
<text text-anchor="middle" x="1566.5" y="-171.8" font-family="Helvetica,sans-Serif" font-size="9.00">JSON &#160;/ &#160;HTTP</text>
</g>
<!-- fastapi -->
<g id="node5" class="node">
<title>fastapi</title>
<path fill="#eef2f7" stroke="#9aa7b8" d="M1603,-351.19C1603,-351.19 1469,-351.19 1469,-351.19 1463,-351.19 1457,-345.19 1457,-339.19 1457,-339.19 1457,-327.19 1457,-327.19 1457,-321.19 1463,-315.19 1469,-315.19 1469,-315.19 1603,-315.19 1603,-315.19 1609,-315.19 1615,-321.19 1615,-327.19 1615,-327.19 1615,-339.19 1615,-339.19 1615,-345.19 1609,-351.19 1603,-351.19"/>
<text text-anchor="middle" x="1536" y="-336.19" font-family="Helvetica,sans-Serif" font-size="10.00">FastAPI app</text>
<text text-anchor="middle" x="1536" y="-325.19" font-family="Helvetica,sans-Serif" font-size="10.00">api/app.py &#160;(CORS, GET only)</text>
</g>
<!-- fastapi&#45;&gt;nextjs -->
<g id="edge32" class="edge">
<title>fastapi&#45;&gt;nextjs</title>
<path fill="none" stroke="#6b7686" d="M1536,-314.92C1536,-297.28 1536,-269.54 1536,-248.33"/>
<polygon fill="#6b7686" stroke="#6b7686" points="1539.5,-248.23 1536,-238.23 1532.5,-248.23 1539.5,-248.23"/>
<text text-anchor="middle" x="1566.5" y="-279.8" font-family="Helvetica,sans-Serif" font-size="9.00">JSON &#160;/ &#160;HTTP</text>
</g>
<!-- service -->
<g id="node6" class="node">
<title>service</title>
<path fill="#eef2f7" stroke="#9aa7b8" d="M1607,-466.88C1607,-466.88 1461,-466.88 1461,-466.88 1455,-466.88 1449,-460.88 1449,-454.88 1449,-454.88 1449,-442.88 1449,-442.88 1449,-436.88 1455,-430.88 1461,-430.88 1461,-430.88 1607,-430.88 1607,-430.88 1613,-430.88 1619,-436.88 1619,-442.88 1619,-442.88 1619,-454.88 1619,-454.88 1619,-460.88 1613,-466.88 1607,-466.88"/>
<text text-anchor="middle" x="1534" y="-451.88" font-family="Helvetica,sans-Serif" font-size="10.00">DashboardState + read&#45;models</text>
<text text-anchor="middle" x="1534" y="-440.88" font-family="Helvetica,sans-Serif" font-size="10.00">api/service.py</text>
</g>
<!-- service&#45;&gt;fastapi -->
<g id="edge31" class="edge">
<title>service&#45;&gt;fastapi</title>
<path fill="none" stroke="#6b7686" d="M1534.3,-430.61C1534.63,-412.22 1535.14,-382.87 1535.52,-361.38"/>
<polygon fill="#6b7686" stroke="#6b7686" points="1539.02,-361.3 1535.7,-351.24 1532.02,-361.18 1539.02,-361.3"/>
<text text-anchor="middle" x="1564.5" y="-403.18" font-family="Helvetica,sans-Serif" font-size="9.00">JSON &#160;/ &#160;HTTP</text>
</g>
<!-- barbuilder -->
<g id="node8" class="node">
<title>barbuilder</title>
<path fill="#eef2f7" stroke="#9aa7b8" d="M1360.5,-682.88C1360.5,-682.88 1207.5,-682.88 1207.5,-682.88 1201.5,-682.88 1195.5,-676.88 1195.5,-670.88 1195.5,-670.88 1195.5,-658.88 1195.5,-658.88 1195.5,-652.88 1201.5,-646.88 1207.5,-646.88 1207.5,-646.88 1360.5,-646.88 1360.5,-646.88 1366.5,-646.88 1372.5,-652.88 1372.5,-658.88 1372.5,-658.88 1372.5,-670.88 1372.5,-670.88 1372.5,-676.88 1366.5,-682.88 1360.5,-682.88"/>
<text text-anchor="middle" x="1284" y="-667.88" font-family="Helvetica,sans-Serif" font-size="10.00">BarBuilder</text>
<text text-anchor="middle" x="1284" y="-656.88" font-family="Helvetica,sans-Serif" font-size="10.00">live/bars.py &#160;(ticks → 1&#45;min bars)</text>
</g>
<!-- feed&#45;&gt;barbuilder -->
<g id="edge10" class="edge">
<title>feed&#45;&gt;barbuilder</title>
<path fill="none" stroke="#6b7686" d="M1266.77,-728.52C1269.65,-718.07 1273.37,-704.54 1276.61,-692.74"/>
<polygon fill="#6b7686" stroke="#6b7686" points="1280.03,-693.5 1279.31,-682.93 1273.28,-691.64 1280.03,-693.5"/>
<text text-anchor="middle" x="1284" y="-703.67" font-family="Helvetica,sans-Serif" font-size="9.00">bars</text>
</g>
<!-- engine -->
<g id="node9" class="node">
<title>engine</title>
<path fill="#cdeed9" stroke="#9aa7b8" d="M1302,-579.88C1302,-579.88 1208,-579.88 1208,-579.88 1202,-579.88 1196,-573.88 1196,-567.88 1196,-567.88 1196,-555.88 1196,-555.88 1196,-549.88 1202,-543.88 1208,-543.88 1208,-543.88 1302,-543.88 1302,-543.88 1308,-543.88 1314,-549.88 1314,-555.88 1314,-555.88 1314,-567.88 1314,-567.88 1314,-573.88 1308,-579.88 1302,-579.88"/>
<text text-anchor="middle" x="1255" y="-564.88" font-family="Helvetica,sans-Serif" font-size="10.00">PaperTradingEngine /</text>
<text text-anchor="middle" x="1255" y="-553.88" font-family="Helvetica,sans-Serif" font-size="10.00">MultiStrategyEngine</text>
</g>
<!-- barbuilder&#45;&gt;engine -->
<g id="edge11" class="edge">
<title>barbuilder&#45;&gt;engine</title>
<path fill="none" stroke="#6b7686" d="M1279.08,-646.74C1274.6,-631.14 1267.92,-607.86 1262.72,-589.78"/>
<polygon fill="#6b7686" stroke="#6b7686" points="1266.07,-588.74 1259.94,-580.09 1259.34,-590.67 1266.07,-588.74"/>
<text text-anchor="middle" x="1283" y="-621.67" font-family="Helvetica,sans-Serif" font-size="9.00">bars</text>
</g>
<!-- engine&#45;&gt;service -->
<g id="edge30" class="edge">
<title>engine&#45;&gt;service</title>
<path fill="none" stroke="#6b7686" d="M1310.23,-543.77C1346.67,-531.99 1395.21,-515.37 1437,-497.88 1455.72,-490.04 1475.91,-480.27 1492.99,-471.6"/>
<polygon fill="#6b7686" stroke="#6b7686" points="1494.84,-474.59 1502.14,-466.91 1491.64,-468.36 1494.84,-474.59"/>
<text text-anchor="middle" x="1478.5" y="-513.67" font-family="Helvetica,sans-Serif" font-size="9.00">DashboardState.from_engine</text>
</g>
<!-- tradelog -->
<g id="node10" class="node">
<title>tradelog</title>
<path fill="#eef2f7" stroke="#9aa7b8" d="M1255,-466.88C1255,-466.88 1219,-466.88 1219,-466.88 1213,-466.88 1207,-460.88 1207,-454.88 1207,-454.88 1207,-442.88 1207,-442.88 1207,-436.88 1213,-430.88 1219,-430.88 1219,-430.88 1255,-430.88 1255,-430.88 1261,-430.88 1267,-436.88 1267,-442.88 1267,-442.88 1267,-454.88 1267,-454.88 1267,-460.88 1261,-466.88 1255,-466.88"/>
<text text-anchor="middle" x="1237" y="-446.38" font-family="Helvetica,sans-Serif" font-size="10.00">TradeLog</text>
</g>
<!-- engine&#45;&gt;tradelog -->
<g id="edge19" class="edge">
<title>engine&#45;&gt;tradelog</title>
<path fill="none" stroke="#6b7686" d="M1252.19,-543.53C1249.31,-525.77 1244.79,-497.91 1241.43,-477.19"/>
<polygon fill="#6b7686" stroke="#6b7686" points="1244.85,-476.41 1239.79,-467.1 1237.94,-477.53 1244.85,-476.41"/>
</g>
<!-- notifier -->
<g id="node11" class="node">
<title>notifier</title>
<path fill="#eef2f7" stroke="#9aa7b8" d="M1366.5,-466.88C1366.5,-466.88 1297.5,-466.88 1297.5,-466.88 1291.5,-466.88 1285.5,-460.88 1285.5,-454.88 1285.5,-454.88 1285.5,-442.88 1285.5,-442.88 1285.5,-436.88 1291.5,-430.88 1297.5,-430.88 1297.5,-430.88 1366.5,-430.88 1366.5,-430.88 1372.5,-430.88 1378.5,-436.88 1378.5,-442.88 1378.5,-442.88 1378.5,-454.88 1378.5,-454.88 1378.5,-460.88 1372.5,-466.88 1366.5,-466.88"/>
<text text-anchor="middle" x="1332" y="-451.88" font-family="Helvetica,sans-Serif" font-size="10.00">Notifier</text>
<text text-anchor="middle" x="1332" y="-440.88" font-family="Helvetica,sans-Serif" font-size="10.00">(log / Telegram)</text>
</g>
<!-- engine&#45;&gt;notifier -->
<g id="edge20" class="edge">
<title>engine&#45;&gt;notifier</title>
<path fill="none" stroke="#6b7686" d="M1267.03,-543.53C1279.69,-525.28 1299.74,-496.37 1314.23,-475.5"/>
<polygon fill="#6b7686" stroke="#6b7686" points="1317.23,-477.31 1320.05,-467.1 1311.48,-473.32 1317.23,-477.31"/>
</g>
<!-- strategies -->
<g id="node12" class="node">
<title>strategies</title>
<path fill="#e7e0fb" stroke="#9aa7b8" d="M639,-130C639,-130 477,-130 477,-130 471,-130 465,-124 465,-118 465,-118 465,-101 465,-101 465,-95 471,-89 477,-89 477,-89 639,-89 639,-89 645,-89 651,-95 651,-101 651,-101 651,-118 651,-118 651,-124 645,-130 639,-130"/>
<text text-anchor="middle" x="558" y="-118" font-family="Helvetica,sans-Serif" font-size="10.00">Strategy ABC + ORB, Momentum,</text>
<text text-anchor="middle" x="558" y="-107" font-family="Helvetica,sans-Serif" font-size="10.00">MA&#45;cross, RSI2, VWAP, Supertrend,</text>
<text text-anchor="middle" x="558" y="-96" font-family="Helvetica,sans-Serif" font-size="10.00">cross&#45;sectional</text>
</g>
<!-- engine&#45;&gt;strategies -->
<g id="edge12" class="edge">
<title>engine&#45;&gt;strategies</title>
<path fill="none" stroke="#6b7686" d="M1195.9,-558.81C1091.18,-554.74 877.3,-544.41 805,-525.88 775.71,-518.37 766.82,-516.49 743,-497.88 699.49,-463.88 707.85,-436.4 666,-400.38 660.57,-395.7 656.54,-397.92 652,-392.38 635.47,-372.22 586.45,-208.17 566.54,-140.02"/>
<polygon fill="#6b7686" stroke="#6b7686" points="569.87,-138.94 563.71,-130.31 563.15,-140.89 569.87,-138.94"/>
<text text-anchor="middle" x="688.5" y="-330.99" font-family="Helvetica,sans-Serif" font-size="9.00">on_bar → Signal</text>
</g>
<!-- risk -->
<g id="node13" class="node">
<title>risk</title>
<path fill="#eef2f7" stroke="#9aa7b8" d="M813,-130C813,-130 681,-130 681,-130 675,-130 669,-124 669,-118 669,-118 669,-101 669,-101 669,-95 675,-89 681,-89 681,-89 813,-89 813,-89 819,-89 825,-95 825,-101 825,-101 825,-118 825,-118 825,-124 819,-130 813,-130"/>
<text text-anchor="middle" x="747" y="-118" font-family="Helvetica,sans-Serif" font-size="10.00">RiskManager + ATR sizing</text>
<text text-anchor="middle" x="747" y="-107" font-family="Helvetica,sans-Serif" font-size="10.00">risk/ &#160;(kill&#45;switch, square&#45;off,</text>
<text text-anchor="middle" x="747" y="-96" font-family="Helvetica,sans-Serif" font-size="10.00">max positions)</text>
</g>
<!-- engine&#45;&gt;risk -->
<g id="edge13" class="edge">
<title>engine&#45;&gt;risk</title>
<path fill="none" stroke="#6b7686" d="M1195.73,-560.29C1061.73,-557.37 747,-540.83 747,-449.88 747,-449.88 747,-449.88 747,-216.5 747,-190.68 747,-161.33 747,-140.06"/>
<polygon fill="#6b7686" stroke="#6b7686" points="750.5,-140.04 747,-130.04 743.5,-140.04 750.5,-140.04"/>
<text text-anchor="middle" x="772.5" y="-330.99" font-family="Helvetica,sans-Serif" font-size="9.00">gate + size</text>
</g>
<!-- gateway -->
<g id="node14" class="node">
<title>gateway</title>
<path fill="#eef2f7" stroke="#9aa7b8" d="M1143.5,-466.88C1143.5,-466.88 1026.5,-466.88 1026.5,-466.88 1020.5,-466.88 1014.5,-460.88 1014.5,-454.88 1014.5,-454.88 1014.5,-442.88 1014.5,-442.88 1014.5,-436.88 1020.5,-430.88 1026.5,-430.88 1026.5,-430.88 1143.5,-430.88 1143.5,-430.88 1149.5,-430.88 1155.5,-436.88 1155.5,-442.88 1155.5,-442.88 1155.5,-454.88 1155.5,-454.88 1155.5,-460.88 1149.5,-466.88 1143.5,-466.88"/>
<text text-anchor="middle" x="1085" y="-446.38" font-family="Helvetica,sans-Serif" font-size="10.00">OrderGateway (interface)</text>
</g>
<!-- engine&#45;&gt;gateway -->
<g id="edge14" class="edge">
<title>engine&#45;&gt;gateway</title>
<path fill="none" stroke="#6b7686" d="M1228.81,-543.77C1199.61,-524.71 1152.25,-493.78 1119.91,-472.67"/>
<polygon fill="#6b7686" stroke="#6b7686" points="1121.51,-469.53 1111.22,-466.99 1117.68,-475.39 1121.51,-469.53"/>
</g>
<!-- portfolio -->
<g id="node17" class="node">
<title>portfolio</title>
<path fill="#eef2f7" stroke="#9aa7b8" d="M997.5,-235.5C997.5,-235.5 866.5,-235.5 866.5,-235.5 860.5,-235.5 854.5,-229.5 854.5,-223.5 854.5,-223.5 854.5,-211.5 854.5,-211.5 854.5,-205.5 860.5,-199.5 866.5,-199.5 866.5,-199.5 997.5,-199.5 997.5,-199.5 1003.5,-199.5 1009.5,-205.5 1009.5,-211.5 1009.5,-211.5 1009.5,-223.5 1009.5,-223.5 1009.5,-229.5 1003.5,-235.5 997.5,-235.5"/>
<text text-anchor="middle" x="932" y="-220.5" font-family="Helvetica,sans-Serif" font-size="10.00">Portfolio</text>
<text text-anchor="middle" x="932" y="-209.5" font-family="Helvetica,sans-Serif" font-size="10.00">positions + net realised P&amp;L</text>
</g>
<!-- engine&#45;&gt;portfolio -->
<g id="edge18" class="edge">
<title>engine&#45;&gt;portfolio</title>
<path fill="none" stroke="#6b7686" d="M1195.95,-558.24C1099.94,-550.28 913.9,-518.48 846,-392.38 825.9,-355.05 828.89,-335.78 846,-297 856.05,-274.22 876.33,-255.2 894.67,-241.58"/>
<polygon fill="#6b7686" stroke="#6b7686" points="896.8,-244.36 902.92,-235.71 892.74,-238.66 896.8,-244.36"/>
</g>
<!-- repos -->
<g id="node24" class="node">
<title>repos</title>
<path fill="#eef2f7" stroke="#9aa7b8" d="M629.5,-466.88C629.5,-466.88 522.5,-466.88 522.5,-466.88 516.5,-466.88 510.5,-460.88 510.5,-454.88 510.5,-454.88 510.5,-442.88 510.5,-442.88 510.5,-436.88 516.5,-430.88 522.5,-430.88 522.5,-430.88 629.5,-430.88 629.5,-430.88 635.5,-430.88 641.5,-436.88 641.5,-442.88 641.5,-442.88 641.5,-454.88 641.5,-454.88 641.5,-460.88 635.5,-466.88 629.5,-466.88"/>
<text text-anchor="middle" x="576" y="-451.88" font-family="Helvetica,sans-Serif" font-size="10.00">Repositories</text>
<text text-anchor="middle" x="576" y="-440.88" font-family="Helvetica,sans-Serif" font-size="10.00">instruments · ohlc · fills</text>
</g>
<!-- engine&#45;&gt;repos -->
<g id="edge21" class="edge">
<title>engine&#45;&gt;repos</title>
<path fill="none" stroke="#6b7686" stroke-dasharray="1,5" d="M1195.98,-559.96C1052.92,-557.4 695.82,-548.77 647,-525.88 640.66,-522.9 615.92,-495.61 597.41,-474.57"/>
<polygon fill="#6b7686" stroke="#6b7686" points="599.9,-472.1 590.68,-466.88 594.63,-476.71 599.9,-472.1"/>
<text text-anchor="middle" x="671.5" y="-513.67" font-family="Helvetica,sans-Serif" font-size="9.00">persist fills</text>
</g>
<!-- paper -->
<g id="node15" class="node">
<title>paper</title>
<path fill="#d9f2e3" stroke="#9aa7b8" d="M967.5,-351.19C967.5,-351.19 866.5,-351.19 866.5,-351.19 860.5,-351.19 854.5,-345.19 854.5,-339.19 854.5,-339.19 854.5,-327.19 854.5,-327.19 854.5,-321.19 860.5,-315.19 866.5,-315.19 866.5,-315.19 967.5,-315.19 967.5,-315.19 973.5,-315.19 979.5,-321.19 979.5,-327.19 979.5,-327.19 979.5,-339.19 979.5,-339.19 979.5,-345.19 973.5,-351.19 967.5,-351.19"/>
<text text-anchor="middle" x="917" y="-336.19" font-family="Helvetica,sans-Serif" font-size="10.00">PaperGateway</text>
<text text-anchor="middle" x="917" y="-325.19" font-family="Helvetica,sans-Serif" font-size="10.00">simulated fills + costs</text>
</g>
<!-- gateway&#45;&gt;paper -->
<g id="edge15" class="edge">
<title>gateway&#45;&gt;paper</title>
<path fill="none" stroke="#6b7686" d="M1055.22,-430.72C1044.16,-424.34 1031.5,-417.03 1020,-410.38 1006.21,-402.39 1002.12,-401.41 989,-392.38 973.65,-381.81 957.44,-368.88 944.29,-357.89"/>
<polygon fill="#6b7686" stroke="#6b7686" points="946.43,-355.12 936.54,-351.34 941.92,-360.47 946.43,-355.12"/>
<text text-anchor="middle" x="1050.5" y="-403.18" font-family="Helvetica,sans-Serif" font-size="9.00">market mode</text>
</g>
<!-- live -->
<g id="node16" class="node">
<title>live</title>
<path fill="#fde2df" stroke="#b0392f" stroke-dasharray="5,2" d="M1160,-351.19C1160,-351.19 1010,-351.19 1010,-351.19 1004,-351.19 998,-345.19 998,-339.19 998,-339.19 998,-327.19 998,-327.19 998,-321.19 1004,-315.19 1010,-315.19 1010,-315.19 1160,-315.19 1160,-315.19 1166,-315.19 1172,-321.19 1172,-327.19 1172,-327.19 1172,-339.19 1172,-339.19 1172,-345.19 1166,-351.19 1160,-351.19"/>
<text text-anchor="middle" x="1085" y="-336.19" font-family="Helvetica,sans-Serif" font-size="10.00" fill="#b0392f">LiveGateway</text>
<text text-anchor="middle" x="1085" y="-325.19" font-family="Helvetica,sans-Serif" font-size="10.00" fill="#b0392f">NotImplementedError (disabled)</text>
</g>
<!-- gateway&#45;&gt;live -->
<g id="edge16" class="edge">
<title>gateway&#45;&gt;live</title>
<path fill="none" stroke="#b0392f" stroke-dasharray="5,2" d="M1085,-430.61C1085,-412.22 1085,-382.87 1085,-361.38"/>
<polygon fill="#b0392f" stroke="#b0392f" points="1088.5,-361.24 1085,-351.24 1081.5,-361.24 1088.5,-361.24"/>
<text text-anchor="middle" x="1118" y="-403.18" font-family="Helvetica,sans-Serif" font-size="9.00">live mode (off)</text>
</g>
<!-- paper&#45;&gt;portfolio -->
<g id="edge17" class="edge">
<title>paper&#45;&gt;portfolio</title>
<path fill="none" stroke="#6b7686" d="M919.28,-314.92C921.7,-296.53 925.58,-267.18 928.41,-245.69"/>
<polygon fill="#6b7686" stroke="#6b7686" points="931.91,-245.93 929.75,-235.56 924.97,-245.01 931.91,-245.93"/>
<text text-anchor="middle" x="963.5" y="-279.8" font-family="Helvetica,sans-Serif" font-size="9.00">fills (net of costs)</text>
</g>
<!-- simulator -->
<g id="node18" class="node">
<title>simulator</title>
<path fill="#cdeeee" stroke="#9aa7b8" d="M264,-235.5C264,-235.5 160,-235.5 160,-235.5 154,-235.5 148,-229.5 148,-223.5 148,-223.5 148,-211.5 148,-211.5 148,-205.5 154,-199.5 160,-199.5 160,-199.5 264,-199.5 264,-199.5 270,-199.5 276,-205.5 276,-211.5 276,-211.5 276,-223.5 276,-223.5 276,-229.5 270,-235.5 264,-235.5"/>
<text text-anchor="middle" x="212" y="-215" font-family="Helvetica,sans-Serif" font-size="10.00">Event&#45;driven simulator</text>
</g>
<!-- simulator&#45;&gt;strategies -->
<g id="edge24" class="edge">
<title>simulator&#45;&gt;strategies</title>
<path fill="none" stroke="#6b7686" d="M267.59,-199.47C326.46,-181.43 419.68,-152.88 484.56,-133"/>
<polygon fill="#6b7686" stroke="#6b7686" points="485.79,-136.28 494.32,-130.01 483.74,-129.59 485.79,-136.28"/>
<text text-anchor="middle" x="380.5" y="-171.8" font-family="Helvetica,sans-Serif" font-size="9.00">on_bar</text>
</g>
<!-- costs -->
<g id="node19" class="node">
<title>costs</title>
<path fill="#eef2f7" stroke="#9aa7b8" d="M215,-127.5C215,-127.5 45,-127.5 45,-127.5 39,-127.5 33,-121.5 33,-115.5 33,-115.5 33,-103.5 33,-103.5 33,-97.5 39,-91.5 45,-91.5 45,-91.5 215,-91.5 215,-91.5 221,-91.5 227,-97.5 227,-103.5 227,-103.5 227,-115.5 227,-115.5 227,-121.5 221,-127.5 215,-127.5"/>
<text text-anchor="middle" x="130" y="-112.5" font-family="Helvetica,sans-Serif" font-size="10.00">Cost model</text>
<text text-anchor="middle" x="130" y="-101.5" font-family="Helvetica,sans-Serif" font-size="10.00">brokerage·STT·exch·SEBI·GST·stamp</text>
</g>
<!-- simulator&#45;&gt;costs -->
<g id="edge25" class="edge">
<title>simulator&#45;&gt;costs</title>
<path fill="none" stroke="#6b7686" d="M198.83,-199.47C185.52,-182.26 164.8,-155.48 149.57,-135.79"/>
<polygon fill="#6b7686" stroke="#6b7686" points="152.3,-133.61 143.41,-127.84 146.76,-137.89 152.3,-133.61"/>
</g>
<!-- metrics -->
<g id="node20" class="node">
<title>metrics</title>
<path fill="#eef2f7" stroke="#9aa7b8" d="M213.5,-52C213.5,-52 46.5,-52 46.5,-52 40.5,-52 34.5,-46 34.5,-40 34.5,-40 34.5,-28 34.5,-28 34.5,-22 40.5,-16 46.5,-16 46.5,-16 213.5,-16 213.5,-16 219.5,-16 225.5,-22 225.5,-28 225.5,-28 225.5,-40 225.5,-40 225.5,-46 219.5,-52 213.5,-52"/>
<text text-anchor="middle" x="130" y="-37" font-family="Helvetica,sans-Serif" font-size="10.00">Metrics</text>
<text text-anchor="middle" x="130" y="-26" font-family="Helvetica,sans-Serif" font-size="10.00">net P&amp;L·Sharpe·Sortino·DD·turnover</text>
</g>
<!-- costs&#45;&gt;metrics -->
<g id="edge26" class="edge">
<title>costs&#45;&gt;metrics</title>
<path fill="none" stroke="#6b7686" d="M130,-91.45C130,-82.8 130,-72.07 130,-62.29"/>
<polygon fill="#6b7686" stroke="#6b7686" points="133.5,-62.21 130,-52.21 126.5,-62.21 133.5,-62.21"/>
</g>
<!-- rotation -->
<g id="node21" class="node">
<title>rotation</title>
<path fill="#eef2f7" stroke="#9aa7b8" d="M117.5,-235.5C117.5,-235.5 28.5,-235.5 28.5,-235.5 22.5,-235.5 16.5,-229.5 16.5,-223.5 16.5,-223.5 16.5,-211.5 16.5,-211.5 16.5,-205.5 22.5,-199.5 28.5,-199.5 28.5,-199.5 117.5,-199.5 117.5,-199.5 123.5,-199.5 129.5,-205.5 129.5,-211.5 129.5,-211.5 129.5,-223.5 129.5,-223.5 129.5,-229.5 123.5,-235.5 117.5,-235.5"/>
<text text-anchor="middle" x="73" y="-220.5" font-family="Helvetica,sans-Serif" font-size="10.00">Rotation backtester</text>
<text text-anchor="middle" x="73" y="-209.5" font-family="Helvetica,sans-Serif" font-size="10.00">(cross&#45;sectional)</text>
</g>
<!-- rotation&#45;&gt;costs -->
<g id="edge28" class="edge">
<title>rotation&#45;&gt;costs</title>
<path fill="none" stroke="#6b7686" stroke-dasharray="1,5" d="M82.16,-199.47C91.24,-182.57 105.3,-156.44 115.83,-136.86"/>
<polygon fill="#6b7686" stroke="#6b7686" points="119.02,-138.31 120.68,-127.84 112.86,-134.99 119.02,-138.31"/>
</g>
<!-- optimize -->
<g id="node22" class="node">
<title>optimize</title>
<path fill="#eef2f7" stroke="#9aa7b8" d="M244.5,-351.19C244.5,-351.19 137.5,-351.19 137.5,-351.19 131.5,-351.19 125.5,-345.19 125.5,-339.19 125.5,-339.19 125.5,-327.19 125.5,-327.19 125.5,-321.19 131.5,-315.19 137.5,-315.19 137.5,-315.19 244.5,-315.19 244.5,-315.19 250.5,-315.19 256.5,-321.19 256.5,-327.19 256.5,-327.19 256.5,-339.19 256.5,-339.19 256.5,-345.19 250.5,-351.19 244.5,-351.19"/>
<text text-anchor="middle" x="191" y="-330.69" font-family="Helvetica,sans-Serif" font-size="10.00">Walk&#45;forward optimizer</text>
</g>
<!-- optimize&#45;&gt;simulator -->
<g id="edge27" class="edge">
<title>optimize&#45;&gt;simulator</title>
<path fill="none" stroke="#6b7686" d="M194.19,-314.92C197.6,-296.45 203.06,-266.91 207.03,-245.39"/>
<polygon fill="#6b7686" stroke="#6b7686" points="210.47,-246.03 208.85,-235.56 203.59,-244.75 210.47,-246.03"/>
<text text-anchor="middle" x="243.5" y="-279.8" font-family="Helvetica,sans-Serif" font-size="9.00">grid / walk&#45;forward</text>
</g>
<!-- broker -->
<g id="node23" class="node">
<title>broker</title>
<path fill="#eef2f7" stroke="#9aa7b8" d="M480.5,-469.38C480.5,-469.38 339.5,-469.38 339.5,-469.38 333.5,-469.38 327.5,-463.38 327.5,-457.38 327.5,-457.38 327.5,-440.38 327.5,-440.38 327.5,-434.38 333.5,-428.38 339.5,-428.38 339.5,-428.38 480.5,-428.38 480.5,-428.38 486.5,-428.38 492.5,-434.38 492.5,-440.38 492.5,-440.38 492.5,-457.38 492.5,-457.38 492.5,-463.38 486.5,-469.38 480.5,-469.38"/>
<text text-anchor="middle" x="410" y="-457.38" font-family="Helvetica,sans-Serif" font-size="10.00">KiteClient</text>
<text text-anchor="middle" x="410" y="-446.38" font-family="Helvetica,sans-Serif" font-size="10.00">broker/ &#160;(token&#45;bucket throttle,</text>
<text text-anchor="middle" x="410" y="-435.38" font-family="Helvetica,sans-Serif" font-size="10.00">TokenStore, auth)</text>
</g>
<!-- broker&#45;&gt;kite_rest -->
<g id="edge5" class="edge">
<title>broker&#45;&gt;kite_rest</title>
<path fill="none" stroke="#6b7686" d="M327.42,-466.1C245.15,-484.7 131,-518.19 131,-560.88 131,-747.88 131,-747.88 131,-747.88 131,-821.55 373.25,-841.53 494.1,-846.91"/>
<polygon fill="#6b7686" stroke="#6b7686" points="494.2,-850.42 504.34,-847.34 494.5,-843.42 494.2,-850.42"/>
<text text-anchor="middle" x="168" y="-662.67" font-family="Helvetica,sans-Serif" font-size="9.00">REST (throttled)</text>
</g>
<!-- redis -->
<g id="node27" class="node">
<title>redis</title>
<path fill="#dfe4ea" stroke="#9aa7b8" d="M390,-350.17C390,-352.25 369.83,-353.94 345,-353.94 320.17,-353.94 300,-352.25 300,-350.17 300,-350.17 300,-316.21 300,-316.21 300,-314.13 320.17,-312.44 345,-312.44 369.83,-312.44 390,-314.13 390,-316.21 390,-316.21 390,-350.17 390,-350.17"/>
<path fill="none" stroke="#9aa7b8" d="M390,-350.17C390,-348.08 369.83,-346.39 345,-346.39 320.17,-346.39 300,-348.08 300,-350.17"/>
<text text-anchor="middle" x="345" y="-336.19" font-family="Helvetica,sans-Serif" font-size="10.00">Redis</text>
<text text-anchor="middle" x="345" y="-325.19" font-family="Helvetica,sans-Serif" font-size="10.00">cache / throttle</text>
</g>
<!-- broker&#45;&gt;redis -->
<g id="edge8" class="edge">
<title>broker&#45;&gt;redis</title>
<path fill="none" stroke="#6b7686" stroke-dasharray="1,5" d="M398.83,-428.33C388.5,-410.27 373.04,-383.22 361.33,-362.75"/>
<polygon fill="#6b7686" stroke="#6b7686" points="364.25,-360.8 356.25,-353.86 358.17,-364.28 364.25,-360.8"/>
<text text-anchor="middle" x="424.5" y="-403.18" font-family="Helvetica,sans-Serif" font-size="9.00">throttle buckets</text>
</g>
<!-- tsdb -->
<g id="node26" class="node">
<title>tsdb</title>
<path fill="#dfe4ea" stroke="#9aa7b8" d="M602,-356.4C602,-359.25 558.52,-361.56 505,-361.56 451.48,-361.56 408,-359.25 408,-356.4 408,-356.4 408,-309.97 408,-309.97 408,-307.12 451.48,-304.81 505,-304.81 558.52,-304.81 602,-307.12 602,-309.97 602,-309.97 602,-356.4 602,-356.4"/>
<path fill="none" stroke="#9aa7b8" d="M602,-356.4C602,-353.56 558.52,-351.25 505,-351.25 451.48,-351.25 408,-353.56 408,-356.4"/>
<text text-anchor="middle" x="505" y="-341.69" font-family="Helvetica,sans-Serif" font-size="10.00">TimescaleDB</text>
<text text-anchor="middle" x="505" y="-330.69" font-family="Helvetica,sans-Serif" font-size="10.00">instruments · ohlc_bars (hypertable)</text>
<text text-anchor="middle" x="505" y="-319.69" font-family="Helvetica,sans-Serif" font-size="10.00">5/15/60&#45;min aggregates · fills</text>
</g>
<!-- repos&#45;&gt;tsdb -->
<g id="edge7" class="edge">
<title>repos&#45;&gt;tsdb</title>
<path fill="none" stroke="#6b7686" d="M565.22,-430.61C555.28,-414.7 540.22,-390.58 527.65,-370.45"/>
<polygon fill="#6b7686" stroke="#6b7686" points="530.52,-368.44 522.25,-361.81 524.58,-372.15 530.52,-368.44"/>
<text text-anchor="middle" x="607" y="-403.18" font-family="Helvetica,sans-Serif" font-size="9.00">upsert bars/instruments</text>
</g>
<!-- dataops -->
<g id="node25" class="node">
<title>dataops</title>
<path fill="#eef2f7" stroke="#9aa7b8" d="M566,-579.88C566,-579.88 460,-579.88 460,-579.88 454,-579.88 448,-573.88 448,-567.88 448,-567.88 448,-555.88 448,-555.88 448,-549.88 454,-543.88 460,-543.88 460,-543.88 566,-543.88 566,-543.88 572,-543.88 578,-549.88 578,-555.88 578,-555.88 578,-567.88 578,-567.88 578,-573.88 572,-579.88 566,-579.88"/>
<text text-anchor="middle" x="513" y="-564.88" font-family="Helvetica,sans-Serif" font-size="10.00">backfill · calendar ·</text>
<text text-anchor="middle" x="513" y="-553.88" font-family="Helvetica,sans-Serif" font-size="10.00">corporate&#45;action adjust</text>
</g>
<!-- dataops&#45;&gt;broker -->
<g id="edge4" class="edge">
<title>dataops&#45;&gt;broker</title>
<path fill="none" stroke="#6b7686" d="M455.59,-543.76C446.79,-539.1 438.48,-533.23 432,-525.88 420.78,-513.15 415.27,-495.01 412.57,-479.65"/>
<polygon fill="#6b7686" stroke="#6b7686" points="416,-478.95 411.11,-469.56 409.07,-479.95 416,-478.95"/>
<text text-anchor="middle" x="469" y="-513.67" font-family="Helvetica,sans-Serif" font-size="9.00">REST (throttled)</text>
</g>
<!-- dataops&#45;&gt;repos -->
<g id="edge6" class="edge">
<title>dataops&#45;&gt;repos</title>
<path fill="none" stroke="#6b7686" d="M509.91,-543.74C508.67,-532.48 508.62,-517.7 514,-505.88 519.75,-493.25 529.85,-482.24 540.26,-473.41"/>
<polygon fill="#6b7686" stroke="#6b7686" points="542.56,-476.05 548.2,-467.08 538.2,-470.57 542.56,-476.05"/>
<text text-anchor="middle" x="569" y="-513.67" font-family="Helvetica,sans-Serif" font-size="9.00">upsert bars/instruments</text>
</g>
<!-- tsdb&#45;&gt;simulator -->
<g id="edge23" class="edge">
<title>tsdb&#45;&gt;simulator</title>
<path fill="none" stroke="#6b7686" d="M436.3,-305.53C384.24,-285.33 313.71,-257.97 265.74,-239.35"/>
<polygon fill="#6b7686" stroke="#6b7686" points="266.74,-235.99 256.15,-235.63 264.21,-242.51 266.74,-235.99"/>
<text text-anchor="middle" x="395" y="-279.8" font-family="Helvetica,sans-Serif" font-size="9.00">bars</text>
</g>
<!-- config -->
<g id="node28" class="node">
<title>config</title>
<path fill="#fff7e6" stroke="#b7791f" d="M299,-579.88C299,-579.88 171,-579.88 171,-579.88 165,-579.88 159,-573.88 159,-567.88 159,-567.88 159,-555.88 159,-555.88 159,-549.88 165,-543.88 171,-543.88 171,-543.88 299,-543.88 299,-543.88 305,-543.88 311,-549.88 311,-555.88 311,-555.88 311,-567.88 311,-567.88 311,-573.88 305,-579.88 299,-579.88"/>
<text text-anchor="middle" x="235" y="-564.88" font-family="Helvetica,sans-Serif" font-size="10.00">Settings (pydantic&#45;settings)</text>
<text text-anchor="middle" x="235" y="-553.88" font-family="Helvetica,sans-Serif" font-size="10.00">config/ &#160;← .env (gitignored)</text>
</g>
<!-- config&#45;&gt;broker -->
<g id="edge1" class="edge">
<title>config&#45;&gt;broker</title>
<path fill="none" stroke="#6b7686" d="M229.65,-543.63C227.13,-531.88 226.16,-516.59 234,-505.88 253.47,-479.25 285.7,-464.98 317.31,-457.44"/>
<polygon fill="#6b7686" stroke="#6b7686" points="318.05,-460.86 327.08,-455.3 316.56,-454.02 318.05,-460.86"/>
<text text-anchor="middle" x="267.5" y="-518.67" font-family="Helvetica,sans-Serif" font-size="9.00">api key/secret,</text>
<text text-anchor="middle" x="267.5" y="-508.68" font-family="Helvetica,sans-Serif" font-size="9.00">access token</text>
</g>
<!-- config&#45;&gt;repos -->
<g id="edge2" class="edge">
<title>config&#45;&gt;repos</title>
<path fill="none" stroke="#6b7686" stroke-dasharray="1,5" d="M268.03,-543.81C298,-528.47 338.72,-508.03 347,-505.88 413.33,-488.64 435.74,-518.82 501,-497.88 517.66,-492.53 534.25,-482.52 547.58,-473.03"/>
<polygon fill="#6b7686" stroke="#6b7686" points="549.88,-475.68 555.83,-466.91 545.71,-470.05 549.88,-475.68"/>
<text text-anchor="middle" x="382" y="-513.67" font-family="Helvetica,sans-Serif" font-size="9.00">DATABASE_URL</text>
</g>
<!-- cli -->
<g id="node29" class="node">
<title>cli</title>
<polygon fill="#fffef2" stroke="#b7791f" points="979.5,-682.88 700.5,-682.88 700.5,-646.88 985.5,-646.88 985.5,-676.88 979.5,-682.88"/>
<polyline fill="none" stroke="#b7791f" points="979.5,-682.88 979.5,-676.88 "/>
<polyline fill="none" stroke="#b7791f" points="985.5,-676.88 979.5,-676.88 "/>
<text text-anchor="middle" x="843" y="-667.88" font-family="Helvetica,sans-Serif" font-size="10.00">CLIs (scripts/): refresh_token · backfill ·</text>
<text text-anchor="middle" x="843" y="-656.88" font-family="Helvetica,sans-Serif" font-size="10.00">backtest · rotation · optimize · paper_trade · dashboard</text>
</g>
<!-- cli&#45;&gt;fastapi -->
<g id="edge34" class="edge">
<title>cli&#45;&gt;fastapi</title>
<path fill="none" stroke="#6b7686" stroke-dasharray="5,2" d="M985.75,-656.4C1158.11,-647.25 1426.42,-632.5 1437,-628.88 1534.38,-595.52 1580.03,-588.95 1628,-497.88 1644.05,-467.4 1641.7,-451.98 1628,-420.38 1616.68,-394.25 1593.11,-372.43 1572.66,-357.27"/>
<polygon fill="#6b7686" stroke="#6b7686" points="1574.6,-354.36 1564.43,-351.39 1570.53,-360.05 1574.6,-354.36"/>
<text text-anchor="middle" x="1647.5" y="-513.67" font-family="Helvetica,sans-Serif" font-size="9.00">dashboard</text>
</g>
<!-- cli&#45;&gt;engine -->
<g id="edge22" class="edge">
<title>cli&#45;&gt;engine</title>
<path fill="none" stroke="#6b7686" stroke-dasharray="5,2" d="M912.42,-646.86C988.58,-628.19 1110.07,-598.4 1186.04,-579.78"/>
<polygon fill="#6b7686" stroke="#6b7686" points="1187.11,-583.12 1195.99,-577.34 1185.44,-576.32 1187.11,-583.12"/>
<text text-anchor="middle" x="1051.5" y="-621.67" font-family="Helvetica,sans-Serif" font-size="9.00">paper_trade</text>
</g>
<!-- cli&#45;&gt;simulator -->
<g id="edge29" class="edge">
<title>cli&#45;&gt;simulator</title>
<path fill="none" stroke="#6b7686" stroke-dasharray="5,2" d="M700.28,-663.2C527.09,-660.62 246.26,-650.23 150,-610.88 119.34,-598.34 93,-595.99 93,-562.88 93,-562.88 93,-562.88 93,-332.19 93,-308.31 143.7,-267.17 178.92,-241.47"/>
<polygon fill="#6b7686" stroke="#6b7686" points="180.99,-244.29 187.05,-235.6 176.9,-238.61 180.99,-244.29"/>
<text text-anchor="middle" x="113" y="-446.68" font-family="Helvetica,sans-Serif" font-size="9.00">backtest</text>
</g>
<!-- cli&#45;&gt;dataops -->
<g id="edge3" class="edge">
<title>cli&#45;&gt;dataops</title>
<path fill="none" stroke="#6b7686" stroke-dasharray="5,2" d="M787.39,-646.86C729.71,-629.2 639.57,-601.61 578.48,-582.92"/>
<polygon fill="#6b7686" stroke="#6b7686" points="579.15,-579.46 568.56,-579.88 577.1,-586.15 579.15,-579.46"/>
<text text-anchor="middle" x="734" y="-621.67" font-family="Helvetica,sans-Serif" font-size="9.00">run</text>
</g>
</g>
</svg>
