<?xml version="1.0" encoding="UTF-8" standalone="no"?>
<!DOCTYPE svg PUBLIC "-//W3C//DTD SVG 1.1//EN"
 "http://www.w3.org/Graphics/SVG/1.1/DTD/svg11.dtd">
<!-- Generated by graphviz version 2.43.0 (0)
 -->
<!-- Title: classes Pages: 1 -->
<svg width="2802pt" height="344pt"
 viewBox="0.00 0.00 2801.50 344.00" xmlns="http://www.w3.org/2000/svg" xmlns:xlink="http://www.w3.org/1999/xlink">
<g id="graph0" class="graph" transform="scale(1 1) rotate(0) translate(4 340)">
<title>classes</title>
<polygon fill="white" stroke="transparent" points="-4,4 -4,-340 2797.5,-340 2797.5,4 -4,4"/>
<text text-anchor="middle" x="1396.75" y="-320.8" font-family="Helvetica,sans-Serif" font-size="14.00">equity&#45;algo&#45;engine — Strategy &amp; OrderGateway class diagram</text>
<!-- Strategy -->
<g id="node1" class="node">
<title>Strategy</title>
<polygon fill="#e7e0fb" stroke="#9aa7b8" points="663.5,-126.5 663.5,-216.5 891.5,-216.5 891.5,-126.5 663.5,-126.5"/>
<text text-anchor="middle" x="777.5" y="-204.5" font-family="Helvetica,sans-Serif" font-size="10.00">«abstract» Strategy</text>
<polyline fill="none" stroke="#9aa7b8" points="663.5,-197.5 891.5,-197.5 "/>
<text text-anchor="start" x="671.5" y="-185.5" font-family="Helvetica,sans-Serif" font-size="10.00">+ name : str</text>
<polyline fill="none" stroke="#9aa7b8" points="663.5,-178.5 891.5,-178.5 "/>
<text text-anchor="start" x="671.5" y="-166.5" font-family="Helvetica,sans-Serif" font-size="10.00">+ generate_signal(bar) : Signal? «abstract»</text>
<text text-anchor="start" x="671.5" y="-155.5" font-family="Helvetica,sans-Serif" font-size="10.00">+ risk_check(signal, pos) : Signal?</text>
<text text-anchor="start" x="671.5" y="-144.5" font-family="Helvetica,sans-Serif" font-size="10.00">+ on_bar(bar, pos=None) : Signal?</text>
<text text-anchor="start" x="671.5" y="-133.5" font-family="Helvetica,sans-Serif" font-size="10.00">+ reset()</text>
</g>
<!-- Bar -->
<g id="node18" class="node">
<title>Bar</title>
<polygon fill="#f5f6f8" stroke="#9aa7b8" points="480,-263.5 480,-312.5 645,-312.5 645,-263.5 480,-263.5"/>
<text text-anchor="middle" x="562.5" y="-300.5" font-family="Helvetica,sans-Serif" font-size="10.00">«dataclass» Bar</text>
<polyline fill="none" stroke="#9aa7b8" points="480,-293.5 645,-293.5 "/>
<text text-anchor="start" x="488" y="-281.5" font-family="Helvetica,sans-Serif" font-size="10.00">instrument_token, time,</text>
<text text-anchor="start" x="488" y="-270.5" font-family="Helvetica,sans-Serif" font-size="10.00">open, high, low, close, volume</text>
</g>
<!-- Strategy&#45;&gt;Bar -->
<g id="edge15" class="edge">
<title>Strategy&#45;&gt;Bar</title>
<path fill="none" stroke="#6b7686" stroke-dasharray="5,2" d="M694.68,-216.6C668.14,-230.74 639.49,-246 615.66,-258.69"/>
<polygon fill="#6b7686" stroke="#6b7686" points="606.78,-263.42 613.49,-254.75 611.19,-261.07 615.6,-258.72 615.6,-258.72 615.6,-258.72 611.19,-261.07 617.72,-262.69 606.78,-263.42 606.78,-263.42"/>
<text text-anchor="middle" x="680.5" y="-237.8" font-family="Helvetica,sans-Serif" font-size="9.00">consumes</text>
</g>
<!-- Signal -->
<g id="node19" class="node">
<title>Signal</title>
<polygon fill="#f5f6f8" stroke="#9aa7b8" points="663.5,-263.5 663.5,-312.5 891.5,-312.5 891.5,-263.5 663.5,-263.5"/>
<text text-anchor="middle" x="777.5" y="-300.5" font-family="Helvetica,sans-Serif" font-size="10.00">«dataclass» Signal</text>
<polyline fill="none" stroke="#9aa7b8" points="663.5,-293.5 891.5,-293.5 "/>
<text text-anchor="start" x="671.5" y="-281.5" font-family="Helvetica,sans-Serif" font-size="10.00">time, instrument_token, type (ENTRY/EXIT),</text>
<text text-anchor="start" x="671.5" y="-270.5" font-family="Helvetica,sans-Serif" font-size="10.00">side (BUY/SELL), price?, reason</text>
</g>
<!-- Strategy&#45;&gt;Signal -->
<g id="edge16" class="edge">
<title>Strategy&#45;&gt;Signal</title>
<path fill="none" stroke="#6b7686" stroke-dasharray="5,2" d="M777.5,-216.77C777.5,-228.91 777.5,-241.87 777.5,-253.32"/>
<polygon fill="#6b7686" stroke="#6b7686" points="777.5,-263.33 773,-253.33 777.5,-258.33 777.5,-253.33 777.5,-253.33 777.5,-253.33 777.5,-258.33 782,-253.33 777.5,-263.33 777.5,-263.33"/>
<text text-anchor="middle" x="790" y="-237.8" font-family="Helvetica,sans-Serif" font-size="9.00">emits</text>
</g>
<!-- Position -->
<g id="node20" class="node">
<title>Position</title>
<polygon fill="#f5f6f8" stroke="#9aa7b8" points="909.5,-263.5 909.5,-312.5 1135.5,-312.5 1135.5,-263.5 909.5,-263.5"/>
<text text-anchor="middle" x="1022.5" y="-300.5" font-family="Helvetica,sans-Serif" font-size="10.00">«dataclass» Position</text>
<polyline fill="none" stroke="#9aa7b8" points="909.5,-293.5 1135.5,-293.5 "/>
<text text-anchor="start" x="917.5" y="-281.5" font-family="Helvetica,sans-Serif" font-size="10.00">direction, quantity, entry_price, entry_time</text>
<text text-anchor="start" x="917.5" y="-270.5" font-family="Helvetica,sans-Serif" font-size="10.00">+ sign : int</text>
</g>
<!-- Strategy&#45;&gt;Position -->
<g id="edge17" class="edge">
<title>Strategy&#45;&gt;Position</title>
<path fill="none" stroke="#6b7686" stroke-dasharray="5,2" d="M871.87,-216.6C902.38,-230.86 935.35,-246.27 962.64,-259.02"/>
<polygon fill="#6b7686" stroke="#6b7686" points="972.04,-263.42 961.08,-263.26 967.51,-261.3 962.98,-259.19 962.98,-259.19 962.98,-259.19 967.51,-261.3 964.89,-255.11 972.04,-263.42 972.04,-263.42"/>
<text text-anchor="middle" x="953.5" y="-237.8" font-family="Helvetica,sans-Serif" font-size="9.00">risk_check</text>
</g>
<!-- ORB -->
<g id="node2" class="node">
<title>ORB</title>
<polygon fill="#eef2f7" stroke="#9aa7b8" points="431.5,-15.5 431.5,-64.5 649.5,-64.5 649.5,-15.5 431.5,-15.5"/>
<text text-anchor="middle" x="540.5" y="-52.5" font-family="Helvetica,sans-Serif" font-size="10.00">OpeningRangeBreakout</text>
<polyline fill="none" stroke="#9aa7b8" points="431.5,-45.5 649.5,-45.5 "/>
<text text-anchor="start" x="439.5" y="-33.5" font-family="Helvetica,sans-Serif" font-size="10.00">opening_range_minutes, target_multiple,</text>
<text text-anchor="start" x="439.5" y="-22.5" font-family="Helvetica,sans-Serif" font-size="10.00">session_start, square_off</text>
</g>
<!-- ORB&#45;&gt;Strategy -->
<g id="edge1" class="edge">
<title>ORB&#45;&gt;Strategy</title>
<path fill="none" stroke="#6b7686" d="M583.69,-64.6C612.74,-80.47 652.1,-101.98 687.76,-121.46"/>
<polygon fill="none" stroke="#6b7686" points="686.28,-124.64 696.73,-126.37 689.64,-118.5 686.28,-124.64"/>
</g>
<!-- Momentum -->
<g id="node3" class="node">
<title>Momentum</title>
<polygon fill="#eef2f7" stroke="#9aa7b8" points="668,-21 668,-59 887,-59 887,-21 668,-21"/>
<text text-anchor="middle" x="777.5" y="-47" font-family="Helvetica,sans-Serif" font-size="10.00">Momentum</text>
<polyline fill="none" stroke="#9aa7b8" points="668,-40 887,-40 "/>
<text text-anchor="start" x="676" y="-28" font-family="Helvetica,sans-Serif" font-size="10.00">lookback, entry_threshold, exit_threshold</text>
</g>
<!-- Momentum&#45;&gt;Strategy -->
<g id="edge2" class="edge">
<title>Momentum&#45;&gt;Strategy</title>
<path fill="none" stroke="#6b7686" d="M777.5,-59.01C777.5,-73.87 777.5,-95.77 777.5,-116.23"/>
<polygon fill="none" stroke="#6b7686" points="774,-116.44 777.5,-126.44 781,-116.44 774,-116.44"/>
</g>
<!-- MAX -->
<g id="node4" class="node">
<title>MAX</title>
<polygon fill="#eef2f7" stroke="#9aa7b8" points="905,-21 905,-59 1046,-59 1046,-21 905,-21"/>
<text text-anchor="middle" x="975.5" y="-47" font-family="Helvetica,sans-Serif" font-size="10.00">MovingAverageCrossover</text>
<polyline fill="none" stroke="#9aa7b8" points="905,-40 1046,-40 "/>
<text text-anchor="start" x="913" y="-28" font-family="Helvetica,sans-Serif" font-size="10.00">fast, slow</text>
</g>
<!-- MAX&#45;&gt;Strategy -->
<g id="edge3" class="edge">
<title>MAX&#45;&gt;Strategy</title>
<path fill="none" stroke="#6b7686" d="M947.97,-59.01C923.58,-74.96 886.81,-99.01 853.65,-120.69"/>
<polygon fill="none" stroke="#6b7686" points="851.32,-118.04 844.86,-126.44 855.15,-123.9 851.32,-118.04"/>
</g>
<!-- RSI2 -->
<g id="node5" class="node">
<title>RSI2</title>
<polygon fill="#eef2f7" stroke="#9aa7b8" points="0,-21 0,-59 173,-59 173,-21 0,-21"/>
<text text-anchor="middle" x="86.5" y="-47" font-family="Helvetica,sans-Serif" font-size="10.00">RSI2</text>
<polyline fill="none" stroke="#9aa7b8" points="0,-40 173,-40 "/>
<text text-anchor="start" x="8" y="-28" font-family="Helvetica,sans-Serif" font-size="10.00">period, lower, upper, trend_filter</text>
</g>
<!-- RSI2&#45;&gt;Strategy -->
<g id="edge4" class="edge">
<title>RSI2&#45;&gt;Strategy</title>
<path fill="none" stroke="#6b7686" d="M124.6,-59.04C141.68,-66.49 162.27,-74.63 181.5,-80 341.19,-124.6 531.48,-148.66 653.34,-160.52"/>
<polygon fill="none" stroke="#6b7686" points="653.16,-164.02 663.45,-161.49 653.83,-157.05 653.16,-164.02"/>
</g>
<!-- VWAP -->
<g id="node6" class="node">
<title>VWAP</title>
<polygon fill="#eef2f7" stroke="#9aa7b8" points="191,-21 191,-59 294,-59 294,-21 191,-21"/>
<text text-anchor="middle" x="242.5" y="-47" font-family="Helvetica,sans-Serif" font-size="10.00">VWAPReversion</text>
<polyline fill="none" stroke="#9aa7b8" points="191,-40 294,-40 "/>
<text text-anchor="start" x="199" y="-28" font-family="Helvetica,sans-Serif" font-size="10.00">band, allow_short</text>
</g>
<!-- VWAP&#45;&gt;Strategy -->
<g id="edge5" class="edge">
<title>VWAP&#45;&gt;Strategy</title>
<path fill="none" stroke="#6b7686" d="M265.56,-59.01C276.26,-66.55 289.47,-74.76 302.5,-80 416.39,-125.8 555.15,-148.8 653.21,-160.11"/>
<polygon fill="none" stroke="#6b7686" points="652.84,-163.59 663.17,-161.24 653.63,-156.64 652.84,-163.59"/>
</g>
<!-- ST -->
<g id="node7" class="node">
<title>ST</title>
<polygon fill="#eef2f7" stroke="#9aa7b8" points="312,-21 312,-59 413,-59 413,-21 312,-21"/>
<text text-anchor="middle" x="362.5" y="-47" font-family="Helvetica,sans-Serif" font-size="10.00">Supertrend</text>
<polyline fill="none" stroke="#9aa7b8" points="312,-40 413,-40 "/>
<text text-anchor="start" x="320" y="-28" font-family="Helvetica,sans-Serif" font-size="10.00">period, multiplier</text>
</g>
<!-- ST&#45;&gt;Strategy -->
<g id="edge6" class="edge">
<title>ST&#45;&gt;Strategy</title>
<path fill="none" stroke="#6b7686" d="M386.28,-59.03C396.91,-66.4 409.87,-74.47 422.5,-80 496.07,-112.24 583.45,-134.69 653.1,-149.17"/>
<polygon fill="none" stroke="#6b7686" points="652.75,-152.67 663.25,-151.25 654.16,-145.81 652.75,-152.67"/>
</g>
<!-- Ensemble -->
<g id="node8" class="node">
<title>Ensemble</title>
<polygon fill="#e7e0fb" stroke="#9aa7b8" points="1064.5,-6 1064.5,-74 1234.5,-74 1234.5,-6 1064.5,-6"/>
<text text-anchor="middle" x="1149.5" y="-62" font-family="Helvetica,sans-Serif" font-size="10.00">EnsembleStrategy</text>
<polyline fill="none" stroke="#9aa7b8" points="1064.5,-55 1234.5,-55 "/>
<text text-anchor="start" x="1072.5" y="-43" font-family="Helvetica,sans-Serif" font-size="10.00">members : [Member], detector,</text>
<text text-anchor="start" x="1072.5" y="-32" font-family="Helvetica,sans-Serif" font-size="10.00">entry_threshold, exit_threshold</text>
<polyline fill="none" stroke="#9aa7b8" points="1064.5,-25 1234.5,-25 "/>
<text text-anchor="start" x="1072.5" y="-13" font-family="Helvetica,sans-Serif" font-size="10.00">weighted vote, regime&#45;gated</text>
</g>
<!-- Ensemble&#45;&gt;Strategy -->
<g id="edge7" class="edge">
<title>Ensemble&#45;&gt;Strategy</title>
<path fill="none" stroke="#6b7686" d="M1070.1,-74.1C1064.84,-76.14 1059.6,-78.12 1054.5,-80 1004.86,-98.27 949.57,-116.71 901.52,-132.14"/>
<polygon fill="none" stroke="#6b7686" points="900.15,-128.9 891.7,-135.28 902.29,-135.56 900.15,-128.9"/>
</g>
<!-- Regime -->
<g id="node13" class="node">
<title>Regime</title>
<polygon fill="#eef0f3" stroke="#9aa7b8" points="1011,-143 1011,-200 1208,-200 1208,-143 1011,-143"/>
<text text-anchor="middle" x="1109.5" y="-188" font-family="Helvetica,sans-Serif" font-size="10.00">RegimeDetector</text>
<polyline fill="none" stroke="#9aa7b8" points="1011,-181 1208,-181 "/>
<text text-anchor="start" x="1019" y="-169" font-family="Helvetica,sans-Serif" font-size="10.00">adx_period, adx_threshold</text>
<polyline fill="none" stroke="#9aa7b8" points="1011,-162 1208,-162 "/>
<text text-anchor="start" x="1019" y="-150" font-family="Helvetica,sans-Serif" font-size="10.00">+ update(bar) : Regime (Wilder ADX)</text>
</g>
<!-- Ensemble&#45;&gt;Regime -->
<g id="edge12" class="edge">
<title>Ensemble&#45;&gt;Regime</title>
<path fill="none" stroke="#6b7686" stroke-dasharray="5,2" d="M1139.3,-74.01C1133.73,-92.05 1126.81,-114.46 1121.04,-133.14"/>
<polygon fill="#6b7686" stroke="#6b7686" points="1118.06,-142.8 1116.71,-131.92 1119.53,-138.02 1121.01,-133.25 1121.01,-133.25 1121.01,-133.25 1119.53,-138.02 1125.31,-134.57 1118.06,-142.8 1118.06,-142.8"/>
<text text-anchor="middle" x="1167" y="-100.8" font-family="Helvetica,sans-Serif" font-size="9.00">gates members</text>
</g>
<!-- MLStrat -->
<g id="node9" class="node">
<title>MLStrat</title>
<polygon fill="#ede7fc" stroke="#9aa7b8" points="1253,-6 1253,-74 1422,-74 1422,-6 1253,-6"/>
<text text-anchor="middle" x="1337.5" y="-62" font-family="Helvetica,sans-Serif" font-size="10.00">MLStrategy</text>
<polyline fill="none" stroke="#9aa7b8" points="1253,-55 1422,-55 "/>
<text text-anchor="start" x="1261" y="-43" font-family="Helvetica,sans-Serif" font-size="10.00">scorer : Scorer, extractor,</text>
<text text-anchor="start" x="1261" y="-32" font-family="Helvetica,sans-Serif" font-size="10.00">entry_threshold, exit_threshold</text>
<polyline fill="none" stroke="#9aa7b8" points="1253,-25 1422,-25 "/>
<text text-anchor="start" x="1261" y="-13" font-family="Helvetica,sans-Serif" font-size="10.00">trades off P(up&#45;move)</text>
</g>
<!-- MLStrat&#45;&gt;Strategy -->
<g id="edge8" class="edge">
<title>MLStrat&#45;&gt;Strategy</title>
<path fill="none" stroke="#6b7686" d="M1262.39,-74.02C1256.06,-76.23 1249.71,-78.27 1243.5,-80 1192.4,-94.27 1177.71,-88.59 1125.5,-98 1050.98,-111.44 967.95,-128.65 901.68,-142.93"/>
<polygon fill="none" stroke="#6b7686" points="900.65,-139.57 891.61,-145.1 902.13,-146.41 900.65,-139.57"/>
</g>
<!-- Scorer -->
<g id="node10" class="node">
<title>Scorer</title>
<polygon fill="#fffaf0" stroke="#9aa7b8" points="1449,-152.5 1449,-190.5 1646,-190.5 1646,-152.5 1449,-152.5"/>
<text text-anchor="middle" x="1547.5" y="-178.5" font-family="Helvetica,sans-Serif" font-size="10.00">«protocol» Scorer</text>
<polyline fill="none" stroke="#9aa7b8" points="1449,-171.5 1646,-171.5 "/>
<text text-anchor="start" x="1457" y="-159.5" font-family="Helvetica,sans-Serif" font-size="10.00">+ predict_proba_one(features) : float</text>
</g>
<!-- MLStrat&#45;&gt;Scorer -->
<g id="edge10" class="edge">
<title>MLStrat&#45;&gt;Scorer</title>
<path fill="none" stroke="#6b7686" stroke-dasharray="5,2" d="M1391.04,-74.01C1427.91,-96.75 1476.04,-126.43 1509.13,-146.84"/>
<polygon fill="#6b7686" stroke="#6b7686" points="1518.04,-152.33 1507.17,-150.92 1513.79,-149.71 1509.53,-147.08 1509.53,-147.08 1509.53,-147.08 1513.79,-149.71 1511.89,-143.25 1518.04,-152.33 1518.04,-152.33"/>
<text text-anchor="middle" x="1466.5" y="-100.8" font-family="Helvetica,sans-Serif" font-size="9.00">asks P(up)</text>
</g>
<!-- Features -->
<g id="node12" class="node">
<title>Features</title>
<polygon fill="#ede7fc" stroke="#9aa7b8" points="1226.5,-137.5 1226.5,-205.5 1430.5,-205.5 1430.5,-137.5 1226.5,-137.5"/>
<text text-anchor="middle" x="1328.5" y="-193.5" font-family="Helvetica,sans-Serif" font-size="10.00">FeatureExtractor</text>
<polyline fill="none" stroke="#9aa7b8" points="1226.5,-186.5 1430.5,-186.5 "/>
<text text-anchor="start" x="1234.5" y="-174.5" font-family="Helvetica,sans-Serif" font-size="10.00">rsi/adx/vol/sma periods</text>
<polyline fill="none" stroke="#9aa7b8" points="1226.5,-167.5 1430.5,-167.5 "/>
<text text-anchor="start" x="1234.5" y="-155.5" font-family="Helvetica,sans-Serif" font-size="10.00">+ update(bar) : dict? (warm&#45;up aware)</text>
<text text-anchor="start" x="1234.5" y="-144.5" font-family="Helvetica,sans-Serif" font-size="10.00">+ vector(features) : [float]</text>
</g>
<!-- MLStrat&#45;&gt;Features -->
<g id="edge11" class="edge">
<title>MLStrat&#45;&gt;Features</title>
<path fill="none" stroke="#6b7686" stroke-dasharray="5,2" d="M1335.21,-74.01C1334.09,-90.02 1332.74,-109.47 1331.54,-126.71"/>
<polygon fill="#6b7686" stroke="#6b7686" points="1330.82,-137.1 1327.03,-126.81 1331.17,-132.11 1331.51,-127.12 1331.51,-127.12 1331.51,-127.12 1331.17,-132.11 1336,-127.43 1330.82,-137.1 1330.82,-137.1"/>
<text text-anchor="middle" x="1365.5" y="-100.8" font-family="Helvetica,sans-Serif" font-size="9.00">per&#45;bar vector</text>
</g>
<!-- LogReg -->
<g id="node11" class="node">
<title>LogReg</title>
<polygon fill="#ede7fc" stroke="#9aa7b8" points="1449,-0.5 1449,-79.5 1646,-79.5 1646,-0.5 1449,-0.5"/>
<text text-anchor="middle" x="1547.5" y="-67.5" font-family="Helvetica,sans-Serif" font-size="10.00">LogisticRegression</text>
<polyline fill="none" stroke="#9aa7b8" points="1449,-60.5 1646,-60.5 "/>
<text text-anchor="start" x="1457" y="-48.5" font-family="Helvetica,sans-Serif" font-size="10.00">weights, bias, learning_rate, l2, seed</text>
<polyline fill="none" stroke="#9aa7b8" points="1449,-41.5 1646,-41.5 "/>
<text text-anchor="start" x="1457" y="-29.5" font-family="Helvetica,sans-Serif" font-size="10.00">+ fit(x, y) + predict_proba(x)</text>
<text text-anchor="start" x="1457" y="-18.5" font-family="Helvetica,sans-Serif" font-size="10.00">+ predict_proba_one(features) : float</text>
<text text-anchor="start" x="1457" y="-7.5" font-family="Helvetica,sans-Serif" font-size="10.00">+ to_dict() / from_dict()</text>
</g>
<!-- LogReg&#45;&gt;Scorer -->
<g id="edge9" class="edge">
<title>LogReg&#45;&gt;Scorer</title>
<path fill="none" stroke="#6b7686" stroke-dasharray="5,2" d="M1547.5,-79.5C1547.5,-99.7 1547.5,-123.99 1547.5,-142.39"/>
<polygon fill="none" stroke="#6b7686" points="1544,-142.47 1547.5,-152.47 1551,-142.47 1544,-142.47"/>
<text text-anchor="middle" x="1574.5" y="-100.8" font-family="Helvetica,sans-Serif" font-size="9.00">implements</text>
</g>
<!-- XS -->
<g id="node14" class="node">
<title>XS</title>
<polygon fill="#f7f5fe" stroke="#6b46c1" points="2787.5,-60.5 2579.5,-60.5 2579.5,-19.5 2793.5,-19.5 2793.5,-54.5 2787.5,-60.5"/>
<polyline fill="none" stroke="#6b46c1" points="2787.5,-60.5 2787.5,-54.5 "/>
<polyline fill="none" stroke="#6b46c1" points="2793.5,-54.5 2787.5,-54.5 "/>
<text text-anchor="start" x="2587.5" y="-48.5" font-family="Helvetica,sans-Serif" font-size="10.00">cross_sectional (module, not a Strategy)</text>
<text text-anchor="start" x="2587.5" y="-37.5" font-family="Helvetica,sans-Serif" font-size="10.00">momentum_scores() · select_top()</text>
<text text-anchor="start" x="2587.5" y="-26.5" font-family="Helvetica,sans-Serif" font-size="10.00">→ used by the rotation backtester</text>
</g>
<!-- OrderGateway -->
<g id="node15" class="node">
<title>OrderGateway</title>
<polygon fill="#fffaf0" stroke="#9aa7b8" points="2106.5,-152.5 2106.5,-190.5 2362.5,-190.5 2362.5,-152.5 2106.5,-152.5"/>
<text text-anchor="middle" x="2234.5" y="-178.5" font-family="Helvetica,sans-Serif" font-size="10.00">«abstract» OrderGateway</text>
<polyline fill="none" stroke="#9aa7b8" points="2106.5,-171.5 2362.5,-171.5 "/>
<text text-anchor="start" x="2114.5" y="-159.5" font-family="Helvetica,sans-Serif" font-size="10.00">+ place_order(order, now=None) : Fill «abstract»</text>
</g>
<!-- Order -->
<g id="node21" class="node">
<title>Order</title>
<polygon fill="#f5f6f8" stroke="#9aa7b8" points="2116.5,-263.5 2116.5,-312.5 2352.5,-312.5 2352.5,-263.5 2116.5,-263.5"/>
<text text-anchor="middle" x="2234.5" y="-300.5" font-family="Helvetica,sans-Serif" font-size="10.00">«dataclass» Order</text>
<polyline fill="none" stroke="#9aa7b8" points="2116.5,-293.5 2352.5,-293.5 "/>
<text text-anchor="start" x="2124.5" y="-281.5" font-family="Helvetica,sans-Serif" font-size="10.00">instrument_token, side, quantity, order_type,</text>
<text text-anchor="start" x="2124.5" y="-270.5" font-family="Helvetica,sans-Serif" font-size="10.00">reference_price?, product, tag, reason</text>
</g>
<!-- OrderGateway&#45;&gt;Order -->
<g id="edge18" class="edge">
<title>OrderGateway&#45;&gt;Order</title>
<path fill="none" stroke="#6b7686" stroke-dasharray="5,2" d="M2234.5,-190.64C2234.5,-207.4 2234.5,-232.71 2234.5,-253.19"/>
<polygon fill="#6b7686" stroke="#6b7686" points="2234.5,-263.38 2230,-253.38 2234.5,-258.38 2234.5,-253.38 2234.5,-253.38 2234.5,-253.38 2234.5,-258.38 2239,-253.38 2234.5,-263.38 2234.5,-263.38"/>
<text text-anchor="middle" x="2247" y="-237.8" font-family="Helvetica,sans-Serif" font-size="9.00">takes</text>
</g>
<!-- Fill -->
<g id="node22" class="node">
<title>Fill</title>
<polygon fill="#f5f6f8" stroke="#9aa7b8" points="1871.5,-263.5 1871.5,-312.5 2001.5,-312.5 2001.5,-263.5 1871.5,-263.5"/>
<text text-anchor="middle" x="1936.5" y="-300.5" font-family="Helvetica,sans-Serif" font-size="10.00">«dataclass» Fill</text>
<polyline fill="none" stroke="#9aa7b8" points="1871.5,-293.5 2001.5,-293.5 "/>
<text text-anchor="start" x="1879.5" y="-281.5" font-family="Helvetica,sans-Serif" font-size="10.00">order, status, fill_price,</text>
<text text-anchor="start" x="1879.5" y="-270.5" font-family="Helvetica,sans-Serif" font-size="10.00">quantity, time, charges</text>
</g>
<!-- OrderGateway&#45;&gt;Fill -->
<g id="edge19" class="edge">
<title>OrderGateway&#45;&gt;Fill</title>
<path fill="none" stroke="#6b7686" stroke-dasharray="5,2" d="M2187.61,-190.52C2139.19,-209.12 2063.05,-238.38 2007.3,-259.8"/>
<polygon fill="#6b7686" stroke="#6b7686" points="1997.83,-263.43 2005.55,-255.65 2002.5,-261.64 2007.17,-259.85 2007.17,-259.85 2007.17,-259.85 2002.5,-261.64 2008.78,-264.05 1997.83,-263.43 1997.83,-263.43"/>
<text text-anchor="middle" x="2085.5" y="-237.8" font-family="Helvetica,sans-Serif" font-size="9.00">returns</text>
</g>
<!-- PaperGateway -->
<g id="node16" class="node">
<title>PaperGateway</title>
<polygon fill="#d9f2e3" stroke="#9aa7b8" points="2089,-11.5 2089,-68.5 2304,-68.5 2304,-11.5 2089,-11.5"/>
<text text-anchor="middle" x="2196.5" y="-56.5" font-family="Helvetica,sans-Serif" font-size="10.00">PaperGateway</text>
<polyline fill="none" stroke="#9aa7b8" points="2089,-49.5 2304,-49.5 "/>
<text text-anchor="start" x="2097" y="-37.5" font-family="Helvetica,sans-Serif" font-size="10.00">slippage_bps, cost_config</text>
<polyline fill="none" stroke="#9aa7b8" points="2089,-30.5 2304,-30.5 "/>
<text text-anchor="start" x="2097" y="-18.5" font-family="Helvetica,sans-Serif" font-size="10.00">+ place_order() : Fill (simulated + costs)</text>
</g>
<!-- PaperGateway&#45;&gt;OrderGateway -->
<g id="edge13" class="edge">
<title>PaperGateway&#45;&gt;OrderGateway</title>
<path fill="none" stroke="#6b7686" d="M2204.65,-68.78C2211.05,-90.59 2219.92,-120.83 2226.33,-142.66"/>
<polygon fill="none" stroke="#6b7686" points="2222.99,-143.72 2229.17,-152.33 2229.71,-141.75 2222.99,-143.72"/>
</g>
<!-- LiveGateway -->
<g id="node17" class="node">
<title>LiveGateway</title>
<polygon fill="#fde2df" stroke="#b0392f" points="2322,-21 2322,-59 2561,-59 2561,-21 2322,-21"/>
<text text-anchor="middle" x="2441.5" y="-47" font-family="Helvetica,sans-Serif" font-size="10.00" fill="#b0392f">LiveGateway (disabled)</text>
<polyline fill="none" stroke="#b0392f" points="2322,-40 2561,-40 "/>
<text text-anchor="start" x="2330" y="-28" font-family="Helvetica,sans-Serif" font-size="10.00" fill="#b0392f">+ place_order() : raises NotImplementedError</text>
</g>
<!-- LiveGateway&#45;&gt;OrderGateway -->
<g id="edge14" class="edge">
<title>LiveGateway&#45;&gt;OrderGateway</title>
<path fill="none" stroke="#6b7686" d="M2412.72,-59.01C2375.98,-81.99 2312.34,-121.8 2271.88,-147.11"/>
<polygon fill="none" stroke="#6b7686" points="2269.99,-144.17 2263.37,-152.44 2273.7,-150.1 2269.99,-144.17"/>
</g>
<!-- Engine -->
<g id="node23" class="node">
<title>Engine</title>
<polygon fill="#cdeed9" stroke="#9aa7b8" points="1813.5,-15.5 1813.5,-64.5 2033.5,-64.5 2033.5,-15.5 1813.5,-15.5"/>
<text text-anchor="middle" x="1923.5" y="-52.5" font-family="Helvetica,sans-Serif" font-size="10.00">PaperTradingEngine / MultiStrategyEngine</text>
<polyline fill="none" stroke="#9aa7b8" points="1813.5,-45.5 2033.5,-45.5 "/>
<text text-anchor="start" x="1821.5" y="-33.5" font-family="Helvetica,sans-Serif" font-size="10.00">orchestrates bar → signal → order</text>
<text text-anchor="start" x="1821.5" y="-22.5" font-family="Helvetica,sans-Serif" font-size="10.00">via _OrderRouter</text>
</g>
<!-- Engine&#45;&gt;Strategy -->
<g id="edge20" class="edge">
<title>Engine&#45;&gt;Strategy</title>
<path fill="none" stroke="#6b7686" stroke-dasharray="5,2" d="M1833.06,-64.54C1769.81,-79.89 1683.09,-98.74 1605.5,-108 1338.83,-139.81 1268.35,-95.73 1001.5,-126 968.92,-129.7 934.02,-135.65 901.69,-142.01"/>
<polygon fill="#6b7686" stroke="#6b7686" points="891.74,-144 900.67,-137.63 896.65,-143.02 901.55,-142.04 901.55,-142.04 901.55,-142.04 896.65,-143.02 902.43,-146.45 891.74,-144 891.74,-144"/>
<text text-anchor="middle" x="1683" y="-100.8" font-family="Helvetica,sans-Serif" font-size="9.00">on_bar</text>
</g>
<!-- Engine&#45;&gt;OrderGateway -->
<g id="edge21" class="edge">
<title>Engine&#45;&gt;OrderGateway</title>
<path fill="none" stroke="#6b7686" stroke-dasharray="5,2" d="M1980.18,-64.6C2037.65,-88.53 2125.87,-125.27 2181.85,-148.58"/>
<polygon fill="#6b7686" stroke="#6b7686" points="2191.23,-152.48 2180.27,-152.79 2186.61,-150.56 2182,-148.64 2182,-148.64 2182,-148.64 2186.61,-150.56 2183.73,-144.48 2191.23,-152.48 2191.23,-152.48"/>
<text text-anchor="middle" x="2106" y="-100.8" font-family="Helvetica,sans-Serif" font-size="9.00">place_order</text>
</g>
<!-- Portfolio -->
<g id="node24" class="node">
<title>Portfolio</title>
<polygon fill="#eef0f3" stroke="#9aa7b8" points="1664.5,-141.5 1664.5,-201.5 1862.5,-201.5 1862.5,-141.5 1664.5,-141.5"/>
<text text-anchor="middle" x="1763.5" y="-189.5" font-family="Helvetica,sans-Serif" font-size="10.00">Portfolio</text>
<polyline fill="none" stroke="#9aa7b8" points="1664.5,-182.5 1862.5,-182.5 "/>
<text text-anchor="start" x="1672.5" y="-170.5" font-family="Helvetica,sans-Serif" font-size="10.00">positions, realized_pnl, total_charges</text>
<text text-anchor="start" x="1672.5" y="-159.5" font-family="Helvetica,sans-Serif" font-size="10.00">+ apply_fill(fill)</text>
<text text-anchor="start" x="1672.5" y="-148.5" font-family="Helvetica,sans-Serif" font-size="10.00">+ day_pnl(prices)</text>
</g>
<!-- Engine&#45;&gt;Portfolio -->
<g id="edge23" class="edge">
<title>Engine&#45;&gt;Portfolio</title>
<path fill="none" stroke="#6b7686" stroke-dasharray="5,2" d="M1894.15,-64.75C1869.85,-84.42 1834.95,-112.67 1807.33,-135.02"/>
<polygon fill="#6b7686" stroke="#6b7686" points="1799.38,-141.46 1804.32,-131.67 1803.27,-138.31 1807.16,-135.17 1807.16,-135.17 1807.16,-135.17 1803.27,-138.31 1809.99,-138.66 1799.38,-141.46 1799.38,-141.46"/>
</g>
<!-- Risk -->
<g id="node25" class="node">
<title>Risk</title>
<polygon fill="#eef0f3" stroke="#9aa7b8" points="1881,-147 1881,-196 2088,-196 2088,-147 1881,-147"/>
<text text-anchor="middle" x="1984.5" y="-184" font-family="Helvetica,sans-Serif" font-size="10.00">RiskManager</text>
<polyline fill="none" stroke="#9aa7b8" points="1881,-177 2088,-177 "/>
<text text-anchor="start" x="1889" y="-165" font-family="Helvetica,sans-Serif" font-size="10.00">+ can_enter(...) + should_square_off(t)</text>
<text text-anchor="start" x="1889" y="-154" font-family="Helvetica,sans-Serif" font-size="10.00">+ update_pnl(pnl) (latching kill&#45;switch)</text>
</g>
<!-- Engine&#45;&gt;Risk -->
<g id="edge22" class="edge">
<title>Engine&#45;&gt;Risk</title>
<path fill="none" stroke="#6b7686" stroke-dasharray="5,2" d="M1934.69,-64.75C1944.32,-85.2 1958.31,-114.91 1969.02,-137.63"/>
<polygon fill="#6b7686" stroke="#6b7686" points="1973.38,-146.9 1965.05,-139.77 1971.25,-142.37 1969.12,-137.85 1969.12,-137.85 1969.12,-137.85 1971.25,-142.37 1973.19,-135.93 1973.38,-146.9 1973.38,-146.9"/>
</g>
<!-- Portfolio&#45;&gt;Fill -->
<g id="edge24" class="edge">
<title>Portfolio&#45;&gt;Fill</title>
<path fill="none" stroke="#6b7686" stroke-dasharray="5,2" d="M1807.6,-201.69C1833.6,-218.89 1866.37,-240.59 1892.37,-257.79"/>
<polygon fill="#6b7686" stroke="#6b7686" points="1900.91,-263.44 1890.09,-261.68 1896.74,-260.68 1892.57,-257.92 1892.57,-257.92 1892.57,-257.92 1896.74,-260.68 1895.05,-254.17 1900.91,-263.44 1900.91,-263.44"/>
<text text-anchor="middle" x="1884" y="-237.8" font-family="Helvetica,sans-Serif" font-size="9.00">apply</text>
</g>
</g>
</svg>
