<?xml version="1.0" encoding="UTF-8" standalone="no"?>
<!DOCTYPE svg PUBLIC "-//W3C//DTD SVG 1.1//EN"
 "http://www.w3.org/Graphics/SVG/1.1/DTD/svg11.dtd">
<!-- Generated by graphviz version 2.43.0 (0)
 -->
<!-- Title: classes Pages: 1 -->
<svg width="2022pt" height="322pt"
 viewBox="0.00 0.00 2022.00 322.00" xmlns="http://www.w3.org/2000/svg" xmlns:xlink="http://www.w3.org/1999/xlink">
<g id="graph0" class="graph" transform="scale(1 1) rotate(0) translate(4 318)">
<title>classes</title>
<polygon fill="white" stroke="transparent" points="-4,4 -4,-318 2018,-318 2018,4 -4,4"/>
<text text-anchor="middle" x="1007" y="-298.8" font-family="Helvetica,sans-Serif" font-size="14.00">equity&#45;algo&#45;engine — Strategy &amp; OrderGateway class diagram</text>
<!-- Strategy -->
<g id="node1" class="node">
<title>Strategy</title>
<polygon fill="#e7e0fb" stroke="#9aa7b8" points="605,-104.5 605,-194.5 833,-194.5 833,-104.5 605,-104.5"/>
<text text-anchor="middle" x="719" y="-182.5" font-family="Helvetica,sans-Serif" font-size="10.00">«abstract» Strategy</text>
<polyline fill="none" stroke="#9aa7b8" points="605,-175.5 833,-175.5 "/>
<text text-anchor="start" x="613" y="-163.5" font-family="Helvetica,sans-Serif" font-size="10.00">+ name : str</text>
<polyline fill="none" stroke="#9aa7b8" points="605,-156.5 833,-156.5 "/>
<text text-anchor="start" x="613" y="-144.5" font-family="Helvetica,sans-Serif" font-size="10.00">+ generate_signal(bar) : Signal? «abstract»</text>
<text text-anchor="start" x="613" y="-133.5" font-family="Helvetica,sans-Serif" font-size="10.00">+ risk_check(signal, pos) : Signal?</text>
<text text-anchor="start" x="613" y="-122.5" font-family="Helvetica,sans-Serif" font-size="10.00">+ on_bar(bar, pos=None) : Signal?</text>
<text text-anchor="start" x="613" y="-111.5" font-family="Helvetica,sans-Serif" font-size="10.00">+ reset()</text>
</g>
<!-- Bar -->
<g id="node12" class="node">
<title>Bar</title>
<polygon fill="#f5f6f8" stroke="#9aa7b8" points="421.5,-241.5 421.5,-290.5 586.5,-290.5 586.5,-241.5 421.5,-241.5"/>
<text text-anchor="middle" x="504" y="-278.5" font-family="Helvetica,sans-Serif" font-size="10.00">«dataclass» Bar</text>
<polyline fill="none" stroke="#9aa7b8" points="421.5,-271.5 586.5,-271.5 "/>
<text text-anchor="start" x="429.5" y="-259.5" font-family="Helvetica,sans-Serif" font-size="10.00">instrument_token, time,</text>
<text text-anchor="start" x="429.5" y="-248.5" font-family="Helvetica,sans-Serif" font-size="10.00">open, high, low, close, volume</text>
</g>
<!-- Strategy&#45;&gt;Bar -->
<g id="edge9" class="edge">
<title>Strategy&#45;&gt;Bar</title>
<path fill="none" stroke="#6b7686" stroke-dasharray="5,2" d="M636.18,-194.6C609.64,-208.74 580.99,-224 557.16,-236.69"/>
<polygon fill="#6b7686" stroke="#6b7686" points="548.28,-241.42 554.99,-232.75 552.69,-239.07 557.1,-236.72 557.1,-236.72 557.1,-236.72 552.69,-239.07 559.22,-240.69 548.28,-241.42 548.28,-241.42"/>
<text text-anchor="middle" x="622" y="-215.8" font-family="Helvetica,sans-Serif" font-size="9.00">consumes</text>
</g>
<!-- Signal -->
<g id="node13" class="node">
<title>Signal</title>
<polygon fill="#f5f6f8" stroke="#9aa7b8" points="605,-241.5 605,-290.5 833,-290.5 833,-241.5 605,-241.5"/>
<text text-anchor="middle" x="719" y="-278.5" font-family="Helvetica,sans-Serif" font-size="10.00">«dataclass» Signal</text>
<polyline fill="none" stroke="#9aa7b8" points="605,-271.5 833,-271.5 "/>
<text text-anchor="start" x="613" y="-259.5" font-family="Helvetica,sans-Serif" font-size="10.00">time, instrument_token, type (ENTRY/EXIT),</text>
<text text-anchor="start" x="613" y="-248.5" font-family="Helvetica,sans-Serif" font-size="10.00">side (BUY/SELL), price?, reason</text>
</g>
<!-- Strategy&#45;&gt;Signal -->
<g id="edge10" class="edge">
<title>Strategy&#45;&gt;Signal</title>
<path fill="none" stroke="#6b7686" stroke-dasharray="5,2" d="M719,-194.77C719,-206.91 719,-219.87 719,-231.32"/>
<polygon fill="#6b7686" stroke="#6b7686" points="719,-241.33 714.5,-231.33 719,-236.33 719,-231.33 719,-231.33 719,-231.33 719,-236.33 723.5,-231.33 719,-241.33 719,-241.33"/>
<text text-anchor="middle" x="731.5" y="-215.8" font-family="Helvetica,sans-Serif" font-size="9.00">emits</text>
</g>
<!-- Position -->
<g id="node14" class="node">
<title>Position</title>
<polygon fill="#f5f6f8" stroke="#9aa7b8" points="851,-241.5 851,-290.5 1077,-290.5 1077,-241.5 851,-241.5"/>
<text text-anchor="middle" x="964" y="-278.5" font-family="Helvetica,sans-Serif" font-size="10.00">«dataclass» Position</text>
<polyline fill="none" stroke="#9aa7b8" points="851,-271.5 1077,-271.5 "/>
<text text-anchor="start" x="859" y="-259.5" font-family="Helvetica,sans-Serif" font-size="10.00">direction, quantity, entry_price, entry_time</text>
<text text-anchor="start" x="859" y="-248.5" font-family="Helvetica,sans-Serif" font-size="10.00">+ sign : int</text>
</g>
<!-- Strategy&#45;&gt;Position -->
<g id="edge11" class="edge">
<title>Strategy&#45;&gt;Position</title>
<path fill="none" stroke="#6b7686" stroke-dasharray="5,2" d="M813.37,-194.6C843.88,-208.86 876.85,-224.27 904.14,-237.02"/>
<polygon fill="#6b7686" stroke="#6b7686" points="913.54,-241.42 902.58,-241.26 909.01,-239.3 904.48,-237.19 904.48,-237.19 904.48,-237.19 909.01,-239.3 906.39,-233.11 913.54,-241.42 913.54,-241.42"/>
<text text-anchor="middle" x="895" y="-215.8" font-family="Helvetica,sans-Serif" font-size="9.00">risk_check</text>
</g>
<!-- ORB -->
<g id="node2" class="node">
<title>ORB</title>
<polygon fill="#eef2f7" stroke="#9aa7b8" points="0,-4.5 0,-53.5 218,-53.5 218,-4.5 0,-4.5"/>
<text text-anchor="middle" x="109" y="-41.5" font-family="Helvetica,sans-Serif" font-size="10.00">OpeningRangeBreakout</text>
<polyline fill="none" stroke="#9aa7b8" points="0,-34.5 218,-34.5 "/>
<text text-anchor="start" x="8" y="-22.5" font-family="Helvetica,sans-Serif" font-size="10.00">opening_range_minutes, target_multiple,</text>
<text text-anchor="start" x="8" y="-11.5" font-family="Helvetica,sans-Serif" font-size="10.00">session_start, square_off</text>
</g>
<!-- ORB&#45;&gt;Strategy -->
<g id="edge1" class="edge">
<title>ORB&#45;&gt;Strategy</title>
<path fill="none" stroke="#6b7686" d="M206.47,-53.54C213.41,-55.09 220.3,-56.59 227,-58 351.69,-84.24 495.05,-110.13 594.73,-127.45"/>
<polygon fill="none" stroke="#6b7686" points="594.39,-130.94 604.84,-129.2 595.59,-124.05 594.39,-130.94"/>
</g>
<!-- Momentum -->
<g id="node3" class="node">
<title>Momentum</title>
<polygon fill="#eef2f7" stroke="#9aa7b8" points="236.5,-10 236.5,-48 455.5,-48 455.5,-10 236.5,-10"/>
<text text-anchor="middle" x="346" y="-36" font-family="Helvetica,sans-Serif" font-size="10.00">Momentum</text>
<polyline fill="none" stroke="#9aa7b8" points="236.5,-29 455.5,-29 "/>
<text text-anchor="start" x="244.5" y="-17" font-family="Helvetica,sans-Serif" font-size="10.00">lookback, entry_threshold, exit_threshold</text>
</g>
<!-- Momentum&#45;&gt;Strategy -->
<g id="edge2" class="edge">
<title>Momentum&#45;&gt;Strategy</title>
<path fill="none" stroke="#6b7686" d="M403.06,-48.13C453.91,-64.28 530.11,-88.49 594.94,-109.09"/>
<polygon fill="none" stroke="#6b7686" points="594.23,-112.54 604.82,-112.23 596.35,-105.86 594.23,-112.54"/>
</g>
<!-- MAX -->
<g id="node4" class="node">
<title>MAX</title>
<polygon fill="#eef2f7" stroke="#9aa7b8" points="473.5,-10 473.5,-48 614.5,-48 614.5,-10 473.5,-10"/>
<text text-anchor="middle" x="544" y="-36" font-family="Helvetica,sans-Serif" font-size="10.00">MovingAverageCrossover</text>
<polyline fill="none" stroke="#9aa7b8" points="473.5,-29 614.5,-29 "/>
<text text-anchor="start" x="481.5" y="-17" font-family="Helvetica,sans-Serif" font-size="10.00">fast, slow</text>
</g>
<!-- MAX&#45;&gt;Strategy -->
<g id="edge3" class="edge">
<title>MAX&#45;&gt;Strategy</title>
<path fill="none" stroke="#6b7686" d="M570.96,-48.26C590.86,-61.73 618.95,-80.75 645.32,-98.61"/>
<polygon fill="none" stroke="#6b7686" points="643.57,-101.65 653.81,-104.36 647.49,-95.85 643.57,-101.65"/>
</g>
<!-- RSI2 -->
<g id="node5" class="node">
<title>RSI2</title>
<polygon fill="#eef2f7" stroke="#9aa7b8" points="632.5,-10 632.5,-48 805.5,-48 805.5,-10 632.5,-10"/>
<text text-anchor="middle" x="719" y="-36" font-family="Helvetica,sans-Serif" font-size="10.00">RSI2</text>
<polyline fill="none" stroke="#9aa7b8" points="632.5,-29 805.5,-29 "/>
<text text-anchor="start" x="640.5" y="-17" font-family="Helvetica,sans-Serif" font-size="10.00">period, lower, upper, trend_filter</text>
</g>
<!-- RSI2&#45;&gt;Strategy -->
<g id="edge4" class="edge">
<title>RSI2&#45;&gt;Strategy</title>
<path fill="none" stroke="#6b7686" d="M719,-48.26C719,-60.62 719,-77.66 719,-94.18"/>
<polygon fill="none" stroke="#6b7686" points="715.5,-94.36 719,-104.36 722.5,-94.36 715.5,-94.36"/>
</g>
<!-- VWAP -->
<g id="node6" class="node">
<title>VWAP</title>
<polygon fill="#eef2f7" stroke="#9aa7b8" points="823.5,-10 823.5,-48 926.5,-48 926.5,-10 823.5,-10"/>
<text text-anchor="middle" x="875" y="-36" font-family="Helvetica,sans-Serif" font-size="10.00">VWAPReversion</text>
<polyline fill="none" stroke="#9aa7b8" points="823.5,-29 926.5,-29 "/>
<text text-anchor="start" x="831.5" y="-17" font-family="Helvetica,sans-Serif" font-size="10.00">band, allow_short</text>
</g>
<!-- VWAP&#45;&gt;Strategy -->
<g id="edge5" class="edge">
<title>VWAP&#45;&gt;Strategy</title>
<path fill="none" stroke="#6b7686" d="M850.97,-48.26C833.38,-61.61 808.62,-80.42 785.29,-98.15"/>
<polygon fill="none" stroke="#6b7686" points="782.96,-95.52 777.11,-104.36 787.19,-101.1 782.96,-95.52"/>
</g>
<!-- ST -->
<g id="node7" class="node">
<title>ST</title>
<polygon fill="#eef2f7" stroke="#9aa7b8" points="944.5,-10 944.5,-48 1045.5,-48 1045.5,-10 944.5,-10"/>
<text text-anchor="middle" x="995" y="-36" font-family="Helvetica,sans-Serif" font-size="10.00">Supertrend</text>
<polyline fill="none" stroke="#9aa7b8" points="944.5,-29 1045.5,-29 "/>
<text text-anchor="start" x="952.5" y="-17" font-family="Helvetica,sans-Serif" font-size="10.00">period, multiplier</text>
</g>
<!-- ST&#45;&gt;Strategy -->
<g id="edge6" class="edge">
<title>ST&#45;&gt;Strategy</title>
<path fill="none" stroke="#6b7686" d="M957.02,-48C949.73,-51.38 942.15,-54.84 935,-58 903.02,-72.15 868.15,-87.01 835.94,-100.5"/>
<polygon fill="none" stroke="#6b7686" points="834.36,-97.37 826.48,-104.46 837.06,-103.83 834.36,-97.37"/>
</g>
<!-- XS -->
<g id="node8" class="node">
<title>XS</title>
<polygon fill="#f7f5fe" stroke="#6b46c1" points="2008,-49.5 1800,-49.5 1800,-8.5 2014,-8.5 2014,-43.5 2008,-49.5"/>
<polyline fill="none" stroke="#6b46c1" points="2008,-49.5 2008,-43.5 "/>
<polyline fill="none" stroke="#6b46c1" points="2014,-43.5 2008,-43.5 "/>
<text text-anchor="start" x="1808" y="-37.5" font-family="Helvetica,sans-Serif" font-size="10.00">cross_sectional (module, not a Strategy)</text>
<text text-anchor="start" x="1808" y="-26.5" font-family="Helvetica,sans-Serif" font-size="10.00">momentum_scores() · select_top()</text>
<text text-anchor="start" x="1808" y="-15.5" font-family="Helvetica,sans-Serif" font-size="10.00">→ used by the rotation backtester</text>
</g>
<!-- OrderGateway -->
<g id="node9" class="node">
<title>OrderGateway</title>
<polygon fill="#fffaf0" stroke="#9aa7b8" points="1296,-130.5 1296,-168.5 1552,-168.5 1552,-130.5 1296,-130.5"/>
<text text-anchor="middle" x="1424" y="-156.5" font-family="Helvetica,sans-Serif" font-size="10.00">«abstract» OrderGateway</text>
<polyline fill="none" stroke="#9aa7b8" points="1296,-149.5 1552,-149.5 "/>
<text text-anchor="start" x="1304" y="-137.5" font-family="Helvetica,sans-Serif" font-size="10.00">+ place_order(order, now=None) : Fill «abstract»</text>
</g>
<!-- Order -->
<g id="node15" class="node">
<title>Order</title>
<polygon fill="#f5f6f8" stroke="#9aa7b8" points="1306,-241.5 1306,-290.5 1542,-290.5 1542,-241.5 1306,-241.5"/>
<text text-anchor="middle" x="1424" y="-278.5" font-family="Helvetica,sans-Serif" font-size="10.00">«dataclass» Order</text>
<polyline fill="none" stroke="#9aa7b8" points="1306,-271.5 1542,-271.5 "/>
<text text-anchor="start" x="1314" y="-259.5" font-family="Helvetica,sans-Serif" font-size="10.00">instrument_token, side, quantity, order_type,</text>
<text text-anchor="start" x="1314" y="-248.5" font-family="Helvetica,sans-Serif" font-size="10.00">reference_price?, product, tag, reason</text>
</g>
<!-- OrderGateway&#45;&gt;Order -->
<g id="edge12" class="edge">
<title>OrderGateway&#45;&gt;Order</title>
<path fill="none" stroke="#6b7686" stroke-dasharray="5,2" d="M1424,-168.64C1424,-185.4 1424,-210.71 1424,-231.19"/>
<polygon fill="#6b7686" stroke="#6b7686" points="1424,-241.38 1419.5,-231.38 1424,-236.38 1424,-231.38 1424,-231.38 1424,-231.38 1424,-236.38 1428.5,-231.38 1424,-241.38 1424,-241.38"/>
<text text-anchor="middle" x="1436.5" y="-215.8" font-family="Helvetica,sans-Serif" font-size="9.00">takes</text>
</g>
<!-- Fill -->
<g id="node16" class="node">
<title>Fill</title>
<polygon fill="#f5f6f8" stroke="#9aa7b8" points="1127,-241.5 1127,-290.5 1257,-290.5 1257,-241.5 1127,-241.5"/>
<text text-anchor="middle" x="1192" y="-278.5" font-family="Helvetica,sans-Serif" font-size="10.00">«dataclass» Fill</text>
<polyline fill="none" stroke="#9aa7b8" points="1127,-271.5 1257,-271.5 "/>
<text text-anchor="start" x="1135" y="-259.5" font-family="Helvetica,sans-Serif" font-size="10.00">order, status, fill_price,</text>
<text text-anchor="start" x="1135" y="-248.5" font-family="Helvetica,sans-Serif" font-size="10.00">quantity, time, charges</text>
</g>
<!-- OrderGateway&#45;&gt;Fill -->
<g id="edge13" class="edge">
<title>OrderGateway&#45;&gt;Fill</title>
<path fill="none" stroke="#6b7686" stroke-dasharray="5,2" d="M1387.49,-168.52C1350.33,-186.86 1292.17,-215.56 1248.95,-236.9"/>
<polygon fill="#6b7686" stroke="#6b7686" points="1239.96,-241.33 1246.94,-232.87 1244.44,-239.12 1248.93,-236.9 1248.93,-236.9 1248.93,-236.9 1244.44,-239.12 1250.92,-240.94 1239.96,-241.33 1239.96,-241.33"/>
<text text-anchor="middle" x="1312" y="-215.8" font-family="Helvetica,sans-Serif" font-size="9.00">returns</text>
</g>
<!-- PaperGateway -->
<g id="node10" class="node">
<title>PaperGateway</title>
<polygon fill="#d9f2e3" stroke="#9aa7b8" points="1309.5,-0.5 1309.5,-57.5 1524.5,-57.5 1524.5,-0.5 1309.5,-0.5"/>
<text text-anchor="middle" x="1417" y="-45.5" font-family="Helvetica,sans-Serif" font-size="10.00">PaperGateway</text>
<polyline fill="none" stroke="#9aa7b8" points="1309.5,-38.5 1524.5,-38.5 "/>
<text text-anchor="start" x="1317.5" y="-26.5" font-family="Helvetica,sans-Serif" font-size="10.00">slippage_bps, cost_config</text>
<polyline fill="none" stroke="#9aa7b8" points="1309.5,-19.5 1524.5,-19.5 "/>
<text text-anchor="start" x="1317.5" y="-7.5" font-family="Helvetica,sans-Serif" font-size="10.00">+ place_order() : Fill (simulated + costs)</text>
</g>
<!-- PaperGateway&#45;&gt;OrderGateway -->
<g id="edge7" class="edge">
<title>PaperGateway&#45;&gt;OrderGateway</title>
<path fill="none" stroke="#6b7686" d="M1418.64,-57.78C1419.75,-76.63 1421.22,-101.45 1422.34,-120.37"/>
<polygon fill="none" stroke="#6b7686" points="1418.85,-120.69 1422.93,-130.47 1425.84,-120.28 1418.85,-120.69"/>
</g>
<!-- LiveGateway -->
<g id="node11" class="node">
<title>LiveGateway</title>
<polygon fill="#fde2df" stroke="#b0392f" points="1542.5,-10 1542.5,-48 1781.5,-48 1781.5,-10 1542.5,-10"/>
<text text-anchor="middle" x="1662" y="-36" font-family="Helvetica,sans-Serif" font-size="10.00" fill="#b0392f">LiveGateway (disabled)</text>
<polyline fill="none" stroke="#b0392f" points="1542.5,-29 1781.5,-29 "/>
<text text-anchor="start" x="1550.5" y="-17" font-family="Helvetica,sans-Serif" font-size="10.00" fill="#b0392f">+ place_order() : raises NotImplementedError</text>
</g>
<!-- LiveGateway&#45;&gt;OrderGateway -->
<g id="edge8" class="edge">
<title>LiveGateway&#45;&gt;OrderGateway</title>
<path fill="none" stroke="#6b7686" d="M1625.59,-48.13C1583.69,-68.99 1514.81,-103.28 1469.43,-125.88"/>
<polygon fill="none" stroke="#6b7686" points="1467.79,-122.79 1460.4,-130.38 1470.91,-129.05 1467.79,-122.79"/>
</g>
<!-- Engine -->
<g id="node17" class="node">
<title>Engine</title>
<polygon fill="#cdeed9" stroke="#9aa7b8" points="1064,-4.5 1064,-53.5 1284,-53.5 1284,-4.5 1064,-4.5"/>
<text text-anchor="middle" x="1174" y="-41.5" font-family="Helvetica,sans-Serif" font-size="10.00">PaperTradingEngine / MultiStrategyEngine</text>
<polyline fill="none" stroke="#9aa7b8" points="1064,-34.5 1284,-34.5 "/>
<text text-anchor="start" x="1072" y="-22.5" font-family="Helvetica,sans-Serif" font-size="10.00">orchestrates bar → signal → order</text>
<text text-anchor="start" x="1072" y="-11.5" font-family="Helvetica,sans-Serif" font-size="10.00">via _OrderRouter</text>
</g>
<!-- Engine&#45;&gt;Strategy -->
<g id="edge14" class="edge">
<title>Engine&#45;&gt;Strategy</title>
<path fill="none" stroke="#6b7686" stroke-dasharray="5,2" d="M1073.52,-53.54C1066.91,-55.06 1060.36,-56.56 1054,-58 961.24,-79.03 936.46,-77.89 845,-104 844.27,-104.21 843.53,-104.42 842.8,-104.63"/>
<polygon fill="#6b7686" stroke="#6b7686" points="833.15,-107.5 841.45,-100.34 837.94,-106.07 842.74,-104.65 842.74,-104.65 842.74,-104.65 837.94,-106.07 844.02,-108.97 833.15,-107.5 833.15,-107.5"/>
<text text-anchor="middle" x="979.5" y="-78.8" font-family="Helvetica,sans-Serif" font-size="9.00">on_bar</text>
</g>
<!-- Engine&#45;&gt;OrderGateway -->
<g id="edge15" class="edge">
<title>Engine&#45;&gt;OrderGateway</title>
<path fill="none" stroke="#6b7686" stroke-dasharray="5,2" d="M1223.69,-53.55C1268.13,-74.62 1332.82,-105.28 1376.56,-126.02"/>
<polygon fill="#6b7686" stroke="#6b7686" points="1385.84,-130.41 1374.87,-130.19 1381.32,-128.27 1376.8,-126.13 1376.8,-126.13 1376.8,-126.13 1381.32,-128.27 1378.73,-122.06 1385.84,-130.41 1385.84,-130.41"/>
<text text-anchor="middle" x="1318.5" y="-78.8" font-family="Helvetica,sans-Serif" font-size="9.00">place_order</text>
</g>
<!-- Portfolio -->
<g id="node18" class="node">
<title>Portfolio</title>
<polygon fill="#eef0f3" stroke="#9aa7b8" points="854,-119.5 854,-179.5 1052,-179.5 1052,-119.5 854,-119.5"/>
<text text-anchor="middle" x="953" y="-167.5" font-family="Helvetica,sans-Serif" font-size="10.00">Portfolio</text>
<polyline fill="none" stroke="#9aa7b8" points="854,-160.5 1052,-160.5 "/>
<text text-anchor="start" x="862" y="-148.5" font-family="Helvetica,sans-Serif" font-size="10.00">positions, realized_pnl, total_charges</text>
<text text-anchor="start" x="862" y="-137.5" font-family="Helvetica,sans-Serif" font-size="10.00">+ apply_fill(fill)</text>
<text text-anchor="start" x="862" y="-126.5" font-family="Helvetica,sans-Serif" font-size="10.00">+ day_pnl(prices)</text>
</g>
<!-- Engine&#45;&gt;Portfolio -->
<g id="edge17" class="edge">
<title>Engine&#45;&gt;Portfolio</title>
<path fill="none" stroke="#6b7686" stroke-dasharray="5,2" d="M1136.87,-53.71C1120.3,-64.01 1100.39,-75.98 1082,-86 1063.78,-95.93 1043.75,-106.02 1025.02,-115.11"/>
<polygon fill="#6b7686" stroke="#6b7686" points="1015.94,-119.49 1023,-111.09 1020.45,-117.32 1024.95,-115.14 1024.95,-115.14 1024.95,-115.14 1020.45,-117.32 1026.91,-119.2 1015.94,-119.49 1015.94,-119.49"/>
</g>
<!-- Risk -->
<g id="node19" class="node">
<title>Risk</title>
<polygon fill="#eef0f3" stroke="#9aa7b8" points="1070.5,-125 1070.5,-174 1277.5,-174 1277.5,-125 1070.5,-125"/>
<text text-anchor="middle" x="1174" y="-162" font-family="Helvetica,sans-Serif" font-size="10.00">RiskManager</text>
<polyline fill="none" stroke="#9aa7b8" points="1070.5,-155 1277.5,-155 "/>
<text text-anchor="start" x="1078.5" y="-143" font-family="Helvetica,sans-Serif" font-size="10.00">+ can_enter(...) + should_square_off(t)</text>
<text text-anchor="start" x="1078.5" y="-132" font-family="Helvetica,sans-Serif" font-size="10.00">+ update_pnl(pnl) (latching kill&#45;switch)</text>
</g>
<!-- Engine&#45;&gt;Risk -->
<g id="edge16" class="edge">
<title>Engine&#45;&gt;Risk</title>
<path fill="none" stroke="#6b7686" stroke-dasharray="5,2" d="M1174,-53.7C1174,-71.21 1174,-95.31 1174,-114.83"/>
<polygon fill="#6b7686" stroke="#6b7686" points="1174,-124.85 1169.5,-114.85 1174,-119.85 1174,-114.85 1174,-114.85 1174,-114.85 1174,-119.85 1178.5,-114.85 1174,-124.85 1174,-124.85"/>
</g>
<!-- Portfolio&#45;&gt;Fill -->
<g id="edge18" class="edge">
<title>Portfolio&#45;&gt;Fill</title>
<path fill="none" stroke="#6b7686" stroke-dasharray="5,2" d="M1013.62,-179.54C1050.46,-197.19 1097.26,-219.61 1133.68,-237.06"/>
<polygon fill="#6b7686" stroke="#6b7686" points="1142.7,-241.38 1131.74,-241.12 1138.2,-239.22 1133.69,-237.06 1133.69,-237.06 1133.69,-237.06 1138.2,-239.22 1135.63,-233 1142.7,-241.38 1142.7,-241.38"/>
<text text-anchor="middle" x="1113.5" y="-215.8" font-family="Helvetica,sans-Serif" font-size="9.00">apply</text>
</g>
</g>
</svg>
