<?xml version="1.0" encoding="UTF-8" standalone="no"?>
<!DOCTYPE svg PUBLIC "-//W3C//DTD SVG 1.1//EN"
 "http://www.w3.org/Graphics/SVG/1.1/DTD/svg11.dtd">
<!-- Generated by graphviz version 2.43.0 (0)
 -->
<!-- Title: deployment Pages: 1 -->
<svg width="834pt" height="449pt"
 viewBox="0.00 0.00 834.00 449.25" xmlns="http://www.w3.org/2000/svg" xmlns:xlink="http://www.w3.org/1999/xlink">
<g id="graph0" class="graph" transform="scale(1 1) rotate(0) translate(4 445.25)">
<title>deployment</title>
<polygon fill="white" stroke="transparent" points="-4,4 -4,-445.25 830,-445.25 830,4 -4,4"/>
<text text-anchor="middle" x="413" y="-426.05" font-family="Helvetica,sans-Serif" font-size="14.00">equity&#45;algo&#45;engine — deployment view (local&#45;first)</text>
<g id="clust1" class="cluster">
<title>cluster_net</title>
<path fill="none" stroke="#b0392f" stroke-dasharray="5,2" d="M20,-232.25C20,-232.25 250,-232.25 250,-232.25 256,-232.25 262,-238.25 262,-244.25 262,-244.25 262,-295.25 262,-295.25 262,-301.25 256,-307.25 250,-307.25 250,-307.25 20,-307.25 20,-307.25 14,-307.25 8,-301.25 8,-295.25 8,-295.25 8,-244.25 8,-244.25 8,-238.25 14,-232.25 20,-232.25"/>
<text text-anchor="middle" x="135" y="-292.05" font-family="Helvetica,sans-Serif" font-size="14.00" fill="#b0392f">Internet</text>
</g>
<g id="clust2" class="cluster">
<title>cluster_host</title>
<path fill="#f6f7f9" stroke="#4a5568" d="M282,-8C282,-8 806,-8 806,-8 812,-8 818,-14 818,-20 818,-20 818,-398.25 818,-398.25 818,-404.25 812,-410.25 806,-410.25 806,-410.25 282,-410.25 282,-410.25 276,-410.25 270,-404.25 270,-398.25 270,-398.25 270,-20 270,-20 270,-14 276,-8 282,-8"/>
<text text-anchor="middle" x="544" y="-395.05" font-family="Helvetica,sans-Serif" font-size="14.00">Host machine &#160;(no cloud deploy; engine runs on host)</text>
</g>
<g id="clust3" class="cluster">
<title>cluster_py</title>
<path fill="#f1faf4" stroke="#2f855a" d="M290,-124.25C290,-124.25 798,-124.25 798,-124.25 804,-124.25 810,-130.25 810,-136.25 810,-136.25 810,-192.25 810,-192.25 810,-198.25 804,-204.25 798,-204.25 798,-204.25 290,-204.25 290,-204.25 284,-204.25 278,-198.25 278,-192.25 278,-192.25 278,-136.25 278,-136.25 278,-130.25 284,-124.25 290,-124.25"/>
<text text-anchor="middle" x="544" y="-189.05" font-family="Helvetica,sans-Serif" font-size="14.00">Python &#160;(uv&#45;managed venv)</text>
</g>
<g id="clust4" class="cluster">
<title>cluster_node</title>
<path fill="#f3f7fd" stroke="#2b6cb0" d="M368,-232.25C368,-232.25 498,-232.25 498,-232.25 504,-232.25 510,-238.25 510,-244.25 510,-244.25 510,-295.25 510,-295.25 510,-301.25 504,-307.25 498,-307.25 498,-307.25 368,-307.25 368,-307.25 362,-307.25 356,-301.25 356,-295.25 356,-295.25 356,-244.25 356,-244.25 356,-238.25 362,-232.25 368,-232.25"/>
<text text-anchor="middle" x="433" y="-292.05" font-family="Helvetica,sans-Serif" font-size="14.00">Node</text>
</g>
<g id="clust5" class="cluster">
<title>cluster_docker</title>
<path fill="#f0fbfb" stroke="#2c7a7b" d="M342,-16C342,-16 590,-16 590,-16 596,-16 602,-22 602,-28 602,-28 602,-84.25 602,-84.25 602,-90.25 596,-96.25 590,-96.25 590,-96.25 342,-96.25 342,-96.25 336,-96.25 330,-90.25 330,-84.25 330,-84.25 330,-28 330,-28 330,-22 336,-16 342,-16"/>
<text text-anchor="middle" x="466" y="-81.05" font-family="Helvetica,sans-Serif" font-size="14.00">docker&#45;compose &#160;(stateful services)</text>
</g>
<!-- kite -->
<g id="node1" class="node">
<title>kite</title>
<path fill="#fde2df" stroke="#9aa7b8" d="M242.5,-276.25C242.5,-276.25 27.5,-276.25 27.5,-276.25 21.5,-276.25 15.5,-270.25 15.5,-264.25 15.5,-264.25 15.5,-252.25 15.5,-252.25 15.5,-246.25 21.5,-240.25 27.5,-240.25 27.5,-240.25 242.5,-240.25 242.5,-240.25 248.5,-240.25 254.5,-246.25 254.5,-252.25 254.5,-252.25 254.5,-264.25 254.5,-264.25 254.5,-270.25 248.5,-276.25 242.5,-276.25"/>
<text text-anchor="middle" x="135" y="-261.25" font-family="Helvetica,sans-Serif" font-size="10.00">Zerodha Kite Connect</text>
<text text-anchor="middle" x="135" y="-250.25" font-family="Helvetica,sans-Serif" font-size="10.00">REST (historical/account) + WebSocket (ticks)</text>
</g>
<!-- live -->
<g id="node3" class="node">
<title>live</title>
<path fill="#cdeed9" stroke="#9aa7b8" d="M432,-173.25C432,-173.25 298,-173.25 298,-173.25 292,-173.25 286,-167.25 286,-161.25 286,-161.25 286,-144.25 286,-144.25 286,-138.25 292,-132.25 298,-132.25 298,-132.25 432,-132.25 432,-132.25 438,-132.25 444,-138.25 444,-144.25 444,-144.25 444,-161.25 444,-161.25 444,-167.25 438,-173.25 432,-173.25"/>
<text text-anchor="middle" x="365" y="-161.25" font-family="Helvetica,sans-Serif" font-size="10.00">Live paper engine</text>
<text text-anchor="middle" x="365" y="-150.25" font-family="Helvetica,sans-Serif" font-size="10.00">scripts/paper_trade.py</text>
<text text-anchor="middle" x="365" y="-139.25" font-family="Helvetica,sans-Serif" font-size="10.00">(KiteTicker → PaperGateway)</text>
</g>
<!-- kite&#45;&gt;live -->
<g id="edge1" class="edge">
<title>kite&#45;&gt;live</title>
<path fill="none" stroke="#6b7686" d="M169.66,-240.25C187.34,-231.68 209.23,-221.23 229,-212.25 255.03,-200.43 284.12,-187.83 308.69,-177.37"/>
<polygon fill="#6b7686" stroke="#6b7686" points="310.38,-180.45 318.22,-173.32 307.65,-174.01 310.38,-180.45"/>
<text text-anchor="middle" x="265" y="-215.05" font-family="Helvetica,sans-Serif" font-size="9.00">WS ticks / REST</text>
</g>
<!-- clis -->
<g id="node5" class="node">
<title>clis</title>
<polygon fill="#fffef2" stroke="#b7791f" points="638,-170.75 462,-170.75 462,-134.75 644,-134.75 644,-164.75 638,-170.75"/>
<polyline fill="none" stroke="#b7791f" points="638,-170.75 638,-164.75 "/>
<polyline fill="none" stroke="#b7791f" points="644,-164.75 638,-164.75 "/>
<text text-anchor="middle" x="553" y="-155.75" font-family="Helvetica,sans-Serif" font-size="10.00">CLIs: backfill · backtest ·</text>
<text text-anchor="middle" x="553" y="-144.75" font-family="Helvetica,sans-Serif" font-size="10.00">rotation · optimize · refresh_token</text>
</g>
<!-- kite&#45;&gt;clis -->
<g id="edge2" class="edge">
<title>kite&#45;&gt;clis</title>
<path fill="none" stroke="#6b7686" d="M219.18,-240.24C245.44,-234.73 274.47,-228.45 301,-222.25 318.43,-218.18 322.34,-215.12 340,-212.25 389.7,-204.19 404.46,-217.64 453,-204.25 475.72,-197.98 499.33,-186.33 517.91,-175.8"/>
<polygon fill="#6b7686" stroke="#6b7686" points="519.71,-178.8 526.6,-170.75 516.19,-172.75 519.71,-178.8"/>
<text text-anchor="middle" x="389" y="-215.05" font-family="Helvetica,sans-Serif" font-size="9.00">REST (backfill, token)</text>
</g>
<!-- secrets -->
<g id="node2" class="node">
<title>secrets</title>
<polygon fill="#fff7e6" stroke="#b7791f" points="684,-276.25 520,-276.25 520,-240.25 690,-240.25 690,-270.25 684,-276.25"/>
<polyline fill="none" stroke="#b7791f" points="684,-276.25 684,-270.25 "/>
<polyline fill="none" stroke="#b7791f" points="690,-270.25 684,-270.25 "/>
<text text-anchor="middle" x="605" y="-261.25" font-family="Helvetica,sans-Serif" font-size="10.00">.env &#160;+ &#160;secrets/kite_token.json</text>
<text text-anchor="middle" x="605" y="-250.25" font-family="Helvetica,sans-Serif" font-size="10.00">(gitignored)</text>
</g>
<!-- secrets&#45;&gt;live -->
<g id="edge3" class="edge">
<title>secrets&#45;&gt;live</title>
<path fill="none" stroke="#6b7686" stroke-dasharray="1,5" d="M587.03,-240.14C575.41,-230.18 559.44,-218.41 543,-212.25 505.39,-198.17 491.31,-216.3 453,-204.25 434.74,-198.51 416.13,-188.54 400.75,-178.97"/>
<polygon fill="#6b7686" stroke="#6b7686" points="402.4,-175.87 392.09,-173.41 398.62,-181.76 402.4,-175.87"/>
</g>
<!-- dash -->
<g id="node4" class="node">
<title>dash</title>
<path fill="#dbe8fb" stroke="#9aa7b8" d="M789.5,-173.25C789.5,-173.25 674.5,-173.25 674.5,-173.25 668.5,-173.25 662.5,-167.25 662.5,-161.25 662.5,-161.25 662.5,-144.25 662.5,-144.25 662.5,-138.25 668.5,-132.25 674.5,-132.25 674.5,-132.25 789.5,-132.25 789.5,-132.25 795.5,-132.25 801.5,-138.25 801.5,-144.25 801.5,-144.25 801.5,-161.25 801.5,-161.25 801.5,-167.25 795.5,-173.25 789.5,-173.25"/>
<text text-anchor="middle" x="732" y="-161.25" font-family="Helvetica,sans-Serif" font-size="10.00">FastAPI dashboard &#160;:8000</text>
<text text-anchor="middle" x="732" y="-150.25" font-family="Helvetica,sans-Serif" font-size="10.00">scripts/dashboard.py</text>
<text text-anchor="middle" x="732" y="-139.25" font-family="Helvetica,sans-Serif" font-size="10.00">(serves DashboardState)</text>
</g>
<!-- secrets&#45;&gt;dash -->
<g id="edge5" class="edge">
<title>secrets&#45;&gt;dash</title>
<path fill="none" stroke="#6b7686" stroke-dasharray="1,5" d="M625.97,-240.16C646.14,-223.72 676.9,-198.66 700.1,-179.75"/>
<polygon fill="#6b7686" stroke="#6b7686" points="702.42,-182.37 707.96,-173.34 698,-176.94 702.42,-182.37"/>
</g>
<!-- secrets&#45;&gt;clis -->
<g id="edge4" class="edge">
<title>secrets&#45;&gt;clis</title>
<path fill="none" stroke="#6b7686" stroke-dasharray="1,5" d="M596.41,-240.16C588.17,-223.75 575.61,-198.75 566.11,-179.85"/>
<polygon fill="#6b7686" stroke="#6b7686" points="569.22,-178.23 561.6,-170.87 562.96,-181.37 569.22,-178.23"/>
</g>
<!-- tsdb -->
<g id="node7" class="node">
<title>tsdb</title>
<path fill="#dfe4ea" stroke="#9aa7b8" d="M593.5,-61.6C593.5,-63.68 564.14,-65.38 528,-65.38 491.86,-65.38 462.5,-63.68 462.5,-61.6 462.5,-61.6 462.5,-27.65 462.5,-27.65 462.5,-25.57 491.86,-23.87 528,-23.87 564.14,-23.87 593.5,-25.57 593.5,-27.65 593.5,-27.65 593.5,-61.6 593.5,-61.6"/>
<path fill="none" stroke="#9aa7b8" d="M593.5,-61.6C593.5,-59.52 564.14,-57.83 528,-57.83 491.86,-57.83 462.5,-59.52 462.5,-61.6"/>
<text text-anchor="middle" x="528" y="-47.62" font-family="Helvetica,sans-Serif" font-size="10.00">TimescaleDB &#160;:5432</text>
<text text-anchor="middle" x="528" y="-36.62" font-family="Helvetica,sans-Serif" font-size="10.00">volume timescale_data</text>
</g>
<!-- live&#45;&gt;tsdb -->
<g id="edge7" class="edge">
<title>live&#45;&gt;tsdb</title>
<path fill="none" stroke="#6b7686" d="M411.12,-132.16C422.17,-126.84 433.74,-120.74 444,-114.25 463.38,-101.99 483.33,-85.87 498.92,-72.33"/>
<polygon fill="#6b7686" stroke="#6b7686" points="501.46,-74.75 506.65,-65.52 496.83,-69.5 501.46,-74.75"/>
<text text-anchor="middle" x="482.5" y="-107.05" font-family="Helvetica,sans-Serif" font-size="9.00">persist fills</text>
</g>
<!-- redis -->
<g id="node8" class="node">
<title>redis</title>
<path fill="#dfe4ea" stroke="#9aa7b8" d="M444.5,-61.6C444.5,-63.68 420.52,-65.38 391,-65.38 361.48,-65.38 337.5,-63.68 337.5,-61.6 337.5,-61.6 337.5,-27.65 337.5,-27.65 337.5,-25.57 361.48,-23.87 391,-23.87 420.52,-23.87 444.5,-25.57 444.5,-27.65 444.5,-27.65 444.5,-61.6 444.5,-61.6"/>
<path fill="none" stroke="#9aa7b8" d="M444.5,-61.6C444.5,-59.52 420.52,-57.83 391,-57.83 361.48,-57.83 337.5,-59.52 337.5,-61.6"/>
<text text-anchor="middle" x="391" y="-47.62" font-family="Helvetica,sans-Serif" font-size="10.00">Redis &#160;:6379</text>
<text text-anchor="middle" x="391" y="-36.62" font-family="Helvetica,sans-Serif" font-size="10.00">volume redis_data</text>
</g>
<!-- live&#45;&gt;redis -->
<g id="edge8" class="edge">
<title>live&#45;&gt;redis</title>
<path fill="none" stroke="#6b7686" stroke-dasharray="1,5" d="M369.89,-131.79C373.79,-115.85 379.32,-93.29 383.74,-75.25"/>
<polygon fill="#6b7686" stroke="#6b7686" points="387.15,-76.04 386.13,-65.5 380.35,-74.38 387.15,-76.04"/>
<text text-anchor="middle" x="408" y="-107.05" font-family="Helvetica,sans-Serif" font-size="9.00">throttle/cache</text>
</g>
<!-- dash&#45;&gt;tsdb -->
<g id="edge9" class="edge">
<title>dash&#45;&gt;tsdb</title>
<path fill="none" stroke="#6b7686" d="M704.63,-132.15C691.45,-123.12 675.24,-112.59 660,-104.25 636.31,-91.29 609.2,-78.87 585.74,-68.81"/>
<polygon fill="#6b7686" stroke="#6b7686" points="586.84,-65.48 576.27,-64.8 584.11,-71.92 586.84,-65.48"/>
<text text-anchor="middle" x="717" y="-107.05" font-family="Helvetica,sans-Serif" font-size="9.00">read bars (replay)</text>
</g>
<!-- clis&#45;&gt;tsdb -->
<g id="edge6" class="edge">
<title>clis&#45;&gt;tsdb</title>
<path fill="none" stroke="#6b7686" d="M548.98,-134.7C545.22,-118.71 539.5,-94.45 534.99,-75.29"/>
<polygon fill="#6b7686" stroke="#6b7686" points="538.39,-74.46 532.69,-65.53 531.57,-76.06 538.39,-74.46"/>
<text text-anchor="middle" x="599.5" y="-107.05" font-family="Helvetica,sans-Serif" font-size="9.00">backfill bars/instruments</text>
</g>
<!-- next -->
<g id="node6" class="node">
<title>next</title>
<path fill="#dbe8fb" stroke="#9aa7b8" d="M490,-276.25C490,-276.25 376,-276.25 376,-276.25 370,-276.25 364,-270.25 364,-264.25 364,-264.25 364,-252.25 364,-252.25 364,-246.25 370,-240.25 376,-240.25 376,-240.25 490,-240.25 490,-240.25 496,-240.25 502,-246.25 502,-252.25 502,-252.25 502,-264.25 502,-264.25 502,-270.25 496,-276.25 490,-276.25"/>
<text text-anchor="middle" x="433" y="-261.25" font-family="Helvetica,sans-Serif" font-size="10.00">Next.js dashboard &#160;:3000</text>
<text text-anchor="middle" x="433" y="-250.25" font-family="Helvetica,sans-Serif" font-size="10.00">frontend/</text>
</g>
<!-- next&#45;&gt;dash -->
<g id="edge11" class="edge">
<title>next&#45;&gt;dash</title>
<path fill="none" stroke="#6b7686" d="M435.3,-239.86C437.56,-230.07 442.07,-218.56 451,-212.25 469.35,-199.29 631.57,-210.98 653,-204.25 669.98,-198.92 686.86,-188.93 700.63,-179.24"/>
<polygon fill="#6b7686" stroke="#6b7686" points="702.77,-182.01 708.78,-173.29 698.64,-176.36 702.77,-182.01"/>
<text text-anchor="middle" x="495" y="-215.05" font-family="Helvetica,sans-Serif" font-size="9.00">JSON :8000 (CORS)</text>
</g>
<!-- browser -->
<g id="node9" class="node">
<title>browser</title>
<polygon fill="#e8eefc" stroke="#9aa7b8" points="461,-379.25 409,-379.25 405,-375.25 405,-343.25 457,-343.25 461,-347.25 461,-379.25"/>
<polyline fill="none" stroke="#9aa7b8" points="457,-375.25 405,-375.25 "/>
<polyline fill="none" stroke="#9aa7b8" points="457,-375.25 457,-343.25 "/>
<polyline fill="none" stroke="#9aa7b8" points="457,-375.25 461,-379.25 "/>
<text text-anchor="middle" x="433" y="-358.75" font-family="Helvetica,sans-Serif" font-size="10.00">Browser</text>
</g>
<!-- browser&#45;&gt;next -->
<g id="edge10" class="edge">
<title>browser&#45;&gt;next</title>
<path fill="none" stroke="#6b7686" d="M433,-343.12C433,-327.66 433,-304.67 433,-286.66"/>
<polygon fill="#6b7686" stroke="#6b7686" points="436.5,-286.47 433,-276.47 429.5,-286.47 436.5,-286.47"/>
<text text-anchor="middle" x="459.5" y="-318.05" font-family="Helvetica,sans-Serif" font-size="9.00">HTTP :3000</text>
</g>
</g>
</svg>
