<?xml version="1.0" encoding="UTF-8" standalone="no"?>
<!DOCTYPE svg PUBLIC "-//W3C//DTD SVG 1.1//EN"
 "http://www.w3.org/Graphics/SVG/1.1/DTD/svg11.dtd">
<!-- Generated by graphviz version 2.43.0 (0)
 -->
<!-- Title: schema Pages: 1 -->
<svg width="1106pt" height="265pt"
 viewBox="0.00 0.00 1106.00 265.00" xmlns="http://www.w3.org/2000/svg" xmlns:xlink="http://www.w3.org/1999/xlink">
<g id="graph0" class="graph" transform="scale(1 1) rotate(0) translate(4 261)">
<title>schema</title>
<polygon fill="white" stroke="transparent" points="-4,4 -4,-261 1102,-261 1102,4 -4,4"/>
<text text-anchor="middle" x="549" y="-241.8" font-family="Helvetica,sans-Serif" font-size="14.00">equity&#45;algo&#45;engine — TimescaleDB schema</text>
<!-- instruments -->
<g id="node1" class="node">
<title>instruments</title>
<polygon fill="#e7e0fb" stroke="#9aa7b8" points="0,-5 0,-167 266,-167 266,-5 0,-5"/>
<text text-anchor="middle" x="37.5" y="-83.5" font-family="Helvetica,sans-Serif" font-size="10.00">instruments</text>
<polyline fill="none" stroke="#9aa7b8" points="75,-5 75,-167 "/>
<text text-anchor="start" x="83" y="-155" font-family="Helvetica,sans-Serif" font-size="10.00">+ instrument_token : BIGINT (PK)</text>
<text text-anchor="start" x="83" y="-144" font-family="Helvetica,sans-Serif" font-size="10.00"> exchange_token : BIGINT</text>
<text text-anchor="start" x="83" y="-133" font-family="Helvetica,sans-Serif" font-size="10.00"> tradingsymbol : VARCHAR(64) [idx]</text>
<text text-anchor="start" x="83" y="-122" font-family="Helvetica,sans-Serif" font-size="10.00"> name : VARCHAR(256)</text>
<text text-anchor="start" x="83" y="-111" font-family="Helvetica,sans-Serif" font-size="10.00"> exchange : VARCHAR(16)</text>
<text text-anchor="start" x="83" y="-100" font-family="Helvetica,sans-Serif" font-size="10.00"> segment : VARCHAR(32)</text>
<text text-anchor="start" x="83" y="-89" font-family="Helvetica,sans-Serif" font-size="10.00"> instrument_type : VARCHAR(16)</text>
<text text-anchor="start" x="83" y="-78" font-family="Helvetica,sans-Serif" font-size="10.00"> lot_size : INTEGER</text>
<text text-anchor="start" x="83" y="-67" font-family="Helvetica,sans-Serif" font-size="10.00"> tick_size : FLOAT</text>
<text text-anchor="start" x="83" y="-56" font-family="Helvetica,sans-Serif" font-size="10.00"> expiry : DATE</text>
<text text-anchor="start" x="83" y="-45" font-family="Helvetica,sans-Serif" font-size="10.00"> strike : FLOAT</text>
<text text-anchor="start" x="83" y="-34" font-family="Helvetica,sans-Serif" font-size="10.00"> last_price : FLOAT</text>
<text text-anchor="start" x="83" y="-23" font-family="Helvetica,sans-Serif" font-size="10.00"> updated_at : TIMESTAMPTZ</text>
<text text-anchor="start" x="83" y="-12" font-family="Helvetica,sans-Serif" font-size="10.00"> idx (exchange, tradingsymbol)</text>
</g>
<!-- ohlc_bars -->
<g id="node2" class="node">
<title>ohlc_bars</title>
<polygon fill="#cdeeee" stroke="#9aa7b8" points="408,-148.5 408,-233.5 822,-233.5 822,-148.5 408,-148.5"/>
<text text-anchor="middle" x="505" y="-188.5" font-family="Helvetica,sans-Serif" font-size="10.00">ohlc_bars (TimescaleDB hypertable)</text>
<polyline fill="none" stroke="#9aa7b8" points="602,-148.5 602,-233.5 "/>
<text text-anchor="start" x="610" y="-221.5" font-family="Helvetica,sans-Serif" font-size="10.00">+ instrument_token : BIGINT (PK, FK)</text>
<text text-anchor="start" x="610" y="-210.5" font-family="Helvetica,sans-Serif" font-size="10.00">+ time : TIMESTAMPTZ (PK, partition key)</text>
<text text-anchor="start" x="610" y="-199.5" font-family="Helvetica,sans-Serif" font-size="10.00"> open : FLOAT</text>
<text text-anchor="start" x="610" y="-188.5" font-family="Helvetica,sans-Serif" font-size="10.00"> high : FLOAT</text>
<text text-anchor="start" x="610" y="-177.5" font-family="Helvetica,sans-Serif" font-size="10.00"> low : FLOAT</text>
<text text-anchor="start" x="610" y="-166.5" font-family="Helvetica,sans-Serif" font-size="10.00"> close : FLOAT</text>
<text text-anchor="start" x="610" y="-155.5" font-family="Helvetica,sans-Serif" font-size="10.00"> volume : BIGINT</text>
</g>
<!-- instruments&#45;&gt;ohlc_bars -->
<g id="edge1" class="edge">
<title>instruments&#45;&gt;ohlc_bars</title>
<path fill="none" stroke="#6b7686" d="M266.11,-114.9C310.38,-124.58 360.83,-135.62 409.32,-146.23"/>
<polygon fill="#6b7686" stroke="#6b7686" points="409.54,-146.27 418.34,-152.81 414.42,-147.34 419.31,-148.41 419.31,-148.41 419.31,-148.41 414.42,-147.34 420.27,-144.01 409.54,-146.27 409.54,-146.27"/>
<text text-anchor="middle" x="337" y="-154.8" font-family="Helvetica,sans-Serif" font-size="9.00">FK instrument_token</text>
<text text-anchor="middle" x="337" y="-144.8" font-family="Helvetica,sans-Serif" font-size="9.00">(ON DELETE CASCADE)</text>
</g>
<!-- fills -->
<g id="node4" class="node">
<title>fills</title>
<polygon fill="#d9f2e3" stroke="#9aa7b8" points="443.5,-0.5 443.5,-129.5 786.5,-129.5 786.5,-0.5 443.5,-0.5"/>
<text text-anchor="middle" x="528.5" y="-62.5" font-family="Helvetica,sans-Serif" font-size="10.00">fills (paper&#45;trade execution log)</text>
<polyline fill="none" stroke="#9aa7b8" points="613.5,-0.5 613.5,-129.5 "/>
<text text-anchor="start" x="621.5" y="-117.5" font-family="Helvetica,sans-Serif" font-size="10.00">+ id : BIGSERIAL (PK)</text>
<text text-anchor="start" x="621.5" y="-106.5" font-family="Helvetica,sans-Serif" font-size="10.00"> time : TIMESTAMPTZ [idx]</text>
<text text-anchor="start" x="621.5" y="-95.5" font-family="Helvetica,sans-Serif" font-size="10.00"> instrument_token : BIGINT [idx]</text>
<text text-anchor="start" x="621.5" y="-84.5" font-family="Helvetica,sans-Serif" font-size="10.00"> side : VARCHAR(4)</text>
<text text-anchor="start" x="621.5" y="-73.5" font-family="Helvetica,sans-Serif" font-size="10.00"> quantity : INTEGER</text>
<text text-anchor="start" x="621.5" y="-62.5" font-family="Helvetica,sans-Serif" font-size="10.00"> price : FLOAT</text>
<text text-anchor="start" x="621.5" y="-51.5" font-family="Helvetica,sans-Serif" font-size="10.00"> charges : FLOAT</text>
<text text-anchor="start" x="621.5" y="-40.5" font-family="Helvetica,sans-Serif" font-size="10.00"> strategy : VARCHAR(64) [idx]</text>
<text text-anchor="start" x="621.5" y="-29.5" font-family="Helvetica,sans-Serif" font-size="10.00"> reason : VARCHAR(32)</text>
<text text-anchor="start" x="621.5" y="-18.5" font-family="Helvetica,sans-Serif" font-size="10.00"> product : VARCHAR(16)</text>
<text text-anchor="start" x="621.5" y="-7.5" font-family="Helvetica,sans-Serif" font-size="10.00"> status : VARCHAR(16)</text>
</g>
<!-- instruments&#45;&gt;fills -->
<g id="edge3" class="edge">
<title>instruments&#45;&gt;fills</title>
<path fill="none" stroke="#6b7686" stroke-dasharray="1,5" d="M266.11,-80.22C317.58,-77.97 377.41,-75.35 432.79,-72.93"/>
<polygon fill="#6b7686" stroke="#6b7686" points="433.08,-72.92 443.27,-76.97 438.08,-72.7 443.07,-72.48 443.07,-72.48 443.07,-72.48 438.08,-72.7 442.87,-67.98 433.08,-72.92 433.08,-72.92"/>
<text text-anchor="middle" x="337" y="-92.8" font-family="Helvetica,sans-Serif" font-size="9.00">logical ref</text>
<text text-anchor="middle" x="337" y="-82.8" font-family="Helvetica,sans-Serif" font-size="9.00">(not an enforced FK)</text>
</g>
<!-- aggs -->
<g id="node3" class="node">
<title>aggs</title>
<polygon fill="#f0fbfb" stroke="#9aa7b8" points="1092,-217 891,-217 891,-165 1098,-165 1098,-211 1092,-217"/>
<polyline fill="none" stroke="#9aa7b8" points="1092,-217 1092,-211 "/>
<polyline fill="none" stroke="#9aa7b8" points="1098,-211 1092,-211 "/>
<text text-anchor="start" x="899" y="-205" font-family="Helvetica,sans-Serif" font-size="10.00">continuous aggregates</text>
<text text-anchor="start" x="899" y="-194" font-family="Helvetica,sans-Serif" font-size="10.00"> &#160;ohlc_5min / ohlc_15min / ohlc_60min</text>
<text text-anchor="start" x="899" y="-183" font-family="Helvetica,sans-Serif" font-size="10.00"> &#160;time_bucket + first/max/min/last/sum</text>
<text text-anchor="start" x="899" y="-172" font-family="Helvetica,sans-Serif" font-size="10.00"> &#160;(auto&#45;refresh policies)</text>
</g>
<!-- ohlc_bars&#45;&gt;aggs -->
<g id="edge2" class="edge">
<title>ohlc_bars&#45;&gt;aggs</title>
<path fill="none" stroke="#6b7686" stroke-dasharray="5,2" d="M822.15,-191C842.21,-191 862.01,-191 880.63,-191"/>
<polygon fill="#6b7686" stroke="#6b7686" points="890.85,-191 880.85,-195.5 885.85,-191 880.85,-191 880.85,-191 880.85,-191 885.85,-191 880.85,-186.5 890.85,-191 890.85,-191"/>
<text text-anchor="middle" x="856.5" y="-193.8" font-family="Helvetica,sans-Serif" font-size="9.00">derives</text>
</g>
</g>
</svg>
